<svg width="99" height="30" viewBox="0 0 99 30" fill="none" xmlns="http://www.w3.org/2000/svg">
<g opacity="0.4">
<path d="M98.2105 11.1602C98.1612 11.1355 98.0872 11.1214 97.9814 11.1214H97.8193V11.4955H97.992C98.0731 11.4955 98.133 11.4885 98.1717 11.4708C98.2458 11.4426 98.281 11.3896 98.281 11.3085C98.281 11.2343 98.2563 11.1849 98.2105 11.1567V11.1602ZM98.0061 10.9943C98.14 10.9943 98.2352 11.0085 98.2986 11.0332C98.4114 11.079 98.4643 11.1637 98.4643 11.2943C98.4643 11.3861 98.429 11.4532 98.3585 11.499C98.3198 11.5237 98.2704 11.5379 98.2035 11.5485C98.2881 11.5626 98.348 11.5943 98.3867 11.6508C98.4255 11.7037 98.4431 11.7602 98.4431 11.8096V11.8837C98.4431 11.9085 98.4431 11.9332 98.4431 11.9614C98.4431 11.9896 98.4467 12.0073 98.4537 12.0143L98.4607 12.0285H98.2845C98.2845 12.0285 98.2845 12.0214 98.2845 12.0179V12.0073L98.2775 11.9755V11.8943C98.2775 11.7743 98.2422 11.6967 98.1753 11.6579C98.1365 11.6367 98.066 11.6261 97.9638 11.6261H97.8158V12.032H97.6254V11.0014H98.0026L98.0061 10.9943ZM97.4281 10.9414C97.2659 11.1002 97.1849 11.2908 97.1849 11.5132C97.1849 11.7355 97.2659 11.9296 97.4281 12.0885C97.5902 12.2473 97.7911 12.3249 98.0237 12.3249C98.2563 12.3249 98.4572 12.2473 98.6194 12.0885C98.7815 11.9296 98.8661 11.739 98.8661 11.5132C98.8661 11.2873 98.785 11.1002 98.6194 10.9414C98.4537 10.7826 98.2563 10.7049 98.0237 10.7049C97.7911 10.7049 97.5937 10.7826 97.4281 10.9414V10.9414ZM98.718 12.1767C98.5277 12.3602 98.2951 12.452 98.0237 12.452C97.7523 12.452 97.5232 12.3602 97.3329 12.1767C97.1426 11.9932 97.0474 11.7708 97.0474 11.5096C97.0474 11.2485 97.1426 11.0296 97.3329 10.8461C97.5232 10.6626 97.7523 10.5708 98.0202 10.5708C98.288 10.5708 98.5242 10.6626 98.7145 10.8461C98.9048 11.0296 99 11.2485 99 11.5096C99 11.7708 98.9048 11.9932 98.7145 12.1767" fill="white"/>
<path d="M33.1903 17.1821C33.215 13.6492 35.9641 10.688 39.5203 10.688C43.0766 10.688 45.5649 13.208 45.7728 16.7127V16.8433C45.7728 16.8963 45.7728 17.0269 45.7481 17.0763C45.6706 17.701 45.1243 18.1139 44.3983 18.1139H36.1509C36.2813 18.7104 36.5668 19.388 37.032 19.8292C37.5783 20.4539 38.6145 20.9198 39.5239 20.9975C40.4579 21.0751 41.5716 20.8422 42.2201 20.348C42.7664 19.7763 43.8273 19.8539 44.1656 20.2704C44.504 20.6339 44.7613 21.4139 44.1656 21.9575C42.8933 23.1257 41.3636 23.6728 39.5239 23.6728C35.9711 23.6481 33.222 20.7116 33.1938 17.1786L33.1903 17.1821ZM36.017 15.908H43.3585C43.0977 14.8704 41.776 13.3351 39.5203 13.1551C37.314 13.2574 36.2249 14.8421 36.017 15.908Z" fill="white"/>
<path d="M59.3034 22.2746C59.3034 23.0264 58.6796 23.6758 57.9042 23.6758C57.2028 23.6758 56.66 23.1817 56.5296 22.5605C55.5428 23.2347 54.2986 23.6758 53.0016 23.6758C49.4982 23.6758 46.6998 20.7146 46.6998 17.2064C46.6998 13.6981 49.5018 10.6875 53.0016 10.6875C54.2739 10.6875 55.5181 11.104 56.4768 11.7781V6.89337C56.4768 6.1416 57.1006 5.49219 57.9042 5.49219C58.7078 5.49219 59.3034 6.1416 59.3034 6.89337V22.2746V22.2746ZM53.0016 13.5216C52.0676 13.5216 51.2111 13.9099 50.5626 14.5875C49.9141 15.237 49.5264 16.1723 49.5264 17.2099C49.5264 18.2476 49.9141 19.1334 50.5626 19.7829C51.2111 20.457 52.0676 20.8488 53.0016 20.8488C53.9356 20.8488 54.792 20.4605 55.4406 19.7829C56.0891 19.1334 56.4768 18.1981 56.4768 17.2099C56.4768 16.1723 56.0891 15.237 55.4406 14.5875C54.792 13.9134 53.9603 13.5216 53.0016 13.5216Z" fill="white"/>
<path d="M64.2765 12.1418V22.2713C64.2765 23.0513 63.6808 23.6725 62.8773 23.6725C62.0737 23.6725 61.478 23.0478 61.478 22.2713V12.1418C61.478 11.3089 62.1019 10.7124 62.8773 10.7124C63.6527 10.7124 64.2765 11.3089 64.2765 12.1418V12.1418Z" fill="white"/>
<path d="M66.5217 17.2068V6.89728C66.5217 6.14551 67.1455 5.49609 67.9209 5.49609C68.6963 5.49609 69.3483 6.14551 69.3483 6.89728V11.782C70.307 11.1079 71.5547 10.6914 72.8235 10.6914C76.3269 10.6914 79.1253 13.6526 79.1253 17.2103C79.1253 20.768 76.3233 23.6797 72.8235 23.6797C71.5265 23.6797 70.2823 23.2386 69.2955 22.5644C69.165 23.1891 68.6223 23.6797 67.9209 23.6797C67.142 23.6797 66.5217 23.0303 66.5217 22.2785V17.2138V17.2068ZM69.3483 17.2068C69.3483 18.195 69.736 19.1303 70.3845 19.7797C71.033 20.4538 71.8648 20.8456 72.8235 20.8456C73.7822 20.8456 74.6139 20.4574 75.2625 19.7797C75.911 19.1303 76.2987 18.195 76.2987 17.2068C76.2987 16.1691 75.911 15.2338 75.2625 14.5844C74.6139 13.9103 73.7575 13.5185 72.8235 13.5185C71.8895 13.5185 71.033 13.9067 70.3845 14.5844C69.736 15.2338 69.3483 16.1691 69.3483 17.2068Z" fill="white"/>
<path d="M82.1528 5.49219C82.9564 5.49219 83.6049 6.1416 83.6049 6.92161V22.2464C83.6049 23.0264 82.9564 23.6758 82.1528 23.6758C81.3492 23.6758 80.7254 23.0264 80.7254 22.2464V6.92161C80.7254 6.1416 81.3739 5.49219 82.1528 5.49219V5.49219Z" fill="white"/>
<path d="M85.0429 17.1821C85.0676 13.6492 87.8167 10.688 91.373 10.688C94.9292 10.688 97.4175 13.208 97.6254 16.7127V16.8433C97.6254 16.8963 97.6255 17.0269 97.6008 17.0763C97.5232 17.701 96.9769 18.1139 96.2509 18.1139H88.0035C88.1339 18.7104 88.4194 19.388 88.8847 19.8292C89.431 20.4539 90.4672 20.9198 91.3765 20.9975C92.3105 21.0751 93.4242 20.8422 94.0727 20.348C94.619 19.7763 95.6799 19.8539 96.0183 20.2704C96.3566 20.6339 96.6139 21.4139 96.0183 21.9575C94.7459 23.1257 93.2163 23.6728 91.3765 23.6728C87.8238 23.6481 85.0747 20.7116 85.0465 17.1786L85.0429 17.1821ZM87.8696 15.908H95.2112C94.9503 14.8704 93.6286 13.3351 91.373 13.1551C89.1666 13.2574 88.0775 14.8421 87.8696 15.908Z" fill="white"/>
<path d="M62.8033 6.05322C63.7161 6.05322 64.4739 6.80852 64.4739 7.71559C64.4739 8.62265 63.7161 9.35677 62.8033 9.35677C61.8904 9.35677 61.1573 8.62618 61.1573 7.71559C61.1573 6.80499 61.8904 6.05322 62.8033 6.05322Z" fill="white"/>
<path d="M14.5633 29.1672C22.6064 29.1672 29.1266 22.6379 29.1266 14.5836C29.1266 6.52931 22.6064 0 14.5633 0C6.5202 0 0 6.52931 0 14.5836C0 22.6379 6.5202 29.1672 14.5633 29.1672Z" fill="#A1A1B3"/>
<path d="M27.1106 9.85755C28.4428 13.5317 28.3019 17.1705 26.6876 20.7141C25.662 22.9659 24.0795 24.7941 21.9718 26.1494C19.6421 27.6459 17.0904 28.373 14.3518 28.2388C11.2185 28.0871 8.42009 26.9682 6.01637 24.9C3.45405 22.6976 1.92089 19.9023 1.32524 16.6023C0.845911 13.9482 1.17722 11.3576 2.31916 8.90108C4.08494 5.10341 6.97856 2.58339 11.0141 1.45044C14.8382 0.373966 18.4367 0.917498 21.7886 3.07045C24.3474 4.71517 26.0497 7.02695 27.107 9.85755H27.1106ZM2.78439 19.9129C3.73601 22.5035 5.75203 24.5788 8.40246 26.0541C10.0202 26.9541 11.7966 27.3706 13.6575 27.48C17.1503 27.6812 20.2448 26.6259 22.9375 24.4765C25.2602 22.6235 26.7969 20.2164 27.463 17.2694C28.2455 13.7964 27.6216 10.574 25.6655 7.6693C23.6495 4.67282 20.7911 2.83045 17.2243 2.13515C13.7703 1.46103 10.5454 2.10339 7.62002 4.00575C5.17401 5.59753 3.47872 7.81401 2.50948 10.6093C1.45565 13.6446 1.50147 16.6235 2.78087 19.92L2.78439 19.9129Z" fill="white"/>
<path d="M21.4466 16.9627C21.2457 16.5815 20.9391 16.2885 20.5655 16.1191C20.6078 15.9426 20.6007 15.7591 20.5443 15.5826C20.5056 15.4697 20.4492 15.3673 20.3822 15.2791C20.6959 14.9685 20.7135 14.7462 20.7206 14.6368C20.7311 14.5203 20.71 14.4073 20.6712 14.3015C21.1506 14.1003 21.3021 13.9768 21.5629 13.4932C21.6123 13.3979 21.651 13.3097 21.6863 13.2215C21.7532 13.0485 21.8026 12.8509 21.8414 12.6391C21.9154 12.1944 21.6792 11.785 21.2704 11.6403V11.6191C21.3374 11.1956 21.147 10.772 20.8193 10.5003C20.851 10.4473 20.8756 10.3873 20.8933 10.3273C20.9285 10.2179 20.9391 10.105 20.932 9.99202C20.992 9.95673 21.0413 9.91084 21.0906 9.86143C21.2774 9.65673 21.3374 9.37084 21.2422 9.09555C21.2069 8.98966 21.1365 8.82378 20.9356 8.56613C20.925 8.38613 20.8686 8.21672 20.777 8.06495C20.7981 7.72612 20.7558 7.40495 20.5091 7.18612C20.4245 7.10847 20.3188 7.052 20.2095 7.02377C20.1003 6.99553 19.9769 6.98847 19.8571 7.00965C19.6949 6.73435 19.5328 6.62847 19.346 6.57906C19.198 6.53671 19.0429 6.54729 18.9054 6.60376C18.6658 6.69906 18.5107 6.85435 18.5107 6.85435C18.6411 6.54729 18.6587 6.55788 18.6446 6.05317C18.6376 5.83082 18.5953 5.60494 18.5177 5.38611C18.4578 5.22376 18.3697 5.08258 18.3098 4.99081C18.2005 4.82846 18.0455 4.71552 17.8622 4.66611C17.7283 4.63081 17.6119 4.63434 17.5485 4.63787H17.5344C17.2595 4.63787 17.0621 4.76846 16.967 4.83199C16.9599 4.83905 16.9493 4.84258 16.9352 4.85317C16.9141 4.86728 16.8718 4.88846 16.8295 4.91317C16.5652 5.05787 16.1211 5.30493 16.0118 5.78494C16.0012 5.81317 15.973 5.88023 15.9519 5.92611C15.9131 6.01788 15.8638 6.12729 15.825 6.24729C15.744 6.18729 15.6558 6.14141 15.5501 6.11317C15.3704 6.06376 15.1836 6.07788 15.0073 6.15553C14.9932 6.16259 14.9791 6.16612 14.9686 6.17317C14.8875 6.18023 14.7853 6.20141 14.6831 6.25435C14.5527 6.32141 14.454 6.40259 14.3729 6.46965C14.3518 6.48729 14.3342 6.50141 14.313 6.51906L14.2778 6.54729C14.2108 6.59671 14.1227 6.66377 14.0346 6.74847C14.024 6.69553 14.0134 6.64612 13.9958 6.59671C14.0416 6.40612 14.0275 6.20494 13.9535 6.02141C13.9711 5.94729 13.9817 5.86964 13.9817 5.78847C13.9746 5.54141 13.8654 5.30493 13.6751 5.14258L13.6645 5.13552C13.5623 5.04728 13.4354 4.98376 13.305 4.94846C12.9807 4.86022 12.6389 4.94846 12.4062 5.17081L12.3886 5.18846C12.223 5.3614 12.1419 5.58729 12.156 5.82729C12.1631 5.97553 12.2124 6.12023 12.2899 6.24729C12.2723 6.43082 12.3076 6.62141 12.3957 6.7873C12.3957 6.79435 12.3957 6.80141 12.3957 6.812C12.3463 6.78377 12.297 6.75906 12.2406 6.73788C12.1842 6.30023 11.8776 5.92258 11.4335 5.80258C11.3841 5.78847 11.3313 5.77788 11.2784 5.77082H11.2608C10.6299 5.70023 10.0342 6.1167 9.90032 6.71318V6.73435C9.78753 7.29553 10.147 7.83554 10.7251 7.99436C10.7251 7.99436 10.7462 7.99789 10.7568 8.00142C10.7955 8.14966 10.866 8.29083 10.9612 8.41436C10.933 8.42142 10.9083 8.43201 10.8872 8.43907C10.859 8.42848 10.8308 8.41789 10.8026 8.41083L10.7321 8.39672C10.6546 8.3826 10.5101 8.35789 10.1541 8.46025C10.0378 8.32966 9.90384 8.2626 9.78401 8.2273C9.61483 8.18142 9.43156 8.19907 9.26943 8.27319C9.14959 8.32966 9.04033 8.41436 8.92755 8.54495C8.70198 8.60142 8.49756 8.72848 8.34953 8.91554C8.15568 8.96849 8.00413 9.07084 7.88782 9.21202C7.74684 9.38849 7.69045 9.60731 7.72569 9.82967C7.73627 9.8932 7.75389 9.94967 7.77503 10.0061C7.42963 10.3908 7.43668 10.6167 7.44021 10.7438C7.44021 10.8003 7.44726 10.8567 7.46135 10.9097V10.9203C7.50717 11.0791 7.60233 11.2203 7.73979 11.3226C7.75389 11.3332 7.76799 11.3403 7.78208 11.3509C7.6834 11.6614 7.72922 12.0073 7.74684 12.1662C7.75036 12.205 7.75741 12.2403 7.75741 12.2756V12.3038C7.76446 12.3885 7.77504 12.5156 7.81028 12.6567C6.92563 12.6109 6.08327 13.2179 5.82951 14.1497C5.69205 14.6579 5.74492 15.1873 5.98458 15.6462C6.2313 16.1191 6.64367 16.4509 7.14415 16.5885C7.25693 16.6203 7.36972 16.6274 7.47898 16.6168C7.338 16.7685 7.24283 16.9627 7.21464 17.1885C7.17939 17.4497 7.24636 17.7003 7.38381 17.898C7.1089 18.0638 6.91858 18.3674 6.89743 18.7168C6.88333 18.9533 6.9503 19.1756 7.07366 19.3556C6.99259 19.4897 6.93973 19.645 6.92563 19.8109C6.90448 20.0368 6.96087 20.2521 7.07013 20.4321C6.97497 20.5697 6.91153 20.7321 6.89038 20.9121C6.83399 21.4062 7.123 21.8509 7.57766 21.978C7.63758 21.9956 7.6975 22.0027 7.76094 22.0097C7.78913 22.0097 10.5136 22.2039 13.312 22.9697C14.4434 23.2803 15.4408 23.6403 16.2726 24.0462C16.4594 24.1309 16.6639 24.1592 16.7978 24.1133L16.9423 24.0321C17.0656 24.258 17.3441 24.4698 17.6542 24.5545C18.2464 24.7168 18.8385 24.4839 19.0041 23.8345C19.1874 23.125 18.7609 22.6627 18.1864 22.4897C18.2182 22.4403 18.2464 22.3909 18.2675 22.3345C18.345 22.1509 18.3697 21.9568 18.3415 21.7768C18.5777 21.685 18.7821 21.5015 18.8949 21.2474C19.0041 21.0109 19.0147 20.7568 18.9477 20.5309C19.0077 20.4568 19.0605 20.3756 19.0993 20.2839C19.1557 20.1533 19.1839 20.0191 19.1839 19.8815C19.2015 19.8886 19.2191 19.8956 19.2403 19.8991C19.7408 20.0368 20.2659 19.9591 20.7206 19.6768C21.1576 19.405 21.4748 18.9744 21.6123 18.4697C21.7497 17.965 21.6969 17.4321 21.4572 16.9732L21.4466 16.9627Z" fill="white"/>
<path d="M18.3239 23.8938C18.2147 23.9961 18.0807 24.049 17.9221 24.049C17.7635 24.049 17.6331 23.9961 17.5239 23.8938C17.4146 23.7915 17.3582 23.6645 17.3582 23.5199C17.3582 23.3752 17.4146 23.2482 17.5239 23.1459C17.6331 23.0436 17.7671 22.9907 17.9221 22.9907C18.0772 22.9907 18.2147 23.0436 18.3239 23.1459C18.4332 23.2482 18.4896 23.3717 18.4896 23.5199C18.4896 23.668 18.4332 23.7915 18.3239 23.8938ZM17.5803 23.1989C17.4851 23.287 17.4393 23.3929 17.4393 23.5199C17.4393 23.6469 17.4851 23.7562 17.5803 23.8444C17.6754 23.9326 17.7882 23.9785 17.9257 23.9785C18.0631 23.9785 18.1759 23.9361 18.2711 23.8444C18.3662 23.7562 18.412 23.6469 18.412 23.5199C18.412 23.3929 18.3662 23.287 18.2711 23.1989C18.1759 23.1107 18.0596 23.0648 17.9257 23.0648C17.7917 23.0648 17.6754 23.1107 17.5803 23.1989ZM17.9151 23.2271C17.9926 23.2271 18.049 23.2341 18.0843 23.2482C18.1477 23.2729 18.1794 23.3223 18.1794 23.3964C18.1794 23.4493 18.1583 23.4846 18.1195 23.5093C18.0984 23.5234 18.0666 23.5304 18.0279 23.5375C18.0772 23.5446 18.1125 23.5622 18.1336 23.5939C18.1548 23.6257 18.1689 23.6539 18.1653 23.6821V23.7245C18.1653 23.7245 18.1653 23.7527 18.1653 23.7668C18.1653 23.7809 18.1653 23.7915 18.1689 23.7985V23.8056H18.0702V23.728C18.0666 23.661 18.0455 23.6186 18.0067 23.5939C17.9821 23.5798 17.9433 23.5763 17.8834 23.5763H17.7953V23.8056H17.686V23.2271H17.9045H17.9151ZM18.0349 23.3188C18.0067 23.3047 17.9644 23.2976 17.901 23.2976H17.8058V23.5093H17.9045C17.9503 23.5093 17.9856 23.5058 18.0102 23.4952C18.0525 23.4811 18.0737 23.4493 18.0737 23.4035C18.0737 23.3611 18.0596 23.3329 18.0314 23.3188H18.0349Z" fill="#A1A1B3"/>
<path d="M18.6658 18.4805C14.4293 16.4052 8.67379 15.9146 8.61387 15.9111C8.44469 15.897 8.28609 16.0452 8.26142 16.2464C8.23322 16.444 8.34953 16.617 8.51871 16.6276C8.5751 16.6311 14.2355 17.1146 18.3838 19.1476C18.5354 19.2217 18.7222 19.1335 18.7997 18.9499C18.8772 18.7664 18.8173 18.5546 18.6658 18.4805" fill="#A2A1B3"/>
<path d="M8.18041 17.6542C8.2368 17.6613 14.0276 18.2331 18.1442 20.2095C18.2958 20.2801 18.479 20.199 18.553 20.026C18.6271 19.8531 18.5671 19.6519 18.4156 19.5813C14.2108 17.5625 8.32844 16.9801 8.27205 16.9766C8.1064 16.9589 7.95132 17.1001 7.92312 17.2872C7.89845 17.4742 8.01123 17.6401 8.18041 17.6542Z" fill="#A2A1B3"/>
<path d="M7.89493 19.1054C7.95484 19.1054 13.8831 19.1336 17.9398 21.156C18.0878 21.2301 18.2711 21.1525 18.3486 20.9795C18.4262 20.8066 18.3662 20.6089 18.2182 20.5348C14.0452 18.456 8.18041 18.4277 7.9337 18.4277C7.76452 18.4277 7.62001 18.5795 7.60944 18.7666C7.59887 18.9536 7.72575 19.1054 7.89493 19.1054" fill="#A2A1B3"/>
<path d="M7.90557 20.2346C7.96196 20.2346 13.4672 20.411 17.309 22.2746C17.457 22.3452 17.6403 22.264 17.7143 22.0875C17.7883 21.9111 17.7284 21.7134 17.5804 21.6393C13.6399 19.7263 8.1981 19.5534 7.96901 19.5499C7.80336 19.5463 7.65533 19.6946 7.63771 19.8852C7.62008 20.0758 7.73992 20.2346 7.90557 20.2381" fill="#A2A1B3"/>
<path d="M7.85261 21.357C7.90548 21.357 13.0125 21.71 16.611 23.457C16.759 23.5276 16.9388 23.4465 17.0128 23.27C17.0868 23.097 17.0269 22.8994 16.8789 22.8253C13.1887 21.0359 8.14162 20.6864 7.93015 20.6759C7.76802 20.6653 7.61647 20.8064 7.59532 20.997C7.57417 21.1841 7.68696 21.3464 7.84909 21.357" fill="#A2A1B3"/>
<path d="M20.9321 17.2871C20.77 16.9801 20.5056 16.7612 20.1814 16.673C19.5822 16.5106 18.9584 16.8459 18.694 17.4389C14.8735 15.7236 10.2423 14.9224 8.98048 14.7283C9.00163 14.4671 8.95228 14.2059 8.83245 13.9765C8.67032 13.6694 8.40598 13.4506 8.08525 13.3624C7.41912 13.1789 6.72127 13.613 6.5239 14.3294C6.42873 14.6753 6.4675 15.0353 6.62611 15.3459C6.78823 15.653 7.05257 15.8718 7.3733 15.96C7.546 16.0059 7.72575 15.8965 7.7751 15.7095C7.82444 15.5224 7.72575 15.3353 7.55658 15.2895C7.4015 15.2471 7.27109 15.1412 7.19355 14.993C7.11601 14.8447 7.09839 14.6683 7.14421 14.5024C7.19003 14.3365 7.29224 14.1918 7.43674 14.1036C7.57772 14.0153 7.74338 13.9906 7.89846 14.033C8.05353 14.0753 8.18394 14.1812 8.26148 14.3294C8.33902 14.4777 8.35664 14.6542 8.31082 14.82C8.30377 14.8483 8.30025 14.873 8.29673 14.8977C8.28615 14.9224 8.2791 14.9506 8.27558 14.9753C8.24738 15.1659 8.36722 15.3389 8.54344 15.36C8.59983 15.3671 14.3131 16.1471 18.7222 18.2118C18.8844 18.2895 19.0782 18.2083 19.1557 18.0318C19.1557 18.0248 19.1593 18.0177 19.1628 18.0106C19.1945 17.9506 19.2192 17.8765 19.2403 17.8059C19.2861 17.6401 19.3884 17.4954 19.5329 17.4071C19.6738 17.3189 19.8395 17.2942 19.9946 17.3365C20.1497 17.3789 20.2801 17.4848 20.3576 17.633C20.4351 17.7812 20.4528 17.9542 20.4069 18.1236C20.3118 18.4695 19.9734 18.6812 19.6527 18.593C19.4835 18.5471 19.3002 18.6565 19.2509 18.8436C19.2016 19.0307 19.3002 19.2177 19.4694 19.2636C19.7902 19.3518 20.132 19.2989 20.4281 19.1189C20.7206 18.9354 20.9356 18.6424 21.0308 18.2965C21.1259 17.9506 21.0872 17.5906 20.9286 17.2801" fill="#A2A1B3"/>
<path d="M12.6459 11.2413C13.0231 11.206 13.2768 12.7202 13.2768 12.7202C13.2768 12.7202 14.6338 12.6637 15.0426 12.9602C15.4514 13.2531 13.957 14.1425 13.957 14.1425C13.957 14.1425 15.4021 14.5166 14.8417 15.3143C14.2884 16.1049 13.0054 14.9119 13.0054 14.9119C13.0054 14.9119 13.1253 16.3802 12.4556 16.4437C11.8705 16.4967 11.9974 15.0037 11.9974 15.0037C11.9974 15.0037 10.503 15.4555 10.1999 15.0531C9.75583 14.4672 11.1551 13.6413 11.1551 13.6413C11.1551 13.6413 10.1612 12.399 10.4008 12.0707C10.6405 11.7425 11.8106 12.6355 11.8106 12.6355C11.8106 12.6355 12.2688 11.2766 12.6424 11.2413" fill="#FFD100"/>
<path d="M12.3464 14.4953C12.8222 14.3929 13.4002 14.1141 13.3015 13.6341C13.2063 13.1541 12.7446 12.847 12.2688 12.9494C11.793 13.0517 11.4864 13.5211 11.5851 13.9976C11.6802 14.4776 11.8741 14.5941 12.3464 14.4953Z" fill="#F6851F"/>
<path d="M18.3873 13.2213C18.6587 13.2072 18.8173 14.2872 18.8173 14.2872C18.8173 14.2872 19.7936 14.2872 20.0826 14.506C20.3716 14.7249 19.2861 15.3143 19.2861 15.3143C19.2861 15.3143 20.3188 15.6178 19.9029 16.1684C19.494 16.7155 18.5918 15.8331 18.5918 15.8331C18.5918 15.8331 18.6587 16.8778 18.1759 16.9061C17.7565 16.9272 17.8692 15.8719 17.8692 15.8719C17.8692 15.8719 16.7907 16.1508 16.5793 15.8578C16.2691 15.4308 17.2877 14.8837 17.2877 14.8837C17.2877 14.8837 16.5934 13.9766 16.7696 13.7507C16.9458 13.5249 17.7741 14.1884 17.7741 14.1884C17.7741 14.1884 18.123 13.2354 18.3909 13.2213" fill="#FFD100"/>
<path d="M18.2288 15.4553C18.5707 15.3989 18.9901 15.2118 18.9267 14.8694C18.8667 14.5271 18.539 14.2942 18.1936 14.3542C17.8517 14.4106 17.6261 14.7353 17.686 15.0777C17.7495 15.42 17.8834 15.5083 18.2253 15.4518" fill="#F6851F"/>
<path d="M20.1355 7.69453C20.273 7.81806 20.1073 8.56983 20.1073 8.56983C20.1073 8.56983 20.5937 9.0463 20.6854 9.32513C20.7805 9.60395 20.1073 9.4416 20.1073 9.4416C20.1073 9.4416 20.5514 10.1369 20.2201 10.2781C19.8923 10.4193 19.6456 9.42748 19.6456 9.42748C19.6456 9.42748 19.4412 10.1122 19.1945 9.88984C18.9795 9.69925 19.2756 9.09571 19.2756 9.09571C19.2756 9.09571 18.6764 8.74277 18.6376 8.45689C18.5812 8.04041 19.2086 8.19571 19.2086 8.19571C19.2086 8.19571 19.0711 7.28864 19.2086 7.2357C19.346 7.17923 19.6069 7.99806 19.6069 7.99806C19.6069 7.99806 19.9946 7.57453 20.132 7.69806" fill="#FFD100"/>
<path d="M19.8817 8.19891C19.7584 8.19891 19.635 8.25535 19.5469 8.34707C19.4659 8.43526 19.4236 8.55167 19.4271 8.66808L19.4377 8.69277C19.6033 9.11961 19.7795 9.15841 19.8958 9.11961C20.1954 9.01731 20.3435 8.86562 20.3399 8.65044C20.3399 8.39645 20.1285 8.19185 19.8782 8.19891H19.8817Z" fill="#F6851F"/>
<path d="M13.4671 9.25078C13.6363 9.03902 14.528 9.6602 14.528 9.6602C14.528 9.6602 15.1836 8.93313 15.536 8.8696C15.8885 8.80607 15.5854 10.0167 15.5854 10.0167C15.5854 10.0167 16.5017 9.45549 16.6216 10.1437C16.7414 10.8214 15.4937 10.8884 15.4937 10.8884C15.4937 10.8884 16.2938 11.5555 15.9872 11.9332C15.7193 12.2614 15.032 11.4531 15.032 11.4531C15.032 11.4531 14.5104 12.4485 14.1509 12.4061C13.6328 12.3426 13.9218 11.2131 13.9218 11.2131C13.9218 11.2131 12.7975 11.1073 12.7517 10.8214C12.7058 10.5355 13.742 10.3767 13.742 10.3767C13.742 10.3767 13.2874 9.46608 13.4601 9.25784" fill="#FFD100"/>
<path d="M14.4857 11.0083C14.8347 11.0083 15.2823 10.8989 15.2858 10.5532C15.2858 10.2075 15.0074 9.92529 14.6584 9.92529C14.3095 9.92529 14.024 10.204 14.0205 10.5532C14.0205 10.8989 14.1368 11.0083 14.4857 11.0083Z" fill="#F6851F"/>
<path d="M19.8712 8.538C19.8712 8.61551 19.9381 8.67893 20.0157 8.67893C20.0932 8.67893 20.1566 8.61199 20.1566 8.53448C20.1566 8.45697 20.0897 8.39355 20.0121 8.39355C19.9346 8.39355 19.8712 8.46049 19.8712 8.538Z" fill="white"/>
<path d="M9.61135 8.88358C9.79815 8.79534 9.8334 9.3177 9.8334 9.3177C9.8334 9.3177 10.5031 9.02828 10.6863 9.06005C10.8696 9.08828 10.0836 9.72005 10.0836 9.72005C10.0836 9.72005 10.7709 9.57534 10.4502 9.98476C10.133 10.3942 9.57258 10.1965 9.57258 10.1965C9.57258 10.1965 9.54439 10.7259 9.21308 10.8812C8.92407 11.0154 9.07563 10.4295 9.07563 10.4295C9.07563 10.4295 8.31786 10.8954 8.19098 10.8036C8.0077 10.6695 8.74432 10.0836 8.74432 10.0836C8.74432 10.0836 8.33196 9.81182 8.46941 9.6424C8.60687 9.47299 9.12497 9.57534 9.12497 9.57534C9.12497 9.57534 9.42808 8.97181 9.61488 8.88711" fill="#FFD100"/>
<path d="M9.0016 9.92096C9.18488 10.0515 9.39635 9.9386 9.5761 9.82924C9.76994 9.71283 9.67126 9.39182 9.49151 9.2613C9.30823 9.12725 9.05447 9.16958 8.91701 9.34949C8.78308 9.53292 8.82185 9.78691 9.0016 9.91743" fill="#F6851F"/>
<path d="M9.17076 9.51184C9.23067 9.50478 9.27297 9.44478 9.26239 9.38831C9.25535 9.32831 9.19895 9.28596 9.13904 9.29655C9.07912 9.30714 9.03683 9.36008 9.0474 9.42361C9.05797 9.48361 9.11084 9.52596 9.17076 9.51537" fill="white"/>
<path d="M12.6565 9.06648C12.4309 8.9924 12.2371 8.75958 12.2371 8.53029C12.2476 8.29747 12.4521 8.15989 12.6776 8.23044C12.8961 8.30805 13.0477 8.56909 13.0371 8.80191C13.0371 9.03121 12.8715 9.14056 12.6565 9.06296" fill="#292670"/>
<path d="M11.8811 8.22679C11.6238 8.17387 11.4229 7.94458 11.4475 7.70118C11.4828 7.45424 11.733 7.28492 11.9903 7.33783C12.2406 7.39427 12.3992 7.65179 12.3639 7.90225C12.3393 8.14565 12.1278 8.28676 11.8811 8.22679" fill="#292670"/>
<path d="M11.0528 7.37941C10.7638 7.34766 10.5559 7.1219 10.6052 6.86438C10.6651 6.59981 10.9612 6.40227 11.2502 6.43402C11.5322 6.47282 11.6978 6.72328 11.6379 6.99138C11.585 7.24889 11.3313 7.41822 11.0528 7.38294" fill="#292670"/>
<path d="M13.1781 7.1009C13.1077 7.00918 13.09 6.86103 13.1499 6.76931C13.2134 6.67759 13.3367 6.67406 13.4072 6.76578C13.4742 6.8575 13.4672 7.00213 13.4037 7.09385C13.3438 7.18556 13.2486 7.18909 13.1817 7.09737" fill="#292670"/>
<path d="M13.0865 6.54724C12.9948 6.45553 12.9772 6.3109 13.0477 6.21918C13.1252 6.12746 13.2733 6.12746 13.3614 6.21918C13.446 6.3109 13.4424 6.45553 13.3614 6.54724C13.2874 6.63896 13.1675 6.64249 13.0794 6.54724" fill="#292670"/>
<path d="M12.9737 5.98241C12.8645 5.8907 12.8398 5.74254 12.9279 5.65082C13.0231 5.5591 13.1922 5.5591 13.3015 5.65082C13.4072 5.74254 13.4072 5.8907 13.3121 5.97889C13.224 6.0706 13.0759 6.07413 12.9737 5.97889" fill="#292670"/>
<path d="M13.2416 7.66584C13.1888 7.57413 13.1747 7.42949 13.2205 7.33425C13.2698 7.24253 13.365 7.239 13.4178 7.33072C13.4672 7.41891 13.4566 7.56707 13.4073 7.66232C13.3615 7.75403 13.291 7.75756 13.2451 7.66584" fill="#292670"/>
<path d="M17.9856 12.8785C18.2217 12.8891 18.4896 12.7409 18.5706 12.5293C18.6446 12.307 18.5001 12.106 18.264 12.0918C18.0314 12.0883 17.7988 12.2788 17.7247 12.501C17.6472 12.7162 17.76 12.8785 17.9891 12.8785" fill="#292670"/>
<path d="M19.0112 12.3669C19.2685 12.4092 19.5399 12.2646 19.6033 12.0282C19.6597 11.7848 19.487 11.5379 19.2262 11.4956C18.9724 11.4603 18.7328 11.6437 18.6764 11.8907C18.6129 12.127 18.7574 12.3316 19.0112 12.3669Z" fill="#292670"/>
<path d="M20.0827 11.8654C20.3647 11.936 20.6396 11.7984 20.6854 11.5409C20.7242 11.2728 20.5162 10.9835 20.2343 10.9095C19.9594 10.846 19.7126 11.0223 19.6739 11.2904C19.6281 11.5515 19.8078 11.7984 20.0827 11.8619" fill="#292670"/>
<path d="M18.3063 14.8377C18.3979 14.8236 18.4543 14.739 18.4402 14.6473C18.4226 14.5591 18.338 14.4956 18.2499 14.5132C18.1583 14.5273 18.1019 14.612 18.116 14.7037C18.1336 14.7954 18.2182 14.8554 18.3098 14.8377" fill="white"/>
<path d="M14.676 10.415C14.7677 10.415 14.8417 10.3409 14.8417 10.2492C14.8417 10.1575 14.7677 10.0869 14.676 10.0869C14.5844 10.0869 14.5104 10.161 14.5104 10.2492C14.5104 10.3409 14.5844 10.415 14.676 10.415Z" fill="white"/>
<path d="M12.4345 13.6198C12.5579 13.5951 12.6389 13.4681 12.6143 13.3446C12.5896 13.2176 12.4662 13.14 12.3429 13.1647C12.2195 13.1929 12.1384 13.3164 12.1631 13.4399C12.1878 13.5669 12.3111 13.6445 12.4345 13.6198Z" fill="white"/>
<path d="M18.0525 6.08155C18.049 5.92625 18.0173 5.76743 17.9644 5.62272C17.9327 5.53449 17.8763 5.44272 17.8269 5.3686C17.7741 5.28742 17.686 5.31213 17.6014 5.31213C17.5062 5.31213 17.4322 5.37566 17.3547 5.42507C17.1714 5.54154 16.7731 5.70037 16.7238 5.94743C16.6779 6.16272 16.3784 6.6039 16.5193 6.80155C16.6603 7.00273 16.8084 7.08744 16.9705 7.00626C16.9705 7.00626 17.2454 7.5392 17.6542 7.01685C17.9292 6.66861 18.0619 6.35802 18.0525 6.08508" fill="#D91A32"/>
<path d="M15.7686 7.47588C15.751 7.30294 15.6136 6.64999 15.3422 6.76999C15.314 6.78411 15.3175 6.80176 15.2964 6.81588C15.2153 6.87235 15.1237 6.81588 15.0461 6.8547C14.951 6.90411 14.8593 6.99235 14.7747 7.05588C14.6549 7.14764 14.454 7.27823 14.4329 7.44412C14.4047 7.66294 14.1403 8.1253 14.2954 8.31236C14.4505 8.49942 14.6091 8.57353 14.7606 8.48177C14.7606 8.48177 15.0743 8.99001 15.4444 8.43589C15.6911 8.06647 15.8004 7.74647 15.7722 7.47588" fill="#D91A32"/>
<path d="M18.8491 10.5599C18.8737 10.4152 18.916 9.94579 18.7574 9.86108C18.6235 9.79049 18.3979 9.88226 18.264 9.91049C18.0737 9.95284 17.7106 9.98108 17.5979 10.1752C17.4851 10.3658 17.0621 10.6834 17.1291 10.9164C17.1961 11.1529 17.3124 11.2834 17.4886 11.2587C17.4886 11.2587 17.5767 11.8552 18.1301 11.4952C18.5013 11.2552 18.7269 11.0046 18.8068 10.7434C18.8244 10.6834 18.8385 10.6234 18.8491 10.5634" fill="#D91A32"/>
<path d="M16.9212 12.2827C16.9036 12.1945 16.8648 12.1239 16.7767 12.085C16.5406 11.9827 16.1916 12.1415 15.9907 12.265C15.7605 12.4086 15.576 12.6921 15.4374 13.1156C15.2295 13.7509 15.8216 13.6874 15.8216 13.6874C15.8427 13.8639 15.9978 13.9451 16.2375 13.9521C16.4807 13.9592 16.6816 13.4686 16.8331 13.3098C16.9776 13.1651 16.9283 12.8474 16.9212 12.6639C16.9212 12.5509 16.9388 12.4062 16.9177 12.2862" fill="#D91A32"/>
<path d="M17.7812 8.14946C17.7847 8.0224 17.686 8.00123 17.5732 7.98358C17.4569 7.96593 17.3159 7.9377 17.2032 7.96946C17.0798 8.00828 16.96 8.06123 16.8507 8.12829C16.6204 8.27182 16.436 8.55535 16.2974 8.97888C16.0894 9.61418 16.6851 9.55065 16.6851 9.55065C16.7062 9.72712 16.8613 9.80829 17.1045 9.81535C17.3477 9.82241 17.545 9.33182 17.7001 9.173C17.8552 9.01417 17.7706 8.51299 17.7847 8.14946" fill="#D91A32"/>
<path d="M21.1329 13.0131C21.1893 12.8613 21.2281 12.7025 21.2563 12.5507C21.288 12.3636 21.1576 12.2542 20.9778 12.2719C20.6183 12.3072 20.1179 12.2472 19.9698 12.4131C19.8218 12.5789 19.346 12.8048 19.3671 13.0484C19.3883 13.2954 19.4764 13.4436 19.6526 13.4542C19.6526 13.4542 19.6244 14.0578 20.2377 13.8107C20.6465 13.6484 20.9156 13.446 21.0448 13.2036C21.0765 13.1436 21.1082 13.0766 21.1329 13.0095" fill="#D91A32"/>
<path d="M12.2865 10.4124C12.263 9.97005 12.1584 9.65005 11.9728 9.4524C11.8071 9.27593 11.1727 8.78533 11.0705 9.23357C10.9895 9.59004 10.778 10.0524 10.8872 10.2465C10.9965 10.4371 11.0599 10.963 11.2961 11.0195C11.5322 11.0724 11.7014 11.0371 11.7684 10.8712C11.7684 10.8712 12.3252 11.083 12.2865 10.4159" fill="#D91A32"/>
<path d="M9.98139 12.3672C9.81927 11.9554 9.61837 11.686 9.3787 11.5589C9.16371 11.446 8.8465 11.3366 8.60684 11.4177C8.33545 11.506 8.46233 12.0248 8.47643 12.2401C8.487 12.3742 8.49053 12.5648 8.59626 12.6601C8.75839 12.8048 8.98748 13.2848 9.22715 13.2601C9.47034 13.2319 9.61837 13.1436 9.62894 12.9672C9.62894 12.9672 10.2246 12.9883 9.97787 12.3707" fill="#D91A32"/>
</g>
</svg>
