<svg width="109" height="29" viewBox="0 0 109 29" fill="none" xmlns="http://www.w3.org/2000/svg">
<path d="M33.8476 17.629V22.4475C33.8476 22.8001 33.7301 23.0939 33.495 23.329C33.26 23.564 32.9661 23.6816 32.6136 23.6816C32.261 23.6816 31.9672 23.564 31.7321 23.329C31.4971 23.0939 31.3795 22.8001 31.3795 22.4475V17.629C31.3795 17.1001 31.3208 16.6888 31.2033 16.2774C31.0857 15.8661 30.9094 15.5135 30.6744 15.2197C30.4393 14.9259 30.1455 14.6908 29.8517 14.5733C29.4991 14.397 29.1466 14.3383 28.7352 14.3383C28.3239 14.3383 27.9125 14.397 27.56 14.5733C27.2074 14.7496 26.9136 14.9846 26.6198 15.2785C26.3847 15.5723 26.1496 15.9249 26.0321 16.3362C25.9146 16.7475 25.7971 17.1589 25.7971 17.629V22.5063C25.7971 22.8589 25.6795 23.1527 25.4445 23.3877C25.2094 23.6228 24.9156 23.7403 24.563 23.7403C24.3868 23.7403 24.2105 23.6816 24.0929 23.6228C23.9167 23.564 23.7991 23.4465 23.6816 23.329C23.5641 23.2115 23.5053 23.0939 23.3878 22.9176C23.329 22.7414 23.2703 22.6238 23.2703 22.4475V13.0455C23.2703 12.8692 23.329 12.6929 23.3878 12.5754C23.4466 12.3991 23.5641 12.2816 23.6816 12.164C23.7991 12.0465 23.9167 11.9877 24.0929 11.8702C24.2692 11.8114 24.3868 11.7527 24.563 11.7527C24.7393 11.7527 24.9156 11.8114 25.0332 11.8702C25.2094 11.929 25.327 12.0465 25.4445 12.164C25.562 12.2816 25.6208 12.3991 25.6795 12.5754C25.7383 12.7517 25.7971 12.8692 25.7971 13.0455V13.2218C26.2672 12.8104 26.7373 12.4578 27.3249 12.164C27.9125 11.8702 28.4414 11.7527 29.029 11.7527C29.793 11.7527 30.4393 11.8702 31.027 12.2228C31.6146 12.5166 32.1435 12.9279 32.5548 13.4568C32.9661 13.9857 33.3187 14.5733 33.5538 15.2785C33.7301 15.9836 33.8476 16.8063 33.8476 17.629Z" fill="white" fill-opacity="0.3"/>
<path d="M35.199 17.8053C35.199 16.9827 35.3753 16.16 35.6691 15.4548C35.9629 14.7497 36.433 14.1033 36.9619 13.5744C37.4907 13.0455 38.1371 12.5754 38.901 12.2816C39.665 11.9878 40.4289 11.8115 41.2516 11.8115C42.0742 11.8115 42.8382 11.9878 43.6021 12.2816C44.3072 12.5754 44.9536 13.0455 45.4825 13.5744C46.0114 14.1033 46.4815 14.7497 46.7753 15.4548C47.1278 16.16 47.2454 16.9239 47.2454 17.8053V22.4476C47.2454 22.6239 47.1866 22.8002 47.1278 22.9765C47.0691 23.1528 46.9516 23.2703 46.834 23.3878C46.7165 23.5053 46.599 23.5053 46.4227 23.5641C46.2464 23.6229 46.0701 23.6816 45.8938 23.6816C45.5412 23.6816 45.3062 23.5641 45.0711 23.3291C44.8361 23.094 44.7186 22.859 44.7186 22.5064C44.1897 22.9177 43.6608 23.2115 43.0732 23.4466C42.4856 23.6816 41.8392 23.7992 41.1928 23.7992C40.3701 23.7992 39.6062 23.6229 38.8423 23.3291C38.1371 23.0352 37.4907 22.5651 36.9031 22.0363C36.3742 21.5074 35.9041 20.861 35.6103 20.1559C35.3753 19.4507 35.199 18.628 35.199 17.8053ZM37.7258 17.8053C37.7258 18.2754 37.8433 18.7455 38.0196 19.1569C38.1959 19.5682 38.4309 19.9208 38.7835 20.2734C39.0773 20.5672 39.4887 20.861 39.9 21.0373C40.3113 21.2136 40.7814 21.3311 41.2516 21.3311C41.7217 21.3311 42.1918 21.2136 42.6031 21.0373C43.0144 20.861 43.367 20.626 43.7196 20.2734C44.0134 19.9796 44.3072 19.5682 44.4835 19.1569C44.6598 18.7455 44.7773 18.2754 44.7773 17.8053C44.7773 17.3352 44.6598 16.8651 44.4835 16.4538C44.3072 16.0425 44.0722 15.6899 43.7196 15.3373C43.4258 15.0435 43.0144 14.7497 42.6031 14.5734C42.1918 14.3971 41.7217 14.2796 41.2516 14.2796C40.7814 14.2796 40.3113 14.3971 39.9 14.5734C39.4887 14.7497 39.1361 14.9847 38.7835 15.3373C38.4897 15.6311 38.1959 16.0425 38.0196 16.4538C37.7845 16.8651 37.7258 17.3352 37.7258 17.8053Z" fill="white" fill-opacity="0.3"/>
<path d="M51.829 13.0453C52.3579 12.634 52.9455 12.3402 53.5919 12.1051C54.2383 11.8701 54.8847 11.7525 55.5899 11.7525H55.6486C56.06 11.7525 56.4126 11.8701 56.5888 12.1051C56.8239 12.3402 56.9414 12.634 56.9414 12.9866C56.9414 13.3391 56.8239 13.633 56.5888 13.868C56.3538 14.1031 56.0012 14.2206 55.6486 14.2206H55.5899C55.061 14.2206 54.5909 14.3381 54.1208 14.5144C53.6507 14.6907 53.2394 14.9845 52.9455 15.3371C52.593 15.6897 52.3579 16.101 52.1229 16.5711C51.9466 17.0412 51.829 17.5113 51.829 18.0402V22.3886C51.829 22.7412 51.7115 23.035 51.4765 23.2701C51.2414 23.5051 50.9476 23.6226 50.595 23.6226C50.4187 23.6226 50.2425 23.5639 50.1249 23.5051C49.9486 23.4464 49.8311 23.3288 49.7136 23.2113C49.5961 23.0938 49.5373 22.9763 49.4198 22.8C49.361 22.6237 49.3022 22.5062 49.3022 22.3299V12.9278C49.3022 12.7515 49.361 12.5752 49.4198 12.4577C49.4785 12.3402 49.5961 12.1639 49.7136 12.0464C49.8311 11.9288 49.9486 11.8701 50.1249 11.7525C50.3012 11.6938 50.4775 11.635 50.6538 11.635C50.8301 11.635 51.0064 11.6938 51.1239 11.7525C51.3002 11.8113 51.4177 11.9288 51.5352 12.0464C51.6528 12.1639 51.7115 12.2814 51.7703 12.4577C51.7703 12.6927 51.829 12.869 51.829 13.0453Z" fill="white" fill-opacity="0.3"/>
<path d="M56.824 17.8053C56.824 16.9827 57.0003 16.16 57.2941 15.4548C57.5879 14.7497 58.058 14.1033 58.5869 13.5744C59.1157 13.0455 59.7621 12.5754 60.526 12.2816C61.29 11.9878 62.0539 11.8115 62.8766 11.8115C63.6992 11.8115 64.4632 11.9878 65.2271 12.2816C65.9322 12.5754 66.5786 13.0455 67.1075 13.5744C67.6364 14.1033 68.1065 14.7497 68.4003 15.4548C68.7529 16.16 68.8704 16.9239 68.8704 17.8053V22.4476C68.8704 22.6239 68.8116 22.8002 68.7529 22.9765C68.6941 23.1528 68.5766 23.2703 68.459 23.3878C68.3415 23.5053 68.224 23.6229 68.0477 23.6816C67.8714 23.7404 67.6951 23.7992 67.5188 23.7992C67.1663 23.7992 66.9312 23.6816 66.6961 23.4466C66.4611 23.2115 66.3436 22.9765 66.3436 22.6239C65.8147 23.0352 65.2858 23.3291 64.6982 23.5641C64.1106 23.7992 63.4642 23.9167 62.8178 23.9167C61.9951 23.9167 61.2312 23.7404 60.4673 23.4466C59.7034 23.1528 59.1157 22.6827 58.5281 22.1538C57.9992 21.6249 57.5291 20.9785 57.2353 20.2734C56.9415 19.4507 56.824 18.628 56.824 17.8053ZM59.292 17.8053C59.292 18.2754 59.4095 18.7455 59.5858 19.1569C59.7621 19.5682 59.9972 19.9208 60.3498 20.2734C60.6436 20.5672 61.0549 20.861 61.4662 21.0373C61.8776 21.2136 62.3477 21.3311 62.8178 21.3311C63.2879 21.3311 63.758 21.2136 64.1693 21.0373C64.5807 20.861 64.9333 20.626 65.2858 20.2734C65.5797 19.9796 65.8735 19.5682 66.0498 19.1569C66.226 18.7455 66.3436 18.2754 66.3436 17.8053C66.3436 17.3352 66.226 16.8651 66.0498 16.4538C65.8735 16.0425 65.6384 15.6899 65.2858 15.3373C64.992 15.0435 64.5807 14.7497 64.1693 14.5734C63.758 14.3971 63.2879 14.2796 62.8178 14.2796C62.3477 14.2796 61.8776 14.3971 61.4662 14.5734C61.0549 14.7497 60.7023 14.9847 60.3498 15.3373C60.0559 15.6311 59.7621 16.0425 59.5858 16.4538C59.4095 16.8651 59.292 17.3352 59.292 17.8053Z" fill="white" fill-opacity="0.3"/>
<path d="M81.6218 17.629V22.4475C81.6218 22.8001 81.5042 23.0939 81.2692 23.329C81.0341 23.564 80.7403 23.6816 80.3877 23.6816C80.0352 23.6816 79.7413 23.564 79.5063 23.329C79.2712 23.0939 79.1537 22.8001 79.1537 22.4475V17.629C79.1537 17.1001 79.095 16.6888 78.9774 16.2774C78.8599 15.8661 78.6836 15.5135 78.4486 15.2197C78.2135 14.9259 77.9197 14.6908 77.6259 14.5733C77.2733 14.397 76.9207 14.3383 76.5094 14.3383C76.098 14.3383 75.6867 14.397 75.3341 14.5733C74.9815 14.7496 74.6877 14.9846 74.3939 15.2785C74.1589 15.5723 73.9238 15.9249 73.8063 16.3362C73.6888 16.7475 73.5712 17.1589 73.5712 17.629V22.5063C73.5712 22.8589 73.4537 23.1527 73.2187 23.3877C72.9836 23.6228 72.6898 23.7403 72.3372 23.7403C72.1609 23.7403 71.9846 23.6816 71.8671 23.6228C71.6908 23.564 71.5733 23.4465 71.4558 23.329C71.3382 23.2115 71.2795 23.0939 71.162 22.9176C71.1032 22.7414 71.0444 22.6238 71.0444 22.4475V13.0455C71.0444 12.8692 71.1032 12.6929 71.162 12.5754C71.2207 12.3991 71.3382 12.2816 71.4558 12.164C71.5733 12.0465 71.6908 11.9877 71.8671 11.8702C72.0434 11.8114 72.1609 11.7527 72.3372 11.7527C72.5135 11.7527 72.6898 11.8114 72.8073 11.8702C72.9836 11.929 73.1011 12.0465 73.2187 12.164C73.3362 12.2816 73.3949 12.3991 73.4537 12.5754C73.5125 12.7517 73.5712 12.8692 73.5712 13.0455V13.2218C74.0413 12.8104 74.5114 12.4578 75.0991 12.164C75.6279 11.929 76.2156 11.7527 76.8032 11.7527C77.5671 11.7527 78.2135 11.8702 78.8011 12.2228C79.3888 12.5166 79.9176 12.9279 80.329 13.4568C80.7403 13.9857 81.0929 14.5733 81.3279 15.2785C81.5042 15.9836 81.6218 16.8063 81.6218 17.629Z" fill="white" fill-opacity="0.3"/>
<path d="M94.961 17.4528C94.961 17.5115 94.961 17.5703 94.961 17.6291C94.961 17.6878 94.961 17.7466 94.961 17.8053C94.961 17.8641 94.961 17.9229 94.961 17.9816C94.961 18.0404 94.961 18.0992 94.961 18.1579V22.5064C94.961 23.3878 94.7847 24.1517 94.4321 24.9157C94.1383 25.6796 93.6682 26.2672 93.1393 26.7961C92.6104 27.3249 91.964 27.7363 91.2589 28.0301C90.5537 28.3239 89.731 28.5002 88.9084 28.5002C88.0857 28.5002 87.3805 28.3827 86.6754 28.0889C85.9702 27.795 85.3238 27.3837 84.8537 26.8548C84.6774 26.6785 84.5599 26.561 84.5011 26.3847C84.4424 26.2084 84.3836 26.0322 84.3836 25.8559C84.3836 25.6796 84.3836 25.5033 84.5011 25.3858C84.6187 25.2682 84.6774 25.0919 84.795 24.9744C84.9713 24.7981 85.2063 24.6806 85.3826 24.6218C85.5589 24.5631 85.7352 24.5631 85.9115 24.6218C86.0877 24.6806 86.264 24.7394 86.3816 24.8569C86.4991 24.9744 86.6754 25.0332 86.7929 25.1507C87.1455 25.4445 87.5568 25.6796 87.9682 25.7971C88.3795 25.9146 88.7908 25.9734 89.2022 25.9734C89.6135 25.9734 90.0249 25.8559 90.4362 25.6796C90.7888 25.5033 91.1414 25.2682 91.4352 24.9744C91.729 24.6806 91.964 24.328 92.1403 23.9754C92.3166 23.6229 92.4341 23.2115 92.4929 22.7414C91.964 23.094 91.4352 23.3878 90.8475 23.5641C90.2599 23.7404 89.6135 23.8579 88.9671 23.8579C88.1444 23.8579 87.3805 23.6816 86.6166 23.3878C85.8527 23.094 85.2651 22.6239 84.6774 22.095C84.1486 21.5662 83.6785 20.9198 83.3846 20.2146C83.0908 19.5095 82.9146 18.6868 82.9146 17.8641C82.9146 17.0414 83.0908 16.2187 83.3846 15.5136C83.6785 14.8084 84.1486 14.162 84.6774 13.6332C85.2063 13.1043 85.8527 12.6342 86.6166 12.3404C87.3805 12.0466 88.1444 11.8703 88.9671 11.8703C89.6135 11.8703 90.2599 11.9878 90.8475 12.1641C91.4352 12.3404 91.964 12.6342 92.4929 12.9868C92.5517 12.6342 92.6692 12.3992 92.9042 12.1641C93.1393 11.929 93.4331 11.8115 93.7269 11.8115C94.0795 11.8115 94.3733 11.929 94.6084 12.1641C94.8434 12.3992 94.961 12.693 94.961 13.0455V17.4528ZM85.4413 17.8053C85.4413 18.2754 85.5589 18.7455 85.7352 19.1569C85.9115 19.5682 86.1465 19.9208 86.4991 20.2734C86.7929 20.5672 87.2042 20.861 87.6156 21.0373C88.0269 21.2136 88.497 21.3311 88.9671 21.3311C89.4372 21.3311 89.8486 21.2136 90.2599 21.0961C90.6713 20.9198 91.0238 20.6847 91.3176 20.3909C91.6115 20.0971 91.8465 19.7445 92.0816 19.3919C92.2579 18.9806 92.3754 18.5693 92.4341 18.1579V17.5703C92.3754 17.1002 92.2579 16.6888 92.0816 16.3363C91.9053 15.9249 91.6115 15.6311 91.3176 15.3373C91.0238 15.0435 90.6713 14.8084 90.2599 14.6321C89.8486 14.4559 89.4372 14.3971 88.9671 14.3971C88.497 14.3971 88.0269 14.5146 87.6156 14.6909C87.2042 14.8672 86.8517 15.1022 86.4991 15.4548C86.2053 15.7486 85.9115 16.16 85.7352 16.5713C85.5589 16.8651 85.4413 17.3352 85.4413 17.8053Z" fill="white" fill-opacity="0.3"/>
<path d="M96.4299 17.8053C96.4299 16.9827 96.6062 16.16 96.9 15.4548C97.1938 14.7497 97.664 14.1033 98.1928 13.5744C98.7217 13.0455 99.3681 12.5754 100.132 12.2816C100.896 11.9878 101.66 11.8115 102.483 11.8115C103.305 11.8115 104.069 11.9878 104.833 12.2816C105.538 12.5754 106.185 13.0455 106.713 13.5744C107.242 14.1033 107.712 14.7497 108.006 15.4548C108.3 16.16 108.476 16.9239 108.476 17.8053V22.4476C108.476 22.6239 108.418 22.8002 108.359 22.9765C108.3 23.1528 108.183 23.2703 108.065 23.3878C107.947 23.5053 107.83 23.6229 107.654 23.6816C107.477 23.7404 107.301 23.7992 107.125 23.7992C106.772 23.7992 106.537 23.6816 106.302 23.4466C106.067 23.2115 105.95 22.9765 105.95 22.6239C105.421 23.0352 104.892 23.3291 104.304 23.5641C103.717 23.7992 103.07 23.9167 102.424 23.9167C101.601 23.9167 100.837 23.7404 100.073 23.4466C99.3093 23.1528 98.7217 22.6827 98.1341 22.1538C97.5464 21.6249 97.1351 20.9785 96.8413 20.2734C96.6062 19.4507 96.4299 18.628 96.4299 17.8053ZM98.9567 17.8053C98.9567 18.2754 99.0743 18.7455 99.2505 19.1569C99.4268 19.5682 99.6619 19.9208 100.014 20.2734C100.308 20.5672 100.72 20.861 101.131 21.0373C101.542 21.2136 102.012 21.3311 102.483 21.3311C102.953 21.3311 103.423 21.2136 103.834 21.0373C104.245 20.861 104.598 20.626 104.951 20.2734C105.244 19.9796 105.538 19.5682 105.714 19.1569C105.891 18.7455 106.008 18.2754 106.008 17.8053C106.008 17.3352 105.891 16.8651 105.714 16.4538C105.538 16.0425 105.303 15.6899 104.951 15.3373C104.657 15.0435 104.245 14.7497 103.834 14.5734C103.423 14.3971 102.953 14.2796 102.483 14.2796C102.012 14.2796 101.542 14.3971 101.131 14.5734C100.72 14.7497 100.367 14.9847 100.014 15.3373C99.7207 15.6311 99.4268 16.0425 99.2505 16.4538C99.0743 16.8651 98.9567 17.3352 98.9567 17.8053Z" fill="white" fill-opacity="0.3"/>
<path d="M2.40942 2.46802H4.58365C6.28778 2.46802 7.63932 3.81956 7.63932 5.52369V7.69792H5.4651C3.76097 7.69792 2.40942 6.34637 2.40942 4.64225C2.40942 4.70101 2.40942 2.46802 2.40942 2.46802Z" fill="white" fill-opacity="0.3"/>
<path d="M17.2176 0V2.87938C17.2176 5.58248 15.0434 7.81547 12.2816 7.81547H9.46094V4.93609C9.46094 2.23299 11.6352 0 14.397 0H17.2176Z" fill="white" fill-opacity="0.3"/>
<path d="M8.63815 26.4433C13.4089 26.4433 17.2763 22.5759 17.2763 17.8051C17.2763 13.0344 13.4089 9.16699 8.63815 9.16699C3.86743 9.16699 0 13.0344 0 17.8051C0 22.5759 3.86743 26.4433 8.63815 26.4433Z" fill="white" fill-opacity="0.3"/>
</svg>
