<svg width="110" height="26" viewBox="0 0 110 26" fill="none" xmlns="http://www.w3.org/2000/svg">
<g opacity="0.3">
<path opacity="0.981" fill-rule="evenodd" clip-rule="evenodd" d="M41.0377 0.00384436C41.7552 -0.0288699 42.4138 0.147208 43.0138 0.532044C43.5989 1.07176 43.8544 1.73627 43.7805 2.52557C43.7498 2.5665 43.7099 2.59492 43.6612 2.61076C43.1801 2.75109 42.6915 2.84194 42.1961 2.88338C42.1351 2.85663 42.084 2.8169 42.0428 2.76411C41.9876 2.54407 41.9194 2.32826 41.8383 2.11664C41.6666 1.92666 41.4506 1.83581 41.191 1.84402C40.9889 1.84351 40.8015 1.89463 40.6288 1.99737C40.5014 2.17491 40.4278 2.37372 40.4073 2.59373C40.3845 3.44566 40.3845 4.29759 40.4073 5.14953C40.4703 5.78115 40.8169 6.02535 41.4465 5.88219C41.651 5.83666 41.793 5.71739 41.8724 5.52438C41.9208 5.3283 41.9774 5.13518 42.0428 4.94506C42.1106 4.86866 42.1958 4.83459 42.2983 4.84283C42.7549 4.92857 43.2091 5.02511 43.6612 5.13249C43.7719 5.18667 43.8288 5.27756 43.8316 5.40511C43.7893 6.53706 43.2329 7.27541 42.162 7.62014C41.4019 7.803 40.6523 7.76892 39.9133 7.51791C39.3647 7.32131 38.9841 6.95215 38.7718 6.41039C38.6618 6.14803 38.5936 5.87541 38.5674 5.59253C38.5446 4.44525 38.5446 3.298 38.5674 2.15072C38.6625 1.07939 39.2247 0.403538 40.254 0.123115C40.5177 0.0669216 40.779 0.0271874 41.0377 0.00384436Z" fill="#EDEDED"/>
</g>
<g opacity="0.3">
<path opacity="0.997" fill-rule="evenodd" clip-rule="evenodd" d="M12.3489 0.0378935C16.7123 0.0270569 20.2388 1.71958 22.9283 5.11542C25.2005 8.26605 25.9501 11.7533 25.1771 15.5772C24.3077 19.1599 22.3031 21.9031 19.1633 23.8069C15.7696 25.6866 12.226 26.0273 8.53278 24.8292C4.86198 23.4524 2.28952 20.9477 0.815422 17.3151C-0.566646 13.3643 -0.191852 9.59309 1.93981 6.00143C4.09985 2.70891 7.13797 0.760811 11.0541 0.157164C11.4899 0.106048 11.9215 0.06628 12.3489 0.0378935Z" fill="#E1E1E1"/>
</g>
<g opacity="0.3">
<path opacity="0.988" fill-rule="evenodd" clip-rule="evenodd" d="M29.1806 0.208189C29.6691 0.202498 30.1575 0.208189 30.6457 0.225228C30.7196 0.253614 30.7707 0.304731 30.7991 0.378576C30.8218 2.70719 30.8218 5.03583 30.7991 7.36444C30.7723 7.4253 30.7326 7.47642 30.6798 7.51779C30.1687 7.54052 29.6576 7.54052 29.1466 7.51779C29.0938 7.47642 29.054 7.4253 29.0273 7.36444C29.0046 5.03583 29.0046 2.70719 29.0273 0.378576C29.0622 0.304049 29.1133 0.247242 29.1806 0.208189Z" fill="#EDEDED"/>
</g>
<g opacity="0.3">
<path opacity="0.984" fill-rule="evenodd" clip-rule="evenodd" d="M32.1108 0.208189C32.7242 0.202498 33.3374 0.208189 33.9507 0.225228C34.0219 0.252217 34.0843 0.291986 34.1381 0.344499C34.6345 1.55632 35.1398 2.76038 35.6543 3.9567C35.6826 2.77551 35.6996 1.59415 35.7054 0.412654C35.7289 0.325518 35.78 0.26302 35.8587 0.225228C36.3586 0.202498 36.8581 0.202498 37.3579 0.225228C37.4066 0.241074 37.4465 0.269495 37.4772 0.310421C37.5337 2.65982 37.545 5.01116 37.5113 7.36444C37.4952 7.4132 37.467 7.45294 37.4261 7.48371C36.7818 7.53963 36.1344 7.55098 35.484 7.51779C35.423 7.49104 35.3719 7.4513 35.3306 7.39852C34.8339 6.18948 34.3286 4.98543 33.8144 3.78631C33.7967 4.99228 33.7684 6.19633 33.7292 7.39852C33.7122 7.46098 33.6723 7.50075 33.61 7.51779C33.0989 7.54052 32.5878 7.54052 32.0767 7.51779C32.0483 7.4894 32.0199 7.46098 31.9915 7.43259C31.935 5.08405 31.9236 2.73271 31.9575 0.378576C31.9924 0.304049 32.0435 0.247242 32.1108 0.208189Z" fill="#EDEDED"/>
</g>
<g opacity="0.3">
<path opacity="0.985" fill-rule="evenodd" clip-rule="evenodd" d="M45.0241 0.208189C45.8759 0.202498 46.7277 0.208189 47.5795 0.225228C48.1118 0.224853 48.6113 0.349781 49.0787 0.600079C49.6327 1.02117 49.9224 1.58345 49.9476 2.28691C50.0137 2.8942 49.9455 3.4849 49.7431 4.05893C49.6835 4.18935 49.6154 4.31427 49.5387 4.43378C49.4174 4.58727 49.2869 4.72927 49.1469 4.85975C49.5227 5.58321 49.9033 6.30453 50.2883 7.02367C50.3448 7.26401 50.2597 7.42871 50.0327 7.51779C49.7942 7.52348 49.5557 7.52913 49.3172 7.53483C49.0525 7.53943 48.7915 7.52239 48.5336 7.48371C48.1373 6.75374 47.7455 6.02107 47.3581 5.28572C47.1622 5.24684 46.9635 5.24118 46.7618 5.26868C46.6879 5.29707 46.6368 5.34818 46.6085 5.42203C46.5972 6.03542 46.5857 6.64881 46.5744 7.26221C46.5441 7.38529 46.4702 7.47049 46.3529 7.51779C45.8872 7.54052 45.4218 7.54052 44.956 7.51779C44.8838 7.47955 44.8211 7.42844 44.7686 7.36444C44.7458 5.04718 44.7458 2.72992 44.7686 0.412654C44.8268 0.307354 44.912 0.2392 45.0241 0.208189ZM46.7618 2.04837C47.08 2.04271 47.3979 2.04837 47.7158 2.06541C47.9254 2.08163 48.0559 2.18955 48.1077 2.38914C48.1833 2.68112 48.1605 2.96508 48.0395 3.24108C47.9472 3.32409 47.8395 3.3752 47.7158 3.39442C47.3979 3.41715 47.0797 3.41715 46.7618 3.39442C46.6913 3.36212 46.6402 3.311 46.6085 3.24108C46.5857 2.9003 46.5857 2.55953 46.6085 2.21875C46.649 2.1507 46.7001 2.0939 46.7618 2.04837Z" fill="#EDEDED"/>
</g>
<g opacity="0.3">
<path opacity="0.99" fill-rule="evenodd" clip-rule="evenodd" d="M51.3276 0.208189C52.8949 0.202498 54.4622 0.208189 56.0295 0.225228C56.1185 0.272187 56.1696 0.346032 56.1828 0.446731C56.2145 0.93707 56.2033 1.4255 56.1488 1.91206C56.1205 1.94044 56.0919 1.96887 56.0636 1.99725C55.1116 2.04182 54.1576 2.06455 53.2015 2.06541C53.1276 2.09379 53.0765 2.14491 53.0482 2.21875C53.0131 2.44063 53.0301 2.65644 53.0993 2.86622C53.1392 2.90316 53.1845 2.93155 53.2356 2.95142C53.886 2.95227 54.5334 2.97497 55.1777 3.01957C55.2186 3.05034 55.2469 3.09008 55.2629 3.13884C55.2857 3.62727 55.2857 4.11574 55.2629 4.60417C55.2363 4.66503 55.1965 4.71615 55.1436 4.75752C54.4833 4.75922 53.8244 4.78195 53.1675 4.82567C53.1146 4.86704 53.0748 4.91816 53.0482 4.97902C53.0172 5.1873 53.0284 5.39177 53.0823 5.59241C53.1272 5.66013 53.1896 5.69989 53.2697 5.71169C54.2152 5.71226 55.158 5.73496 56.0977 5.77984C56.1392 5.836 56.1675 5.89846 56.1828 5.96727C56.2057 6.41027 56.2057 6.85328 56.1828 7.29628C56.1675 7.36509 56.1392 7.42755 56.0977 7.48371C55.2885 7.52314 54.4765 7.54018 53.6615 7.53483C52.872 7.52913 52.0829 7.52348 51.2935 7.51779C51.2621 7.50504 51.2339 7.488 51.2083 7.46667C51.1517 5.0954 51.1405 2.72136 51.1742 0.344499C51.2219 0.290997 51.273 0.245538 51.3276 0.208189Z" fill="#EDEDED"/>
</g>
<g opacity="0.3">
<path opacity="0.985" fill-rule="evenodd" clip-rule="evenodd" d="M57.3243 0.208189C58.233 0.202498 59.1417 0.208189 60.0501 0.225228C61.2657 0.387096 62.2027 0.98345 62.861 2.01429C63.507 3.22404 63.5183 4.43944 62.8951 5.66057C62.2399 6.74679 61.2801 7.36587 60.016 7.51779C59.1189 7.54052 58.2214 7.54052 57.3243 7.51779C57.2633 7.49104 57.2122 7.4513 57.1709 7.39852C57.1144 5.0727 57.1031 2.74406 57.1369 0.412654C57.1832 0.326676 57.2456 0.258522 57.3243 0.208189ZM59.1982 2.11652C59.9604 2.01651 60.5908 2.25505 61.0893 2.83215C61.5032 3.42908 61.5485 4.05382 61.2255 4.7064C60.7322 5.43842 60.0453 5.73946 59.1642 5.60945C59.1114 5.56808 59.0715 5.51697 59.0449 5.45611C59.0221 4.39971 59.0221 3.34331 59.0449 2.28691C59.0797 2.21238 59.1308 2.15558 59.1982 2.11652Z" fill="#EDEDED"/>
</g>
<g opacity="0.3">
<path opacity="0.984" fill-rule="evenodd" clip-rule="evenodd" d="M64.1387 0.208189C64.6273 0.202498 65.1156 0.208189 65.6038 0.225228C65.6924 0.25709 65.7435 0.319554 65.7571 0.412654C65.78 2.71857 65.78 5.02445 65.7571 7.33036C65.7435 7.42346 65.6924 7.48592 65.6038 7.51779C65.104 7.54052 64.6045 7.54052 64.1046 7.51779C64.0518 7.47642 64.012 7.4253 63.9854 7.36444C63.9626 5.03583 63.9626 2.70719 63.9854 0.378576C64.0201 0.304049 64.0712 0.247242 64.1387 0.208189Z" fill="#EDEDED"/>
</g>
<g opacity="0.3">
<path opacity="0.985" fill-rule="evenodd" clip-rule="evenodd" d="M67.0007 0.2082C68.0126 0.193103 69.0235 0.210142 70.0331 0.259316C70.8154 0.473901 71.3323 0.968023 71.5834 1.74168C71.717 2.30904 71.6546 2.85427 71.396 3.3774C72.1187 4.11129 72.3289 4.97457 72.0263 5.96728C71.686 6.81897 71.0669 7.33582 70.1694 7.5178C69.1019 7.54053 68.0341 7.54053 66.9666 7.5178C66.9056 7.49105 66.8545 7.45131 66.8133 7.39853C66.7567 5.08406 66.7455 2.7668 66.7792 0.446741C66.814 0.326959 66.8876 0.247457 67.0007 0.2082ZM68.6702 1.87799C69.0249 1.86347 69.3772 1.88051 69.7265 1.92911C69.9626 2.08511 70.0249 2.29527 69.9139 2.55954C69.8478 2.64834 69.7626 2.71081 69.6583 2.74696C69.3063 2.764 68.9544 2.76966 68.6021 2.764C68.582 2.45956 68.6048 2.16421 68.6702 1.87799ZM68.6702 4.53603C69.0702 4.52117 69.4679 4.53821 69.8627 4.58714C70.2191 4.81481 70.3043 5.11585 70.1183 5.49019C70.03 5.60135 69.922 5.68655 69.7946 5.74577C69.4086 5.7685 69.0222 5.7685 68.6361 5.74577C68.6137 5.54966 68.6024 5.35089 68.6021 5.14942C68.6034 4.93674 68.6263 4.73228 68.6702 4.53603Z" fill="#EDEDED"/>
</g>
<g opacity="0.3">
<path opacity="0.987" fill-rule="evenodd" clip-rule="evenodd" d="M72.8611 0.208189C73.361 0.202498 73.8608 0.208189 74.3603 0.225228C74.4492 0.272187 74.5003 0.346032 74.5136 0.446731C74.514 2.17616 74.5368 3.90272 74.5818 5.62649C74.6216 5.67396 74.6727 5.70238 74.7351 5.71169C75.5981 5.72303 76.4615 5.73442 77.3246 5.74576C77.3644 5.78553 77.404 5.82527 77.4438 5.86503C77.4667 6.37619 77.4667 6.88736 77.4438 7.39852C77.404 7.43828 77.3644 7.47802 77.3246 7.51779C75.8254 7.54052 74.3262 7.54052 72.827 7.51779C72.7872 7.47802 72.7477 7.43828 72.7078 7.39852C72.685 5.05852 72.685 2.71857 72.7078 0.378576C72.7425 0.304049 72.7937 0.247242 72.8611 0.208189Z" fill="#EDEDED"/>
</g>
<g opacity="0.3">
<path opacity="0.987" fill-rule="evenodd" clip-rule="evenodd" d="M78.4831 0.208189C80.0504 0.202498 81.6177 0.208189 83.185 0.225228C83.2338 0.241074 83.2736 0.269495 83.3043 0.310421C83.3431 0.579667 83.3602 0.852286 83.3554 1.12828C83.3496 1.37817 83.3442 1.62809 83.3384 1.87798C83.2927 1.96638 83.2188 2.01749 83.1169 2.03133C82.1969 2.04268 81.277 2.05406 80.357 2.06541C80.2947 2.08245 80.2548 2.12221 80.2378 2.18468C80.215 2.38914 80.215 2.59361 80.2378 2.79807C80.2695 2.88674 80.3322 2.93786 80.4252 2.95142C81.0497 2.96277 81.6746 2.97415 82.2992 2.9855C82.3973 3.03964 82.4484 3.12484 82.4525 3.24108C82.4753 3.66135 82.4753 4.08166 82.4525 4.50194C82.4484 4.61818 82.3973 4.70337 82.2992 4.75752C81.6497 4.75881 81.0024 4.78151 80.357 4.82567C80.2947 4.84271 80.2548 4.88248 80.2378 4.94495C80.215 5.14941 80.215 5.35387 80.2378 5.55834C80.2695 5.64701 80.3322 5.69812 80.4252 5.71169C81.3564 5.72303 82.2879 5.73442 83.2191 5.74576C83.2719 5.78713 83.3118 5.83825 83.3384 5.89911C83.3612 6.38754 83.3612 6.87601 83.3384 7.36444C83.3118 7.4253 83.2719 7.47642 83.2191 7.51779C81.6405 7.54052 80.0616 7.54052 78.4831 7.51779C78.4343 7.50194 78.3945 7.47352 78.3638 7.43259C78.3073 5.0954 78.296 2.75544 78.3297 0.412654C78.3502 0.318804 78.4013 0.25065 78.4831 0.208189Z" fill="#EDEDED"/>
</g>
<g opacity="0.3">
<path fill-rule="evenodd" clip-rule="evenodd" d="M7.51054 5.62658C8.11706 5.56272 8.64518 5.73311 9.0949 6.13774C9.50053 6.79182 9.41535 7.37683 8.83935 7.89273C8.36923 8.23892 7.8468 8.36388 7.27203 8.26758C6.52231 7.98406 6.17593 7.44451 6.23283 6.6489C6.46322 6.06035 6.88913 5.71958 7.51054 5.62658Z" fill="#FEFEFD"/>
</g>
<g opacity="0.3">
<path fill-rule="evenodd" clip-rule="evenodd" d="M14.5975 6.30811C15.5571 6.31366 16.2897 6.72259 16.7951 7.53489C17.3229 8.46871 17.4933 9.46831 17.3062 10.5337C17.1442 11.4971 16.8716 12.4285 16.4885 13.328C16.2416 13.8502 16.0088 14.3784 15.79 14.9126C15.9675 15.0555 16.172 15.1463 16.4033 15.1853C17.1143 15.2663 17.7389 15.0731 18.2773 14.6059C18.697 14.2319 19.0661 13.8173 19.3846 13.3621C19.885 12.6112 20.3507 11.8388 20.7816 11.0449C20.8735 13.0528 20.2204 14.7737 18.8224 16.2076C18.0008 16.9852 17.024 17.3373 15.8922 17.264C15.5135 17.2053 15.1501 17.0974 14.8019 16.9402C14.435 17.7022 13.9466 18.378 13.3368 18.9679C12.5114 19.6671 11.5574 19.9852 10.4747 19.922C9.36471 19.7089 8.52994 19.1125 7.97044 18.133C7.67312 17.5362 7.45731 16.9114 7.32307 16.2587C7.13155 15.4227 6.96119 14.5821 6.81198 13.737C6.73948 13.2104 6.68837 12.6822 6.65866 12.1524C6.63113 11.5884 6.75038 11.0602 7.01642 10.5678C7.19386 10.3342 7.42668 10.1922 7.7149 10.1418C8.74081 9.94719 9.33708 10.3618 9.50369 11.3856C9.54747 13.0196 9.69514 14.6439 9.94663 16.2587C10.0333 16.8833 10.2775 17.4342 10.6792 17.9115C11.1065 18.2584 11.5608 18.2925 12.0421 18.0137C12.3304 17.8049 12.5859 17.5607 12.8087 17.281C13.1283 16.818 13.4179 16.3353 13.6775 15.8327C13.1758 15.2207 12.8521 14.5222 12.7065 13.737C12.4993 12.748 12.4312 11.7484 12.502 10.7382C12.5597 10.0162 12.6619 9.30061 12.8087 8.59129C12.9337 7.89253 13.2347 7.28483 13.7116 6.76815C13.9765 6.55053 14.2718 6.39718 14.5975 6.30811Z" fill="#FEFEFE"/>
</g>
<g opacity="0.3">
<path fill-rule="evenodd" clip-rule="evenodd" d="M14.9382 8.72749C15.0947 8.70759 15.1912 8.77575 15.2278 8.93196C15.3319 10.0781 15.1842 11.1913 14.7849 12.2715C14.7147 12.446 14.6352 12.6164 14.5464 12.7827C14.3932 11.6776 14.4273 10.5757 14.6486 9.4772C14.6954 9.20584 14.792 8.95595 14.9382 8.72749Z" fill="#E1E1E1"/>
</g>
<g opacity="0.3">
<path opacity="0.957" fill-rule="evenodd" clip-rule="evenodd" d="M107.172 9.27271C107.547 9.27271 107.921 9.27271 108.296 9.27271C108.296 9.36359 108.296 9.45444 108.296 9.54532C108.16 9.54532 108.024 9.54532 107.887 9.54532C107.887 9.8861 107.887 10.2269 107.887 10.5676C107.785 10.5676 107.683 10.5676 107.581 10.5676C107.581 10.2269 107.581 9.8861 107.581 9.54532C107.444 9.54532 107.308 9.54532 107.172 9.54532C107.172 9.45444 107.172 9.36359 107.172 9.27271Z" fill="#EDEDED"/>
</g>
<g opacity="0.3">
<path opacity="0.911" fill-rule="evenodd" clip-rule="evenodd" d="M108.671 9.27285C108.785 9.26723 108.899 9.27292 109.012 9.28989C109.118 9.44031 109.22 9.59366 109.319 9.74994C109.433 9.60664 109.535 9.45329 109.625 9.28989C109.75 9.27289 109.875 9.26723 110 9.27285C110 9.70451 110 10.1361 110 10.5678C109.886 10.5678 109.773 10.5678 109.659 10.5678C109.665 10.3176 109.659 10.0677 109.642 9.81809C109.542 9.98429 109.434 10.1433 109.319 10.2952C109.202 10.142 109.094 9.98303 108.995 9.81809C108.978 10.0677 108.972 10.3176 108.978 10.5678C108.876 10.5678 108.773 10.5678 108.671 10.5678C108.671 10.1361 108.671 9.70451 108.671 9.27285Z" fill="#EDEDED"/>
</g>
<g opacity="0.3">
<path opacity="0.991" fill-rule="evenodd" clip-rule="evenodd" d="M101.414 9.7499C102.796 9.68887 104.09 9.98988 105.298 10.653C106.566 11.571 107.23 12.8149 107.291 14.3844C107.237 14.5411 107.129 14.6377 106.967 14.6741C105.888 14.6968 104.81 14.6968 103.731 14.6741C103.637 14.6376 103.552 14.5865 103.475 14.5207C103.192 13.9497 102.732 13.6146 102.095 13.5155C101.63 13.4328 101.199 13.5123 100.8 13.754C100.394 14.083 100.354 14.4522 100.681 14.8615C101.06 15.162 101.475 15.4062 101.925 15.5942C103.392 16.0781 104.755 16.7597 106.013 17.6388C107.281 18.7729 107.752 20.1757 107.427 21.8474C106.67 23.9665 105.165 25.1535 102.913 25.4085C101.506 25.6131 100.143 25.4541 98.8242 24.9314C97.5117 24.3228 96.6657 23.3175 96.2858 21.9155C96.1635 21.4684 96.1182 21.014 96.1495 20.5524C96.2088 20.3681 96.328 20.2374 96.5073 20.1605C97.5182 20.1378 98.5288 20.1378 99.5397 20.1605C99.6487 20.1894 99.7451 20.2406 99.8293 20.3139C99.9837 20.6972 100.194 21.0437 100.46 21.3533C100.973 21.7083 101.541 21.8332 102.163 21.7281C102.688 21.6565 103.091 21.4009 103.373 20.9614C103.455 20.595 103.347 20.294 103.049 20.0583C102.672 19.7788 102.263 19.5516 101.823 19.3768C100.761 19.0001 99.7274 18.5571 98.722 18.0477C96.9287 16.908 96.2418 15.2893 96.6606 13.1917C97.1454 11.4346 98.2756 10.3498 100.051 9.93733C100.506 9.84334 100.96 9.78088 101.414 9.7499Z" fill="#EDEDED"/>
</g>
<g opacity="0.3">
<path opacity="0.993" fill-rule="evenodd" clip-rule="evenodd" d="M29.5213 10.0905C32.622 10.0848 35.7225 10.0905 38.8231 10.1076C39.0783 10.1241 39.2428 10.2547 39.3171 10.4994C39.3399 11.4763 39.3399 12.4532 39.3171 13.4301C39.2479 13.6581 39.0946 13.7887 38.8571 13.822C37.0172 13.8333 35.1773 13.8447 33.3374 13.8561C32.9412 14.0406 32.7823 14.3529 32.8604 14.7932C32.7907 15.1701 32.9044 15.4712 33.2011 15.6962C33.2792 15.7243 33.3586 15.747 33.4397 15.7644C34.655 15.7757 35.87 15.7871 37.0854 15.7985C37.3375 15.8992 37.468 16.0866 37.4772 16.3608C37.5 17.2013 37.5 18.0419 37.4772 18.8825C37.4445 19.2104 37.2683 19.4092 36.9491 19.4788C35.6976 19.4795 34.4485 19.5022 33.2011 19.547C32.9971 19.6309 32.8894 19.7842 32.8775 20.007C32.8547 20.3137 32.8547 20.6204 32.8775 20.9271C32.9013 21.2124 33.0546 21.3771 33.3374 21.4212C35.1773 21.4326 37.0172 21.444 38.8571 21.4553C39.1014 21.5178 39.2548 21.6711 39.3171 21.9154C39.3399 22.8468 39.3399 23.7783 39.3171 24.7097C39.2432 24.9199 39.1014 25.0618 38.8912 25.1357C35.7337 25.1584 32.5765 25.1584 29.4191 25.1357C29.2053 25.0695 29.0747 24.9275 29.0273 24.7097C29.0046 19.9957 29.0046 15.2816 29.0273 10.5676C29.0802 10.2891 29.2449 10.13 29.5213 10.0905Z" fill="#EDEDED"/>
</g>
<g opacity="0.3">
<path opacity="0.993" fill-rule="evenodd" clip-rule="evenodd" d="M42.5028 10.0905C44.0929 10.0848 45.6827 10.0905 47.2729 10.1076C49.9676 10.4186 51.9949 11.742 53.3548 14.0776C54.2785 15.8984 54.4716 17.7953 53.934 19.7685C53.2529 21.7952 51.9752 23.323 50.1009 24.3519C49.0729 24.8702 47.9826 25.1428 46.8299 25.1698C45.4442 25.1925 44.0588 25.1925 42.6731 25.1698C42.0036 25.0876 41.5889 24.7184 41.4295 24.0622C41.4066 19.7798 41.4066 15.4975 41.4295 11.2151C41.5739 10.6334 41.9317 10.2586 42.5028 10.0905ZM45.6715 14.0094C47.2926 13.7752 48.616 14.2864 49.6409 15.5429C50.3056 16.5162 50.476 17.5726 50.152 18.7121C49.5755 20.2087 48.4909 21.0549 46.8981 21.2509C46.5004 21.2736 46.1032 21.2736 45.7055 21.2509C45.5328 21.2029 45.4135 21.0951 45.3478 20.9271C45.325 18.7348 45.325 16.5425 45.3478 14.3502C45.4176 14.1953 45.5253 14.0817 45.6715 14.0094Z" fill="#EDEDED"/>
</g>
<g opacity="0.3">
<path opacity="0.991" fill-rule="evenodd" clip-rule="evenodd" d="M56.4043 10.0905C57.3018 10.0848 58.1989 10.0905 59.096 10.1076C59.3744 10.1587 59.539 10.3234 59.5901 10.6017C59.6129 15.2816 59.6129 19.9616 59.5901 24.6416C59.57 24.9114 59.4283 25.0761 59.1642 25.1357C58.2214 25.1584 57.279 25.1584 56.3362 25.1357C56.126 25.0846 55.9955 24.9539 55.9444 24.7438C55.9215 20.007 55.9215 15.2703 55.9444 10.5335C56.0054 10.2849 56.1587 10.1372 56.4043 10.0905Z" fill="#EDEDED"/>
</g>
<g opacity="0.3">
<path opacity="0.992" fill-rule="evenodd" clip-rule="evenodd" d="M62.2305 10.0905C64.0817 10.0848 65.9332 10.0905 67.7843 10.1076C69.5155 10.3062 70.7363 11.1979 71.4471 12.7826C71.7513 13.6495 71.8195 14.5355 71.6515 15.4407C71.5486 15.8575 71.3953 16.2551 71.1915 16.6334C72.5636 17.9399 73.0577 19.5302 72.6737 21.4042C72.2876 22.8694 71.43 23.9655 70.1012 24.6927C69.5844 24.9483 69.0392 25.1073 68.4658 25.1698C66.3645 25.1925 64.2636 25.1925 62.1624 25.1698C61.897 25.0747 61.7437 24.8873 61.7024 24.6075C61.6796 19.973 61.6796 15.3384 61.7024 10.7039C61.7638 10.3986 61.9396 10.1941 62.2305 10.0905ZM65.6037 13.5323C66.3097 13.5169 67.0139 13.5339 67.7162 13.5834C68.229 13.8315 68.4164 14.2347 68.2784 14.7932C68.1257 15.0822 67.893 15.2696 67.5799 15.3555C66.9213 15.3782 66.2623 15.3782 65.6037 15.3555C65.5298 15.3271 65.4786 15.276 65.4504 15.2021C65.4275 14.7023 65.4275 14.2025 65.4504 13.7027C65.4851 13.6282 65.5362 13.5714 65.6037 13.5323ZM65.7059 18.9847C66.3989 18.979 67.0916 18.9847 67.7843 19.0017C68.4998 19.2178 68.846 19.7005 68.8235 20.45C68.7107 21.0397 68.3646 21.4089 67.7843 21.5576C67.08 21.5803 66.3761 21.5803 65.6718 21.5576C65.5669 21.5308 65.493 21.4683 65.4504 21.3701C65.4275 20.6545 65.4275 19.9389 65.4504 19.2233C65.5059 19.1082 65.5911 19.0287 65.7059 18.9847Z" fill="#EDEDED"/>
</g>
<g opacity="0.3">
<path opacity="0.99" fill-rule="evenodd" clip-rule="evenodd" d="M74.9738 10.0905C75.8713 10.0848 76.7684 10.0905 77.6655 10.1076C77.9064 10.1228 78.071 10.2421 78.1596 10.4654C78.2045 13.9855 78.2274 17.5068 78.2277 21.0294C78.2938 21.2432 78.4359 21.3739 78.6536 21.4212C80.3572 21.4326 82.0608 21.444 83.7645 21.4553C84.035 21.5329 84.1999 21.709 84.2585 21.9835C84.2813 22.8582 84.2813 23.7328 84.2585 24.6075C84.2019 24.8683 84.0486 25.0444 83.7985 25.1357C80.823 25.1584 77.8471 25.1584 74.8716 25.1357C74.659 25.0707 74.5285 24.9287 74.4798 24.7097C74.4569 19.9957 74.4569 15.2816 74.4798 10.5676C74.5333 10.289 74.6978 10.1299 74.9738 10.0905Z" fill="#EDEDED"/>
</g>
<g opacity="0.3">
<path opacity="0.994" fill-rule="evenodd" clip-rule="evenodd" d="M85.7406 10.0905C88.8524 10.0848 91.9645 10.0905 95.0763 10.1076C95.3547 10.1587 95.5193 10.3234 95.5704 10.6017C95.5932 11.5104 95.5932 12.4191 95.5704 13.3279C95.5414 13.6293 95.3769 13.794 95.0763 13.822C93.2364 13.8333 91.3965 13.8447 89.5566 13.8561C89.1686 14.0477 89.0207 14.3601 89.1137 14.7932C89.0169 15.2145 89.1532 15.5269 89.5226 15.7303C90.7819 15.7747 92.0426 15.7974 93.3046 15.7985C93.5186 15.8647 93.6491 16.0067 93.6964 16.2244C93.7193 17.1559 93.7193 18.0873 93.6964 19.0188C93.6082 19.2549 93.4433 19.4082 93.2024 19.4788C91.94 19.4797 90.6793 19.5024 89.4204 19.547C89.2732 19.6259 89.1767 19.7451 89.1307 19.9048C89.1079 20.2796 89.1079 20.6545 89.1307 21.0294C89.1965 21.2429 89.3386 21.3736 89.5566 21.4212C91.3965 21.4326 93.2364 21.444 95.0763 21.4553C95.3319 21.5292 95.4965 21.6939 95.5704 21.9494C95.5932 22.8468 95.5932 23.7442 95.5704 24.6416C95.4988 24.8834 95.3455 25.0482 95.1104 25.1357C91.9645 25.1584 88.8183 25.1584 85.6724 25.1357C85.5126 25.1043 85.3934 25.0191 85.3147 24.8801C85.2581 20.0884 85.2465 15.2949 85.2806 10.4994C85.3555 10.2711 85.5089 10.1347 85.7406 10.0905Z" fill="#EDEDED"/>
</g>
</svg>
