<svg width="62" height="66" viewBox="0 0 62 66" fill="none" xmlns="http://www.w3.org/2000/svg">
<g opacity="0.4">
<g clip-path="url(#clip0_1212_108)">
<path d="M5.95544 56.5819V57.9795H1.96397V60.2321H5.27019V61.6297H1.96397V65.3447H0.36377V56.5819H5.95544Z" fill="#B1B1B1"/>
<path d="M9.75491 58.5197C10.7254 58.5197 12.6146 58.8228 12.6146 61.8538C12.6146 64.3836 11.2764 65.5429 9.54456 65.5429C7.78692 65.5429 6.69775 64.4095 6.69775 62.0248C6.69775 59.2839 8.40377 58.5197 9.75491 58.5197ZM11.0144 62.0637C11.0144 60.5883 10.6737 59.679 9.67619 59.679C8.71865 59.679 8.28505 60.5753 8.28505 61.8396C8.28505 63.0649 8.48249 64.3836 9.65038 64.3836C10.6105 64.3836 11.0144 63.4341 11.0144 62.0637Z" fill="#B1B1B1"/>
<path d="M19.2566 58.7166V64.2385L19.3611 65.3447H18.028L17.9364 64.5675H17.8835C17.6718 64.8746 17.3868 65.1236 17.0545 65.2917C16.7222 65.4599 16.3533 65.5417 15.9813 65.5299C14.5386 65.5299 13.8159 64.7657 13.8159 63.21V58.7166H15.3774V62.9211C15.3774 63.7242 15.5219 64.3175 16.4008 64.3175C17.1092 64.3175 17.7003 63.6854 17.7003 63.052V58.7166H19.2566Z" fill="#B1B1B1"/>
<path d="M20.876 65.3447V59.8629L20.7715 58.7165H22.0826L22.2117 59.5468C22.4363 59.2199 22.7389 58.9546 23.0919 58.7751C23.4449 58.5957 23.8371 58.5079 24.2326 58.5197C25.5437 58.5197 26.318 59.2567 26.318 60.8124V65.346H24.7565V61.1543C24.7565 60.3512 24.6133 59.7295 23.7732 59.7295C23.5983 59.7286 23.4249 59.7624 23.263 59.8288C23.1011 59.8951 22.9538 59.9929 22.8295 60.1164C22.7053 60.2399 22.6065 60.3868 22.5388 60.5487C22.4711 60.7106 22.4358 60.8842 22.4349 61.0598V65.3421L20.876 65.3447Z" fill="#B1B1B1"/>
<path d="M31.7536 58.6777V56.1868H33.3022V64.0533L33.4197 65.3486H32.0814L31.9769 64.6374L31.924 64.6245C31.7267 64.9148 31.4602 65.151 31.1487 65.3114C30.8371 65.4718 30.4906 65.5514 30.1405 65.5429C28.0938 65.5429 27.5596 63.9354 27.5596 62.2877C27.5596 60.0352 28.7133 58.5197 30.7342 58.5197C31.0801 58.5183 31.4242 58.5717 31.7536 58.6777ZM31.7536 59.8772C31.4442 59.7385 31.1092 59.6666 30.7703 59.666C29.5237 59.666 29.103 60.8512 29.103 62.1427C29.103 63.3421 29.3921 64.3836 30.4554 64.3836C31.2555 64.3836 31.7536 63.8033 31.7536 63.289V59.8772Z" fill="#B1B1B1"/>
<path d="M40.3354 64.0805L40.4541 65.3447H39.1017L39.0101 64.6465L38.9584 64.6336C38.5506 65.2268 37.8822 65.517 37.1608 65.517C35.3102 65.517 34.5889 64.1983 34.5889 62.3149C34.5889 59.995 35.7503 58.5197 37.9996 58.5197C38.7979 58.5454 39.5868 58.7011 40.3354 58.9808V64.0805ZM38.7868 59.837C38.4731 59.7169 38.1392 59.6588 37.8035 59.666C36.5569 59.666 36.1374 60.8318 36.1374 62.2567C36.1374 63.3499 36.3955 64.3913 37.5015 64.3913C38.3145 64.3913 38.792 63.811 38.792 63.245L38.7868 59.837Z" fill="#B1B1B1"/>
<path d="M43.5243 56.1868V58.7165H45.2961V59.9419H43.5243V63.289C43.5243 64.0934 43.8392 64.3253 44.3773 64.3253C44.6945 64.3158 45.0032 64.22 45.2703 64.0481L45.6575 65.0636C45.2703 65.3395 44.607 65.5247 43.9901 65.5247C41.9499 65.5299 41.9692 64.2644 41.9692 63.3408V56.1868H43.5243Z" fill="#B1B1B1"/>
<path d="M47.3673 55.9368C47.485 55.9322 47.6025 55.9517 47.7126 55.9941C47.8226 56.0365 47.9229 56.1009 48.0074 56.1834C48.0919 56.2659 48.1588 56.3648 48.204 56.474C48.2493 56.5833 48.2719 56.7006 48.2706 56.8189C48.2718 56.9367 48.249 57.0534 48.2036 57.162C48.1581 57.2705 48.091 57.3686 48.0064 57.4501C47.9218 57.5317 47.8214 57.595 47.7115 57.6361C47.6016 57.6773 47.4844 57.6954 47.3673 57.6894C46.8162 57.6894 46.4639 57.3202 46.4639 56.8189C46.4626 56.7006 46.4853 56.5833 46.5305 56.474C46.5758 56.3648 46.6427 56.2659 46.7271 56.1834C46.8116 56.1009 46.9119 56.0365 47.022 55.9941C47.132 55.9517 47.2495 55.9322 47.3673 55.9368V55.9368ZM46.593 65.3447V58.7166H48.1545V65.3447H46.593Z" fill="#B1B1B1"/>
<path d="M52.4673 58.5197C53.4378 58.5197 55.327 58.8228 55.327 61.8538C55.327 64.3836 53.9888 65.5429 52.257 65.5429C50.4993 65.5429 49.4102 64.4095 49.4102 62.0248C49.4102 59.2839 51.1149 58.5197 52.4673 58.5197ZM53.7268 62.0637C53.7268 60.5883 53.3849 59.679 52.3886 59.679C51.4298 59.679 50.9975 60.5753 50.9975 61.8396C50.9975 63.0649 51.1936 64.3836 52.3615 64.3836C53.3255 64.3836 53.7268 63.4341 53.7268 62.0637Z" fill="#B1B1B1"/>
<path d="M56.5518 65.3447V59.8629L56.4473 58.7165H57.7597L57.8887 59.5468C58.1133 59.2199 58.416 58.9546 58.769 58.7751C59.122 58.5957 59.5141 58.5079 59.9096 58.5197C61.2221 58.5197 61.9963 59.2567 61.9963 60.8124V65.346H60.4349V61.1543C60.4349 60.3512 60.2903 59.7295 59.4502 59.7295C59.2753 59.7286 59.102 59.7624 58.9401 59.8288C58.7782 59.8951 58.6309 59.9929 58.5066 60.1164C58.3823 60.2399 58.2835 60.3868 58.2158 60.5487C58.1481 60.7106 58.1128 60.8842 58.112 61.0598V65.3421L56.5518 65.3447Z" fill="#B1B1B1"/>
<path d="M4.24945 47.7763L7.44598 53.9109H6.09355L3.41321 48.7634L1.47749 51.3294V53.9109H0.29541V43.8075H1.47749V49.6999L5.80835 43.8075H7.14142L4.24945 47.7763Z" fill="#C5C5C5"/>
<path d="M16.4576 43.8127V53.9161H15.2561V49.1727H10.0052V53.9109H8.80371V43.8075H9.99999V48.1209H15.2561V43.8075L16.4576 43.8127Z" fill="#C5C5C5"/>
<path d="M18.0332 53.9109L21.5769 43.8075H22.9964L26.6098 53.9109H25.3528L24.2469 50.8022H20.289L19.214 53.9109H18.0332ZM20.5767 49.8268H23.9694L22.2582 44.8917L20.5767 49.8268Z" fill="#C5C5C5"/>
<path d="M33.5292 43.8127V44.8489H30.4708V53.9161H29.2745V44.8489H26.2754V43.8127H33.5292Z" fill="#C5C5C5"/>
<path d="M37.8152 54.0936C35.2252 54.0936 33.665 52.3462 33.665 48.8851C33.665 44.9823 35.9066 43.6313 37.9675 43.6313C40.1484 43.6313 42.0416 45.0121 42.0416 48.8851C42.0416 52.3617 40.4052 54.0936 37.8152 54.0936ZM37.9365 53.0754C40.1304 53.0754 40.8143 50.9952 40.8143 48.9304C40.8143 47.139 40.2233 44.6637 37.9211 44.6637C35.7105 44.6637 34.8923 46.7737 34.8923 48.8398C34.8923 50.8436 35.4382 53.0754 37.9365 53.0754Z" fill="#C5C5C5"/>
<path d="M47.8511 54.0936C45.2611 54.0936 43.7021 52.3462 43.7021 48.8851C43.7021 44.9823 45.9437 43.6313 48.0033 43.6313C50.1842 43.6313 52.0774 45.0121 52.0774 48.8851C52.0774 52.3617 50.4411 54.0936 47.8511 54.0936ZM47.9724 53.0754C50.1662 53.0754 50.8501 50.9952 50.8501 48.9304C50.8501 47.139 50.2591 44.6637 47.9569 44.6637C45.7463 44.6637 44.9281 46.7737 44.9281 48.8398C44.9281 50.8436 45.474 53.0754 47.9724 53.0754V53.0754Z" fill="#C5C5C5"/>
<path d="M61.7948 43.8127V53.9161H60.4927L55.3579 45.4655H55.3437V53.9109H54.1616V43.8075H55.5554L60.5986 52.1286H60.614V43.8127H61.7948Z" fill="#C5C5C5"/>
<path d="M1.04912 38.0822C1.9344 38.6431 3.7514 39.4371 5.35934 39.4371C6.59434 39.4371 7.85256 39.0407 7.85256 37.2882C7.85256 35.8167 6.52465 35.3724 4.89348 34.9294C2.58739 34.2986 0.442604 33.388 0.442604 30.3958C0.442604 27.5461 2.63643 25.8182 5.68584 25.8182C7.85256 25.8182 9.81538 26.7754 11.022 28.0137L9.50825 29.9062C8.29649 28.901 6.96729 28.2469 5.68584 28.2469C4.63797 28.2469 3.40297 28.6912 3.40297 30.1393C3.40297 31.5875 4.75411 32.0318 6.50013 32.5681C8.6204 33.2455 10.8581 34.1574 10.8581 37.1703C10.8581 40.2531 8.66427 41.9124 5.30901 41.9124C3.02615 41.9124 0.792322 41.0057 -0.00390625 40.4177L1.04912 38.0822Z" fill="white"/>
<path d="M22.8427 39.3853L23.053 41.6275H20.6527L20.4888 40.3892L20.3959 40.3658C19.6732 41.4176 18.4847 41.9319 17.2033 41.9319C13.9177 41.9319 12.6362 39.6003 12.6362 36.2558C12.6362 32.1445 14.6868 29.528 18.6951 29.528C20.1125 29.5739 21.5131 29.8499 22.8427 30.3453V39.3853ZM20.0926 31.8647C19.7442 31.7015 19.068 31.5616 18.3453 31.5616C16.1322 31.5616 15.3863 33.6406 15.3863 36.1638C15.3863 38.1068 15.8521 39.9475 17.8098 39.9475C19.2538 39.9475 20.0926 38.919 20.0926 37.9151V31.8647Z" fill="white"/>
<path d="M28.4656 25.4166V37.7972C28.4656 39.2454 28.7689 39.7829 29.7239 39.7829C30.1897 39.7829 30.702 39.6184 31.1924 39.4086L31.7977 41.2777C31.1692 41.6741 30.0271 41.9785 29.0244 41.9785C25.8795 41.9785 25.6924 40.1327 25.6924 38.3814V25.4166H28.4656Z" fill="white"/>
<path d="M33.234 41.6275V31.9126L33.0249 29.8816H35.3323L35.5646 31.3531C35.9218 30.7814 36.4212 30.3129 37.0136 29.9938C37.606 29.6747 38.271 29.5159 38.9431 29.5332C40.4116 29.5332 41.5305 30.094 42.1822 31.4023C42.8816 30.1808 44.1166 29.5332 45.5826 29.5332C47.9352 29.5332 49.2876 30.9114 49.2876 33.6678V41.6327H46.5169V34.2235C46.5169 32.8453 46.2833 31.6769 44.7464 31.6769C43.4636 31.6769 42.648 32.752 42.648 33.9657V41.6275H39.8761V34.2235C39.8761 32.9619 39.7122 31.6769 38.1042 31.6769C36.7996 31.6769 36.0072 32.7986 36.0072 34.059V41.6275H33.234Z" fill="white"/>
<path d="M61.7133 39.3853L61.9223 41.6275H59.5233L59.3594 40.3892L59.2665 40.3658C58.5438 41.4176 57.3553 41.9319 56.0739 41.9319C52.7883 41.9319 51.5068 39.6003 51.5068 36.2558C51.5068 32.1445 53.5574 29.528 57.5657 29.528C58.9831 29.5739 60.3838 29.8499 61.7133 30.3453V39.3853ZM58.9671 31.8647C58.6174 31.7015 57.9425 31.5616 57.2198 31.5616C55.0053 31.5616 54.2607 33.6406 54.2607 36.1638C54.2607 38.1068 54.7266 39.9475 56.6843 39.9475C58.1283 39.9475 58.9671 38.919 58.9671 37.9151V31.8647Z" fill="white"/>
<path fill-rule="evenodd" clip-rule="evenodd" d="M18.9506 15.9634C19.1132 15.8637 19.2396 15.7186 19.3919 15.6059C19.4677 15.5419 19.5469 15.4823 19.6293 15.4272C20.3722 14.8819 21.2079 14.4772 22.0955 14.2329C22.5061 14.1179 22.928 14.0484 23.3537 14.0256C23.5094 14.0324 23.6653 14.0149 23.8157 13.9738C24.0657 13.9645 24.316 13.9805 24.5629 14.0218C24.6003 14.0218 24.6493 14.0295 24.6545 14.0788C24.6552 14.0989 24.6496 14.1187 24.6385 14.1354C24.6274 14.1522 24.6113 14.165 24.5925 14.172C24.4803 14.2342 24.3615 14.2808 24.2454 14.3352C24.1094 14.3865 23.9795 14.453 23.8583 14.5334C23.487 14.6766 23.1298 14.854 22.791 15.0632C22.0478 15.473 21.3403 15.9449 20.6759 16.4738C20.6048 16.5418 20.5275 16.603 20.4449 16.6564C20.3962 16.6786 20.3543 16.7135 20.3236 16.7575C19.8591 17.1655 19.4009 17.58 18.9635 18.0165C18.917 18.0519 18.8738 18.0913 18.8344 18.1344C18.7944 18.1631 18.7568 18.1952 18.7221 18.2302C18.6899 18.2613 18.6589 18.2924 18.6292 18.3248C18.6292 18.3313 18.6176 18.3377 18.6124 18.3455C18.646 18.3624 18.6512 18.3248 18.6718 18.3157L18.7208 18.2574C18.7621 18.2095 18.8241 18.1849 18.8615 18.1279C18.8955 18.0968 18.927 18.063 18.9557 18.0269C19.2138 17.8235 19.4655 17.6227 19.73 17.4323C20.4931 16.8798 21.3022 16.3945 22.1484 15.9816C22.5523 15.7873 22.9691 15.6202 23.3743 15.4285C23.4389 15.3974 23.5034 15.3728 23.5563 15.4531C23.5784 15.484 23.5878 15.5222 23.5825 15.5598C23.5772 15.5975 23.5576 15.6316 23.5279 15.6551C23.4087 15.7649 23.2791 15.8625 23.1408 15.9466C23.087 15.9597 23.0405 15.9937 23.0117 16.0412C22.8297 16.2277 22.6246 16.3948 22.4349 16.567C22.1768 16.7963 21.96 17.0644 21.7122 17.3015C21.6618 17.3431 21.6182 17.3925 21.5831 17.4479C21.5457 17.4932 21.5109 17.5385 21.4696 17.5774C21.4273 17.6067 21.3957 17.649 21.3792 17.6979C21.0002 18.1868 20.6474 18.6957 20.3223 19.2224C20.2729 19.2762 20.2336 19.3385 20.2062 19.4064C20.201 19.4191 20.1945 19.4313 20.1868 19.4426C20.1509 19.4906 20.1246 19.5452 20.1094 19.6033C19.9352 19.9802 19.7352 20.3429 19.5713 20.7237C19.459 20.9828 19.3661 21.2418 19.2564 21.5009C19.2172 21.5867 19.1861 21.6761 19.1635 21.7677C19.1222 21.8739 19.0822 21.9815 19.046 22.0903C19.0099 22.1991 18.988 22.3131 18.9454 22.4206C18.9949 22.3313 19.0298 22.2347 19.0486 22.1343C19.077 22.0164 19.1377 21.9102 19.1635 21.7923C19.1772 21.7301 19.1971 21.6693 19.2228 21.611C19.2273 21.5761 19.2401 21.5427 19.2603 21.5138C19.2953 21.4827 19.3182 21.44 19.3248 21.3934C19.6575 20.6165 20.0674 19.8753 20.5482 19.181C21.0372 18.4751 21.5991 17.823 22.2245 17.2354C22.628 16.8518 23.0627 16.5025 23.524 16.1914C23.5898 16.1474 23.6531 16.0956 23.7124 16.0476C23.7963 15.9803 23.8557 16.0049 23.8802 16.1111C23.8893 16.1522 23.8878 16.1949 23.8758 16.2353C23.8638 16.2756 23.8418 16.3122 23.8118 16.3417C23.5165 16.6862 23.2432 17.0492 22.9936 17.4284C22.8646 17.6357 22.7355 17.8494 22.6168 18.0657C22.585 18.0992 22.5611 18.1395 22.5471 18.1836C22.5419 18.1961 22.5359 18.2082 22.5291 18.2199C22.5007 18.26 22.4865 18.3067 22.4607 18.3494C22.511 18.3377 22.5071 18.2885 22.5291 18.2587C22.8544 17.8381 23.2427 17.4706 23.6802 17.1694C24.0945 16.888 24.5328 16.6439 24.99 16.4401C25.2017 16.3779 25.4043 16.2886 25.6146 16.2264C25.6791 16.207 25.7514 16.1694 25.8069 16.2264C25.8624 16.2834 25.8069 16.3468 25.7888 16.4051C25.7385 16.5347 25.6804 16.6564 25.6198 16.7808C25.5411 16.9152 25.4737 17.056 25.4185 17.2018C25.3668 17.3436 25.3074 17.4824 25.2404 17.6175C25.1911 17.7601 25.132 17.899 25.0636 18.0333C25.0365 18.08 25.0636 18.146 25.0042 18.181C24.8752 18.5346 24.7229 18.8792 24.5603 19.2173C24.5371 19.2561 24.5422 19.3092 24.5009 19.3377C24.4777 19.3766 24.4829 19.4284 24.4416 19.4582C24.4095 19.5505 24.3694 19.6398 24.3215 19.725C24.3097 19.7683 24.2895 19.8087 24.2622 19.8442C24.239 19.8818 24.2441 19.9336 24.2015 19.9634C24.177 20.0009 24.1848 20.0553 24.1422 20.0825C24.1189 20.1201 24.1254 20.1732 24.0815 20.2017C24.0583 20.2406 24.0647 20.2937 24.0209 20.3209C23.9086 20.5576 23.7792 20.7857 23.6337 21.0035C23.5885 21.0592 23.5808 21.1395 23.5176 21.1835C23.4905 21.2198 23.5008 21.2755 23.4556 21.3014C23.4105 21.3571 23.3821 21.4309 23.3356 21.4802C23.293 21.5372 23.2569 21.5993 23.2169 21.6589C23.1266 21.7885 23.0517 21.9258 22.9498 22.0475C22.9245 22.0907 22.8942 22.1307 22.8594 22.1667C22.8343 22.2096 22.8044 22.2496 22.7704 22.2859C22.7158 22.3687 22.6559 22.4479 22.591 22.5229C22.5544 22.5822 22.5061 22.6334 22.4491 22.6732C22.4491 22.6913 22.4491 22.7081 22.4491 22.7263C22.4033 22.7974 22.3452 22.8597 22.2774 22.9102L22.1845 23.032C22.0915 23.1558 21.9902 23.2731 21.8812 23.383C21.8453 23.4018 21.8163 23.4318 21.7987 23.4685C21.7397 23.5515 21.675 23.6303 21.6051 23.7042C21.3134 24.0255 21.008 24.332 20.6888 24.6239C20.6049 24.709 20.5152 24.7882 20.4204 24.8609L20.3069 24.9801C20.2294 25.0332 20.1778 25.1096 20.0952 25.1576L20.041 25.2184C19.9713 25.2573 19.9313 25.3324 19.8578 25.3648L19.8036 25.4257C19.7569 25.4693 19.7068 25.5092 19.6539 25.5449C19.611 25.5933 19.5599 25.6337 19.5029 25.664L19.468 25.6899C19.4237 25.7121 19.3849 25.744 19.3545 25.7832L19.3003 25.8428C19.2522 25.8849 19.2018 25.9243 19.1493 25.9607C19.0977 25.9969 19.0577 26.0487 19.0009 26.0811C18.9159 26.1557 18.8267 26.2253 18.7338 26.2897C18.6912 26.3391 18.6389 26.3793 18.5802 26.4075L18.4976 26.4671C18.455 26.5153 18.4043 26.5556 18.3479 26.5863C18.3273 26.62 18.286 26.6239 18.2589 26.6472C18.187 26.7082 18.1106 26.7636 18.0304 26.813C17.9549 26.8773 17.8756 26.937 17.793 26.9917C17.7285 27.05 17.6704 27.0604 17.6252 26.9671C17.6051 26.9353 17.5822 26.9054 17.5568 26.8777L17.5001 26.8156C17.4548 26.7602 17.4146 26.7008 17.38 26.6381C17.3135 26.5645 17.2547 26.4842 17.2045 26.3985C17.0804 26.2191 16.9712 26.0298 16.878 25.8324C16.8342 25.8052 16.8406 25.7521 16.8174 25.7133C16.6749 25.4371 16.5557 25.1494 16.4612 24.8532C16.4062 24.7343 16.3663 24.609 16.3425 24.4801C16.3167 24.2742 16.2547 24.076 16.2134 23.8752C16.1729 23.6832 16.1436 23.489 16.1257 23.2936C16.0673 22.8936 16.0487 22.4888 16.0702 22.0851C16.0941 21.6785 16.142 21.2736 16.2134 20.8727C16.2604 20.7421 16.2857 20.6047 16.2883 20.4659C16.3452 20.1959 16.4247 19.9312 16.5257 19.6745C16.5498 19.5602 16.5897 19.4499 16.6445 19.3468C16.6714 19.2427 16.7117 19.1425 16.7645 19.0489C16.7942 18.9554 16.834 18.8655 16.8832 18.7807C16.9051 18.7419 16.9 18.6888 16.9426 18.6603C16.9687 18.5748 17.0088 18.4942 17.0613 18.4219C17.0845 18.3831 17.0781 18.33 17.1219 18.3028C17.2528 18.0456 17.4016 17.798 17.5672 17.5618C17.6177 17.4761 17.677 17.3958 17.744 17.3222C17.7761 17.2573 17.8164 17.1967 17.864 17.1422C17.8833 17.1227 17.9027 17.102 17.9207 17.0813C17.9388 17.0606 17.9504 17.0152 17.9827 16.9958C18.0259 16.9316 18.0747 16.8713 18.1285 16.8157L18.1892 16.7536C18.233 16.6901 18.2885 16.6383 18.3389 16.5787C18.531 16.3567 18.7384 16.1485 18.9596 15.9557L18.9506 15.9634Z" fill="#C4C4C4"/>
<path fill-rule="evenodd" clip-rule="evenodd" d="M35.1155 26.7586L35.0536 26.7003C35.0058 26.6589 34.9555 26.6213 34.9103 26.5772C34.9053 26.5676 34.8974 26.5597 34.8876 26.5548C34.8779 26.5499 34.8669 26.5483 34.8561 26.55C34.8303 26.5138 34.7826 26.5021 34.7619 26.4607C34.7092 26.4253 34.6595 26.3854 34.6135 26.3415C34.4626 26.2379 34.3141 26.1304 34.1696 26.0177L33.9915 25.8972C33.9345 25.8541 33.875 25.8143 33.8134 25.778L33.7592 25.7444C33.7227 25.7038 33.6789 25.6704 33.6302 25.6459C33.597 25.6406 33.5669 25.6236 33.545 25.598V25.598C33.5153 25.5773 33.4779 25.5695 33.4547 25.5384C33.3211 25.4666 33.1919 25.387 33.0675 25.3001V25.3001C32.9834 25.2594 32.9038 25.2099 32.8301 25.1524V25.1524C32.7574 25.1194 32.6882 25.079 32.6236 25.0319V25.0319C32.5939 25.0112 32.5565 25.0034 32.5333 24.9724C32.4297 24.9216 32.3308 24.8618 32.2378 24.7936C32.2053 24.7782 32.1749 24.7586 32.1474 24.7353C32.1288 24.7332 32.1109 24.7267 32.0952 24.7163C32.0795 24.706 32.0665 24.6921 32.0571 24.6757C32.0313 24.6511 31.9926 24.6459 31.9706 24.6148C31.9036 24.5888 31.8432 24.5481 31.7938 24.4957V24.4957C31.7295 24.4651 31.6696 24.4259 31.6157 24.3791L31.528 24.3182C31.4854 24.291 31.4493 24.2573 31.4093 24.2275C31.3255 24.1744 31.2461 24.1146 31.1718 24.0488C31.1318 23.997 31.0544 23.9944 31.0221 23.9335C30.9679 23.8998 30.9253 23.8519 30.875 23.8143L30.8131 23.7548C30.7598 23.7212 30.7112 23.6807 30.6685 23.6343V23.6343C30.5941 23.5806 30.5245 23.5204 30.4608 23.4542C30.4231 23.4345 30.3917 23.4044 30.3704 23.3675C30.1252 23.1386 29.8886 22.9011 29.6607 22.655C29.5452 22.5316 29.4367 22.4019 29.3355 22.2664L29.3097 22.2315C29.2722 22.19 29.2554 22.133 29.2 22.1019C29.1445 22.0709 29.1393 22.0061 29.0993 21.9646L29.0412 21.9038C28.9744 21.8301 28.9151 21.7498 28.8644 21.6641V21.6641C28.8115 21.5981 28.7651 21.5255 28.7147 21.4569L28.6825 21.3986C28.636 21.3727 28.6257 21.3196 28.596 21.2807L28.565 21.2198C28.5173 21.1939 28.5057 21.1421 28.4799 21.0994C28.4073 21.0084 28.347 20.9082 28.3005 20.8014L28.245 20.7134C28.2063 20.6836 28.2037 20.6343 28.1818 20.5955C28.0965 20.4605 28.0181 20.3213 27.9469 20.1784V20.1784C27.7498 19.7908 27.5774 19.391 27.4307 18.9815C27.4101 18.9258 27.4101 18.8662 27.3855 18.8131C27.309 18.6108 27.2494 18.4024 27.2075 18.1901V18.1901C27.1558 18.1072 27.1739 18.01 27.1468 17.922C27.0704 17.6462 27.0271 17.3622 27.0178 17.0761C27.0213 17.0227 27.0101 16.9694 26.9855 16.922C26.9274 16.5878 26.9855 16.2549 26.9932 15.922C26.9932 15.878 26.9932 15.8236 27.0461 15.8093C27.0991 15.7951 27.1326 15.8469 27.1545 15.8883C27.2836 16.128 27.3804 16.3805 27.5146 16.615C28.0174 17.582 28.571 18.5215 29.1729 19.4297C29.5678 20.0489 29.9923 20.6473 30.3743 21.2742C30.4016 21.3153 30.4254 21.3586 30.4453 21.4038C30.4801 21.5009 30.555 21.5786 30.5976 21.6719C30.5528 21.5429 30.4926 21.4198 30.4182 21.3053C29.7523 19.9129 29.0825 18.5217 28.4683 17.1046C28.4466 17.0569 28.4319 17.0063 28.4244 16.9544C28.4721 16.8507 28.5534 16.8663 28.6309 16.9038C28.6726 16.9292 28.7101 16.9611 28.7418 16.9984C29.2575 17.6611 29.818 18.2874 30.4195 18.8727C31.186 19.6395 31.9758 20.3818 32.763 21.1279C33.1346 21.4815 33.4908 21.8506 33.8354 22.2289C33.9205 22.3157 33.9915 22.4141 34.0767 22.5009C34.1356 22.589 34.2021 22.6718 34.2754 22.7483C34.2961 22.7664 34.3116 22.791 34.3309 22.8118C34.3309 22.7768 34.2999 22.7651 34.2819 22.7444C34.1903 22.6758 34.1644 22.5527 34.0702 22.4854C33.976 22.418 33.9231 22.2975 33.8354 22.2172C33.8199 22.2049 33.8071 22.1895 33.798 22.1719C33.7691 22.1125 33.7244 22.0623 33.6689 22.0268C33.0237 21.2768 32.3565 20.5553 31.6803 19.8377C31.2931 19.4284 30.906 19.0269 30.5472 18.5903C30.5205 18.5292 30.4753 18.4781 30.4182 18.444C30.1601 18.1707 29.9304 17.8753 29.6916 17.5865C29.4529 17.2976 29.2632 16.9842 29.0206 16.7044C28.9664 16.6422 28.9844 16.5969 29.0477 16.5606C29.091 16.5366 29.141 16.5275 29.1899 16.5347C29.2389 16.542 29.2841 16.5652 29.3187 16.6007C29.6103 16.8287 29.8929 17.0658 30.1923 17.2834C30.5201 17.5204 30.8557 17.7432 31.186 17.9466C30.293 17.0502 29.5716 16.0243 29.1432 14.8054C29.1318 14.7728 29.1223 14.7395 29.1148 14.7057C29.1045 14.6617 29.0993 14.6163 29.1471 14.5891C29.1567 14.5836 29.1674 14.5802 29.1784 14.579C29.1894 14.5779 29.2006 14.5791 29.2111 14.5825C29.2217 14.5859 29.2314 14.5915 29.2397 14.5988C29.248 14.6062 29.2547 14.6153 29.2593 14.6254H29.2903C29.44 14.6824 29.591 14.7394 29.7381 14.8041C29.7858 14.83 29.8517 14.8041 29.8865 14.865C30.2478 14.9816 30.595 15.1357 30.9421 15.286C31.0091 15.3022 31.0726 15.3307 31.1292 15.3702V15.3702C31.1667 15.3935 31.2196 15.3883 31.248 15.4298C31.3407 15.4596 31.4298 15.4996 31.5138 15.5489V15.5489C31.5512 15.5723 31.6041 15.5658 31.6325 15.6072C31.6699 15.6319 31.7216 15.6254 31.7512 15.6668C31.7874 15.6914 31.8403 15.685 31.8687 15.7264C31.9061 15.751 31.959 15.7432 31.9874 15.786C32.0235 15.8093 32.0777 15.8028 32.1048 15.8469C32.1792 15.8769 32.2491 15.917 32.3126 15.966V15.966C32.3872 15.9962 32.4571 16.0367 32.5204 16.0865V16.0865C32.5737 16.1102 32.6239 16.1402 32.6701 16.1759V16.1759C32.7281 16.2173 32.7991 16.2368 32.8469 16.2989L32.9333 16.3546C32.9679 16.3674 32.9992 16.3878 33.025 16.4142V16.4142C33.0533 16.4362 33.0921 16.4414 33.114 16.4738C33.1424 16.4945 33.1824 16.501 33.2043 16.5347C33.2889 16.5862 33.3684 16.6456 33.4418 16.7121V16.7121C33.4689 16.7342 33.5089 16.7393 33.5295 16.773C33.5858 16.8034 33.6361 16.8438 33.6779 16.8922V16.8922C33.7318 16.9265 33.7816 16.967 33.8263 17.0127V17.0127C33.8906 17.0585 33.9503 17.1106 34.0044 17.1681C34.0535 17.2346 34.1132 17.2924 34.1812 17.3391C34.2568 17.3923 34.3261 17.454 34.3877 17.523L34.6781 17.8157C34.7476 17.8776 34.81 17.9471 34.8639 18.023C34.9096 18.0919 34.9667 18.1524 35.0329 18.2018C35.0912 18.2542 35.1432 18.3133 35.1878 18.3779V18.3779C35.22 18.4155 35.2502 18.4549 35.2781 18.4958V18.4958C35.3639 18.5892 35.4429 18.6888 35.5143 18.7937V18.7937C35.5698 18.8598 35.6124 18.9336 35.6627 19.0036C35.7092 19.0592 35.7375 19.1266 35.7827 19.1823C35.8263 19.2391 35.8659 19.2989 35.9014 19.3611V19.3611C35.9699 19.4542 36.0295 19.5535 36.0795 19.6577V19.6577C36.1155 19.704 36.1458 19.7544 36.1699 19.8079V19.8079C36.3098 20.0341 36.429 20.2726 36.526 20.5204V20.5204C36.5748 20.6054 36.6146 20.6952 36.6448 20.7885V20.7885C36.7169 20.942 36.7768 21.1009 36.8241 21.2639V21.2639C36.8719 21.3144 36.8577 21.3856 36.8848 21.4426C36.9333 21.5692 36.973 21.6991 37.0035 21.8312V21.8312C37.096 22.1645 37.1629 22.5045 37.2035 22.848C37.2596 23.281 37.27 23.7186 37.2345 24.1537C37.2187 24.4415 37.1707 24.7265 37.0913 25.0034C37.0544 25.1556 37.0056 25.3046 36.9454 25.449V25.449C36.9183 25.506 36.9325 25.5786 36.8848 25.6278C36.8628 25.6653 36.868 25.7172 36.828 25.7482C36.7899 25.8868 36.7293 26.0181 36.6486 26.1368V26.1368C36.5663 26.3049 36.4673 26.4642 36.3531 26.6122V26.6122C36.303 26.6982 36.2428 26.7777 36.1737 26.8493V26.8493C36.0855 26.9678 35.9861 27.0775 35.8769 27.177V27.177C35.7156 27.3285 35.7156 27.3285 35.5659 27.177C35.5085 27.1111 35.4449 27.0508 35.3762 26.9969V26.9969C35.2588 26.9101 35.2033 26.813 35.1155 26.7586Z" fill="#C4C4C4"/>
<path fill-rule="evenodd" clip-rule="evenodd" d="M31.1524 8.4843C31.1624 8.46786 31.1757 8.45372 31.1915 8.44278C31.2073 8.43185 31.2252 8.42437 31.244 8.42083C31.3825 8.30799 31.5327 8.21029 31.6918 8.12938L31.7757 8.0698C31.8189 8.03022 31.8699 8.00021 31.9254 7.98172V7.98172C32.1142 7.86677 32.3118 7.76715 32.5164 7.6838V7.6838C32.6002 7.63388 32.6894 7.59389 32.7823 7.56462V7.56462C32.9355 7.49299 33.0938 7.43281 33.2559 7.38458C33.3801 7.33009 33.5099 7.28968 33.643 7.26411C33.8506 7.1919 34.0622 7.13179 34.2767 7.08406C34.6336 7.00307 34.9959 6.94766 35.3607 6.91826C35.6493 6.8906 35.9394 6.88238 36.2292 6.89365C36.5422 6.90115 36.8545 6.92623 37.1648 6.96878C37.3635 6.99598 37.5622 7.02189 37.7597 7.05427C38.032 7.09636 38.3078 7.11068 38.583 7.09702C39.0704 7.06363 39.5432 6.91636 39.9638 6.66697C39.9871 6.65969 40.0099 6.65104 40.0322 6.64107L40.1174 6.58278C40.2103 6.4947 40.2464 6.56853 40.2916 6.64107C40.3383 6.69554 40.3782 6.75558 40.4103 6.81982C40.4542 6.84702 40.4465 6.90143 40.471 6.93899C40.4983 6.97491 40.5185 7.01582 40.5303 7.05945V7.05945C40.613 7.20911 40.6717 7.37082 40.7045 7.53872C40.7997 7.91978 40.819 8.31594 40.7613 8.7045C40.7234 9.04938 40.6251 9.38483 40.471 9.69542V9.69542C40.4583 9.73873 40.4382 9.77949 40.4116 9.81588V9.81588C40.3884 9.85474 40.3948 9.90655 40.3522 9.93505C40.31 10.0527 40.2495 10.1629 40.1729 10.2615V10.2615C40.112 10.3912 40.0324 10.5112 39.9367 10.6177V10.6177C39.8989 10.6961 39.8463 10.7665 39.7819 10.8249L39.7586 10.8508C39.6649 10.9939 39.5535 11.1245 39.427 11.2394L39.1302 11.5283C39.0563 11.6057 38.977 11.6775 38.8927 11.7433V11.7433C38.8477 11.7887 38.7979 11.8291 38.7443 11.8638V11.8638C38.7016 11.9107 38.652 11.9509 38.5972 11.9829V11.9829C38.5534 12.0293 38.5034 12.0694 38.4488 12.1021V12.1021C38.4268 12.1345 38.3881 12.1436 38.3559 12.1617L38.2733 12.2239C38.2215 12.2746 38.1601 12.3142 38.0926 12.3404L37.9184 12.4609C37.8939 12.4894 37.8564 12.4972 37.8281 12.5192C37.7493 12.5697 37.6706 12.6215 37.5906 12.6682C37.4867 12.736 37.378 12.7961 37.2654 12.8482V12.8482C37.1551 12.9226 37.0359 12.9826 36.9105 13.027V13.027C36.8834 13.071 36.8305 13.0645 36.7918 13.0878C36.7092 13.1402 36.6197 13.1808 36.526 13.2083V13.2083C36.4415 13.2577 36.3519 13.2977 36.2588 13.3275V13.3275C36.2201 13.3728 36.1582 13.3637 36.1104 13.3871C36.0717 13.4298 36.0124 13.4259 35.9633 13.4466C35.9207 13.4855 35.8614 13.479 35.8149 13.5062C35.593 13.6055 35.3639 13.6878 35.1297 13.7523C35.0353 13.7887 34.9376 13.8156 34.838 13.8326V13.8326C34.678 13.8979 34.512 13.9473 34.3425 13.9803C34.1244 14.0321 33.9089 14.0995 33.6843 14.1306C33.594 14.1927 33.4843 14.1578 33.3888 14.1914C33.2985 14.251 33.1888 14.2187 33.092 14.251C32.9926 14.3171 32.8726 14.2769 32.7668 14.3119C32.5492 14.3636 32.3278 14.3974 32.1048 14.4129C31.7834 14.4414 31.4673 14.4984 31.1421 14.4997C30.6233 14.5196 30.1038 14.5045 29.587 14.4544C29.5419 14.4479 29.4709 14.4622 29.458 14.4013C29.4451 14.3404 29.5341 14.3456 29.5728 14.3158L30.32 13.9687C31.3846 13.4521 32.4955 13.0379 33.6379 12.7316C33.863 12.6647 34.0936 12.6183 34.327 12.593C34.5031 12.5855 34.6771 12.5514 34.8432 12.492C34.4417 12.4415 34.0355 12.4415 33.634 12.492C33.3139 12.5218 32.9887 12.5684 32.6752 12.6215C32.43 12.6643 32.1861 12.7135 31.9422 12.7588C31.7234 12.796 31.5077 12.8497 31.2969 12.9195L30.6233 13.1241C30.5652 13.1422 30.5072 13.15 30.4775 13.0736C30.4478 12.9972 30.4775 12.9557 30.5433 12.9169C30.8866 12.7057 31.226 12.4868 31.5757 12.2783C32.1977 11.9026 32.8223 11.5283 33.474 11.2045C34.3025 10.7938 35.1697 10.4739 36.024 10.1255C36.1156 10.0892 36.2046 10.0477 36.295 10.0089C36.4718 9.96096 36.6047 9.82365 36.7815 9.77573C36.8718 9.74205 36.9557 9.69153 37.0396 9.64619C37.1041 9.62355 37.1647 9.59076 37.219 9.54905C37.1381 9.57414 37.0599 9.60711 36.9854 9.64749C36.9136 9.69018 36.839 9.72784 36.7621 9.76018C36.639 9.81957 36.509 9.86309 36.375 9.88971C36.3569 9.90137 36.3376 9.91173 36.3182 9.9221C36.2573 9.93549 36.198 9.95547 36.1414 9.98168C35.4845 10.2019 34.8251 10.4182 34.1695 10.6436C33.4735 10.8873 32.7967 11.183 32.1448 11.5283C31.4079 11.9169 30.6827 12.3184 29.951 12.7148L29.7858 12.8055L29.7587 12.7757L31.8596 10.7705C31.8919 10.7139 31.9359 10.6649 31.9886 10.6267C31.9989 10.6125 32.0325 10.5995 32.0196 10.5905C32.0067 10.5814 31.9809 10.6099 31.9615 10.6216C31.8609 10.7122 31.728 10.7511 31.6234 10.834C30.6937 11.3707 29.7356 11.8563 28.7534 12.2886C28.624 12.3934 28.4727 12.4674 28.3107 12.5049C28.2191 12.5373 28.1817 12.4829 28.2153 12.3754C28.2591 12.2355 28.3288 12.1034 28.3779 11.9661C28.5069 11.8081 28.5495 11.5943 28.6695 11.4272C28.6962 11.3656 28.7264 11.3055 28.7598 11.2472C28.8179 11.1475 28.8695 11.0438 28.9379 10.9493C28.97 10.8755 29.0103 10.8055 29.0579 10.7407C29.086 10.6742 29.1263 10.6136 29.1767 10.562V10.562C29.2043 10.4956 29.2446 10.4353 29.2954 10.3845V10.3845C29.3469 10.2994 29.4065 10.2196 29.4735 10.1462V10.1462C29.5067 10.0759 29.5563 10.0146 29.618 9.96743C29.6213 9.94891 29.6285 9.93133 29.6392 9.91589C29.6499 9.90046 29.6638 9.88755 29.68 9.87805C29.7906 9.73312 29.9096 9.59472 30.0361 9.46355L30.3884 9.10864C30.4788 9.05165 30.5355 8.9545 30.6272 8.90009C30.6724 8.85647 30.7207 8.81621 30.7717 8.77963C30.7988 8.7317 30.853 8.71875 30.8917 8.68766C30.9425 8.62936 31.0032 8.58066 31.0711 8.54388V8.54388C31.0879 8.5128 31.1292 8.5102 31.1524 8.4843Z" fill="#C4C4C4"/>
<path fill-rule="evenodd" clip-rule="evenodd" d="M24.9503 10.4376C24.6869 10.1794 24.446 9.89902 24.2303 9.59953C23.8644 9.06708 23.5836 8.48059 23.3979 7.86122C23.1723 7.14636 23.0689 6.39833 23.092 5.64883C23.108 4.79033 23.2794 3.9419 23.5979 3.14499C23.6302 3.06856 23.6521 2.98696 23.6792 2.90794C23.7025 2.87038 23.6973 2.81727 23.7386 2.78878C23.79 2.65375 23.8535 2.52368 23.9283 2.40018C23.9618 2.3509 23.9896 2.29787 24.0109 2.24215C24.0457 2.2007 24.0509 2.14112 24.0948 2.10485C24.1233 2.03858 24.1635 1.97802 24.2135 1.9261V1.9261C24.2419 1.88465 24.2522 1.83283 24.2987 1.80693C24.309 1.78491 24.3206 1.76548 24.3309 1.74475C24.3717 1.67024 24.422 1.60143 24.4806 1.54009V1.54009C24.5486 1.43301 24.6273 1.33318 24.7155 1.24217L24.7748 1.18129C24.8458 1.08544 24.94 1.01031 25.0123 0.922229L25.1891 0.744771C25.2614 0.691663 25.3181 0.61524 25.393 0.566018L25.4549 0.506434C25.5018 0.46435 25.5514 0.425406 25.6033 0.389855V0.389855C25.624 0.349701 25.6717 0.336747 25.6975 0.300478C25.7195 0.300478 25.7414 0.300478 25.7517 0.273277C25.7997 0.218938 25.8581 0.17488 25.9234 0.143746L25.9866 0.0867514C26.0335 0.0515074 26.0842 0.0215367 26.1376 -0.00262451H26.215C26.4516 0.284115 26.6615 0.591952 26.8422 0.917048V0.917048C26.8745 0.939068 26.8822 0.977927 26.9029 1.00772C26.9467 1.03492 26.939 1.08932 26.9635 1.12559C27.0306 1.22015 27.0822 1.32378 27.1403 1.42351C27.1764 1.4559 27.1803 1.50382 27.201 1.54268C27.3274 1.75962 27.4328 1.9882 27.5158 2.22531V2.22531C27.6347 2.4642 27.734 2.71243 27.8126 2.96753V2.96753C27.8693 3.08041 27.9097 3.20078 27.9327 3.32503C27.9791 3.37555 27.9675 3.4468 27.992 3.50379C28.0411 3.56596 28.0204 3.64627 28.0514 3.71233C28.162 4.04246 28.2427 4.38191 28.2927 4.72656C28.3639 5.15221 28.41 5.58171 28.4308 6.01281C28.4658 6.31594 28.4718 6.62172 28.4488 6.92601C28.4205 7.12808 28.4321 7.32885 28.4088 7.52962C28.3752 7.88054 28.3087 8.2275 28.2101 8.56587C28.1053 8.83792 28.0891 9.13629 28.1637 9.41819C28.1766 9.45964 28.1972 9.51663 28.1495 9.55549C28.1017 9.59435 28.0772 9.56715 28.054 9.52829C27.9359 9.47821 27.8318 9.39996 27.7507 9.30032C27.7279 9.2508 27.6949 9.20666 27.6539 9.17078C27.5982 9.08722 27.5547 8.99605 27.5249 8.90006V8.90006C27.4428 8.71732 27.3876 8.5236 27.361 8.32495C27.2616 7.78221 27.3132 7.23429 27.3042 6.68896C27.3089 6.61514 27.3201 6.54188 27.3377 6.47006C27.3742 6.35029 27.3942 6.22609 27.3971 6.10089C27.3502 6.21246 27.3252 6.33211 27.3236 6.45322C27.2784 6.71228 27.1764 6.95321 27.1364 7.21098C27.0281 7.7988 27.0085 8.39965 27.0784 8.99333V8.99333C27.107 9.07027 27.1269 9.15023 27.1377 9.23166C27.1561 9.25405 27.1705 9.27947 27.1803 9.30679C27.201 9.37544 27.2281 9.45446 27.1455 9.4972C27.0629 9.53995 27.0332 9.45705 26.9932 9.40653C26.9082 9.30868 26.8382 9.19866 26.7854 9.08011C26.713 8.96862 26.6537 8.84909 26.6086 8.7239V8.7239C26.5328 8.58256 26.473 8.43309 26.4305 8.27831V8.27831C26.3841 8.2278 26.397 8.15655 26.3712 8.09956C26.3174 7.96545 26.2776 7.82611 26.2524 7.68377V7.68377C26.1694 7.44782 26.111 7.20385 26.0782 6.9558C26.015 6.61513 25.9711 6.26928 25.9337 5.91955C25.8769 5.40142 25.7969 4.8833 25.753 4.35481C25.7466 4.28098 25.753 4.20714 25.753 4.15922C25.7388 4.41828 25.8021 4.70066 25.7982 4.98692C25.7982 5.15402 25.7905 5.32241 25.7905 5.4895C25.7905 5.85478 25.8356 6.21747 25.8666 6.57886C25.8908 6.92073 25.9386 7.26049 26.0098 7.59568C26.0473 7.76148 26.0821 7.92858 26.1066 8.09827C26.1802 8.34567 26.2447 8.59566 26.3376 8.83789C26.4359 9.07208 26.5466 9.30082 26.6693 9.52311C26.6767 9.52903 26.6832 9.53601 26.6886 9.54383C26.7196 9.59435 26.7893 9.63839 26.7312 9.70704C26.6731 9.7757 26.6112 9.74461 26.5531 9.70057C26.455 9.60212 26.357 9.50239 26.2576 9.40394C26.1582 9.3055 26.0963 9.20835 26.0214 9.10602C25.9814 9.06327 25.9647 9.00369 25.9195 8.96613C25.8761 8.90963 25.8393 8.84835 25.8098 8.78349V8.78349C25.7573 8.73391 25.7171 8.6727 25.6924 8.60473V8.60473C25.6628 8.54437 25.6274 8.48709 25.5866 8.43375C25.5543 8.33272 25.4575 8.27831 25.4175 8.17469C25.3967 8.11427 25.3717 8.0554 25.3427 7.99853C25.3902 8.11372 25.4291 8.23236 25.4588 8.35344C25.4704 8.37676 25.4588 8.40655 25.4807 8.42857C25.5956 8.73297 25.6962 9.04255 25.8072 9.34954C25.904 9.54902 26.0047 9.7472 26.1027 9.94668L26.1557 10.0322C26.2073 10.0853 26.2344 10.1617 26.2847 10.2109C26.3191 10.2468 26.349 10.2869 26.3738 10.3301C26.4092 10.3656 26.4392 10.4062 26.4628 10.4506C26.5285 10.54 26.6067 10.6194 26.6951 10.6863C26.7352 10.7039 26.7683 10.7345 26.7893 10.7731V10.7731C26.8713 10.8282 26.9501 10.8879 27.0254 10.9518V10.9518C27.0983 10.9846 27.1675 11.025 27.2319 11.0723V11.0723C27.2706 11.0956 27.3235 11.0891 27.3506 11.1332C27.3894 11.1552 27.441 11.1513 27.4707 11.1915C27.4939 11.2122 27.5455 11.2057 27.5404 11.2536C27.5352 11.3016 27.4926 11.2951 27.459 11.2938C27.361 11.2938 27.2835 11.3547 27.1919 11.3715C26.9276 11.3978 26.6607 11.366 26.4099 11.2783C26.3634 11.1928 26.2692 11.22 26.1982 11.1954C25.799 11.0557 25.4288 10.8431 25.1065 10.5684C25.0433 10.5244 25.0007 10.4778 24.9503 10.4376Z" fill="#C4C4C4"/>
<path fill-rule="evenodd" clip-rule="evenodd" d="M26.3993 11.2692C26.6651 11.2692 26.9245 11.3534 27.1917 11.3288C27.3652 11.3353 27.5349 11.3823 27.6872 11.4661C27.8872 11.5594 28.1027 11.6358 28.2563 11.812L28.3389 11.8677C28.375 11.8845 28.4189 11.8949 28.4163 11.9506C28.3732 12.0958 28.3197 12.2378 28.2563 12.3754C28.246 12.4052 28.2111 12.4376 28.2434 12.4687C28.2757 12.4998 28.3092 12.4687 28.3376 12.4531C28.4783 12.3987 28.6176 12.3392 28.7583 12.2809L29.108 12.786C29.2515 13.0294 29.3474 13.298 29.3906 13.5775C29.4374 13.737 29.4536 13.9041 29.4384 14.0697C29.4061 14.2484 29.4061 14.4389 29.2822 14.5878L29.2564 14.6202C29.1171 14.5891 29.1171 14.5891 29.1726 14.7977C29.127 14.9325 29.049 15.054 28.9454 15.1513C28.7519 15.3948 28.5209 15.6008 28.3182 15.8352C28.1324 16.0502 27.9685 16.2834 27.775 16.4932C27.7027 16.5722 27.6459 16.6616 27.5169 16.6772C27.39 16.475 27.2799 16.2628 27.1878 16.0425C27.1542 15.9777 27.1233 15.9129 27.0923 15.8507C27.0368 15.8572 27.0433 15.8935 27.0433 15.9194C27.0433 16.2316 26.9736 16.545 27.0355 16.8572C27.0355 16.8779 27.0213 16.9038 27.0136 16.9259C26.9671 16.988 26.8948 16.9647 26.8368 16.9686C26.5085 17.0063 26.176 16.9736 25.8612 16.8727V16.8727C25.7661 16.8631 25.6743 16.8321 25.5927 16.7821C25.6366 16.6365 25.6922 16.4949 25.7592 16.3585C25.7734 16.3196 25.8212 16.2795 25.7799 16.238C25.7386 16.1966 25.696 16.238 25.6508 16.2471C25.4831 16.3041 25.3179 16.365 25.1501 16.4207C25.0975 16.4481 25.039 16.4619 24.9798 16.4608C24.7826 16.3719 24.6109 16.2347 24.4804 16.0619C24.1349 15.6805 23.899 15.2123 23.7977 14.707C23.7843 14.678 23.7773 14.6464 23.7773 14.6144C23.7773 14.5824 23.7843 14.5508 23.7977 14.5218C23.8222 14.4518 23.8867 14.4363 23.9435 14.4117L24.5333 14.1526C24.5694 14.137 24.6055 14.1228 24.6146 14.0697C24.3913 14.0166 24.1616 14.0321 23.9371 14.001C23.8906 13.9946 23.839 14.0088 23.7977 13.97C23.858 13.6401 24.005 13.3324 24.2235 13.0788C24.2519 13.0386 24.2829 12.9998 24.3152 12.9622C24.5384 12.7122 24.763 12.4635 24.9862 12.2148C25.0212 12.1795 25.0531 12.1414 25.0817 12.1008C25.3398 11.8055 25.5979 11.505 25.9851 11.3599C26.1203 11.3179 26.2589 11.2876 26.3993 11.2692Z" fill="#E4BB5C"/>
<path fill-rule="evenodd" clip-rule="evenodd" d="M15.9014 12.2511C15.4575 11.8608 15.0449 11.4359 14.6677 10.9804C14.2114 10.4258 13.8252 9.81667 13.5179 9.16693C13.0208 8.16879 12.7947 7.05674 12.8623 5.9429C12.8962 5.47398 13.0202 5.01609 13.2275 4.59448C13.2662 4.51676 13.2998 4.48438 13.3966 4.52453C14.2367 4.88074 15.1232 5.08281 16.0008 5.31726C16.9255 5.55161 17.8214 5.88829 18.6721 6.32113C18.916 6.45066 19.1483 6.59833 19.387 6.73693C19.4438 6.77975 19.5028 6.81953 19.5638 6.8561C20.231 7.31982 20.862 7.82629 21.4853 8.347C22.0436 8.79848 22.5778 9.27928 23.0855 9.78739C23.5259 10.2376 23.9202 10.731 24.2624 11.2602C24.2721 11.2758 24.2803 11.2922 24.287 11.3094C24.2431 11.356 24.2095 11.3197 24.1773 11.3094C23.3268 10.8897 22.4648 10.492 21.6389 10.0218C20.9059 9.60345 20.2103 9.13585 19.649 8.49078C19.6399 8.48171 19.6244 8.47912 19.5986 8.49078C19.9774 9.10367 20.4574 9.64728 21.0182 10.0983C21.0737 10.1319 21.1149 10.1812 21.1653 10.2187C21.5111 10.5218 21.8905 10.7783 22.2622 11.0451C22.319 11.0879 22.3822 11.1216 22.439 11.1643L23.03 11.5205C23.0494 11.5348 23.0726 11.5555 23.0545 11.5762C23.0385 11.5893 23.0184 11.5964 22.9978 11.5964C22.9771 11.5964 22.9571 11.5893 22.941 11.5762C21.8776 11.2291 20.8052 10.9117 19.7754 10.4713C19.0718 10.156 18.4024 9.76882 17.7778 9.31589C17.4435 9.08403 17.1002 8.86513 16.7621 8.63845C16.6403 8.57713 16.5249 8.5038 16.4176 8.41954C16.3505 8.34441 16.2511 8.31203 16.1801 8.24338C16.1401 8.19674 16.0795 8.17991 16.0395 8.13457C15.9865 8.09559 15.9313 8.0597 15.8743 8.02706C15.9218 8.0679 15.9723 8.10513 16.0253 8.13846C16.0579 8.17012 16.0933 8.19874 16.1311 8.22395C16.2305 8.2913 16.3247 8.36384 16.4215 8.43508C16.5463 8.5172 16.661 8.61371 16.7634 8.72264C17.33 9.16046 17.8836 9.61511 18.4682 10.0296C18.996 10.3928 19.5553 10.7075 20.1393 10.97C20.9769 11.3586 21.8557 11.6488 22.7074 12.0063C22.7371 12.0373 22.7681 12.0879 22.6919 12.0749C22.3796 12.0218 22.0622 12.0089 21.7473 11.9609C21.5163 11.9247 21.2814 11.9182 21.0478 11.8897C20.7188 11.8482 20.3884 11.8107 20.0593 11.7602C19.9613 11.7459 19.8632 11.7602 19.7599 11.7459C19.7599 11.7848 19.7922 11.8016 19.8167 11.821C20.0903 11.8456 20.3329 11.9713 20.591 12.0646C21.3169 12.3284 22.0262 12.6359 22.7151 12.9855C22.9751 13.1137 23.2283 13.2551 23.474 13.4091C23.5023 13.4272 23.5423 13.4376 23.532 13.4829C23.5217 13.5283 23.4882 13.514 23.461 13.5218C22.8343 13.7236 22.1908 13.8689 21.5382 13.9557C20.2751 14.122 18.9906 13.943 17.8203 13.4376C17.171 13.1642 16.5674 12.7925 16.0304 12.3353C15.9827 12.3055 15.944 12.2796 15.9014 12.2511Z" fill="#C4C4C4"/>
</g>
</g>
<defs>
<clipPath id="clip0_1212_108">
<rect width="62" height="65.5429" fill="white"/>
</clipPath>
</defs>
</svg>
