<svg width="64" height="53" viewBox="0 0 64 53" fill="none" xmlns="http://www.w3.org/2000/svg">
<g opacity="0.6">
<path opacity="0.5" d="M2.10085 53L27.1586 39.7737C28.6043 39.8979 30.0783 39.9657 31.5806 39.9657C49.0368 39.9657 63.1555 31.1048 63.1555 20.1714C63.1555 9.23789 49.0368 0.405273 31.5749 0.405273C14.113 0.405273 0 9.23789 0 20.1714C0 27.5808 6.50022 34.0415 16.1178 37.4356L2.10085 53Z" fill="#B8B8B8"/>
<path opacity="0.5" d="M20.5118 11.1468H14.2996L14.5989 12.841H15.1636C15.5432 12.8355 15.9222 12.8734 16.2931 12.9539C16.4626 13.0048 16.4739 13.0612 16.4852 13.129C16.4863 13.1441 16.4863 13.1592 16.4852 13.1742C16.4373 13.5469 16.3102 13.9051 16.1124 14.2246C15.9091 14.6199 15.5477 15.2073 15.0902 15.9189L13.5146 18.3529L11.442 13.8349C11.442 13.8349 11.3686 13.6768 11.2895 13.4735C11.2352 13.3412 11.1899 13.2053 11.154 13.0669C11.1519 13.0481 11.1519 13.0292 11.154 13.0104H11.1991C11.5432 12.9168 11.8986 12.8712 12.2552 12.8749L13.0063 12.8353L12.7014 11.1411H5.09424L5.3992 12.8353L5.89053 12.8862C6.26729 12.8964 6.63806 12.9828 6.98049 13.1403C7.26456 13.4588 7.48502 13.8288 7.62995 14.2303C7.62995 14.2303 10.6683 20.7587 10.8151 21.0806C10.7812 21.4251 10.2052 26.4231 10.2052 26.4231C10.2147 26.6375 10.1743 26.8511 10.087 27.0471C9.9998 27.2432 9.86818 27.4162 9.70256 27.5526C9.27599 27.6991 8.82616 27.7661 8.37541 27.7503L7.64689 27.8067L7.95185 29.501H16.8748L16.5642 27.7503H16.0277C15.4571 27.7663 14.887 27.7036 14.3335 27.5639C14.2318 27.53 14.1584 27.3888 14.1132 27.1516C14.0886 26.9891 14.0773 26.8247 14.0793 26.6603C14.0846 26.3637 14.1072 26.0676 14.1471 25.7737C14.1471 25.7737 14.6102 21.8769 14.7119 21.0863L19.1056 14.1456C19.3133 13.7698 19.5759 13.4271 19.8849 13.129C20.1238 12.982 20.3955 12.8966 20.6756 12.8805L21.3646 12.8015L21.0652 11.1468H20.5118Z" fill="white"/>
<path opacity="0.5" d="M22.6238 16.6362H22.6577L20.6924 17.0202L18.2527 17.5228L18.5407 19.0476H19.1055C19.4348 19.0318 19.7648 19.0564 20.0881 19.1211C20.1103 19.1754 20.1255 19.2323 20.1333 19.2905V19.3978V19.6067C20.1333 19.6406 19.6081 26.7621 19.6081 26.7621C19.6081 26.7621 19.6081 27.2477 19.6081 27.259C19.611 27.4392 19.6299 27.6187 19.6645 27.7955C19.7123 28.1683 19.8511 28.5236 20.0688 28.8299C20.2865 29.1362 20.5763 29.3842 20.9126 29.5519C21.2512 29.714 21.6216 29.7988 21.9969 29.8004C23.2676 29.8004 24.4366 28.9984 25.4871 27.4228C25.6791 27.1291 25.888 26.7677 26.1139 26.3441C26.1139 26.5926 26.0744 26.8298 26.0744 27.0501V27.1404C26.0782 27.4205 26.1028 27.6998 26.1478 27.9763C26.2197 28.5189 26.5015 29.0116 26.9328 29.3486C27.3277 29.6408 27.8084 29.7937 28.2995 29.7834C29.2426 29.7834 30.1293 29.2187 30.9312 28.0892C31.3293 27.5291 31.6645 26.9268 31.9308 26.2933L32.1624 25.7625L30.6884 24.9266L29.7961 26.3216C29.6851 26.5066 29.5645 26.6857 29.4346 26.8581L29.3951 26.9032V26.6886L30.214 17.6527L30.2761 16.9298H27.0853L26.9893 17.4946C26.7408 18.8895 26.5319 19.923 26.3737 20.5781C26.1534 21.5238 25.8491 22.448 25.4645 23.3397C25.0553 24.2727 24.5659 25.1683 24.0018 26.0166C23.341 27.0105 22.974 27.0614 22.9062 27.0614H22.8667C22.8656 27.0407 22.8656 27.0199 22.8667 26.9992V26.8863L22.9062 26.4232L23.6234 17.6753V17.4551C23.6168 17.2417 23.5277 17.0393 23.3749 16.8903C23.2828 16.786 23.165 16.7077 23.0333 16.6631C22.9015 16.6185 22.7603 16.6092 22.6238 16.6362Z" fill="white"/>
<path opacity="0.5" d="M36.4205 16.6587C34.602 17.0766 33.2636 17.3589 32.4673 17.4945L31.7783 17.5848L32.0946 19.2791H32.6593C33.021 19.2526 33.3844 19.264 33.7436 19.313C33.7497 19.3428 33.7497 19.3735 33.7436 19.4033C33.7502 19.4501 33.7502 19.4977 33.7436 19.5445V19.7535L32.8005 29.501H36.0478L36.1269 28.9362C36.3245 27.5131 36.4883 26.4118 36.6238 25.6607C36.7797 24.688 37.0586 23.7392 37.454 22.837C37.8646 21.9848 38.3524 21.1719 38.9111 20.4086C39.6057 19.4146 40.001 19.3355 40.114 19.3355C40.1174 19.3712 40.1174 19.4072 40.114 19.4428V19.5501C40.114 19.5501 40.114 19.7196 40.114 19.7309C40.114 19.7422 39.2273 29.501 39.2273 29.501H42.5254L42.5819 28.9023C42.7796 26.8297 42.9207 25.5139 43.0168 24.9491C43.1553 24.2254 43.3672 23.5177 43.6493 22.837C44.0551 21.9637 44.5409 21.13 45.1007 20.3464C45.5525 19.697 45.9817 19.3412 46.3092 19.3355C46.3278 19.3603 46.3395 19.3895 46.3431 19.4203V19.7252L45.7784 26.858V27.3945C45.7837 27.5646 45.7988 27.7343 45.8235 27.9027C45.8655 28.2123 45.9721 28.5096 46.1366 28.7752C46.301 29.0409 46.5196 29.2689 46.778 29.4445C47.1018 29.6557 47.4813 29.7658 47.8679 29.7607C48.2732 29.7518 48.6727 29.6624 49.0431 29.4975C49.4135 29.3327 49.7473 29.0958 50.0252 28.8007C50.6769 28.1367 51.22 27.3744 51.6348 26.5417L51.7308 26.3666L52.0075 25.8471L50.5053 24.8192L49.5283 26.344L49.4323 26.4965C49.3475 26.6151 49.2515 26.745 49.1386 26.8862C49.212 26.073 49.7429 20.386 49.7429 20.386C49.7429 19.9737 49.7711 19.6744 49.7711 19.4541C49.7753 19.2653 49.7639 19.0764 49.7372 18.8894C49.6964 18.5485 49.5873 18.2193 49.4165 17.9214C49.2458 17.6236 49.0168 17.3631 48.7433 17.1556C48.2945 16.8194 47.7509 16.6336 47.1902 16.6248C46.0156 16.6248 44.8917 17.3872 43.7566 18.9515C43.6606 19.0871 43.5589 19.2395 43.4573 19.3977C43.4555 19.2086 43.4405 19.0199 43.4121 18.8329C43.3558 18.4627 43.2202 18.1091 43.0146 17.7962C42.8089 17.4833 42.538 17.2185 42.2205 17.0201C41.8325 16.7726 41.3818 16.6413 40.9215 16.6417C39.7921 16.6417 38.7416 17.3363 37.6573 18.7652C37.4822 19.008 37.3072 19.2678 37.1265 19.5389L37.3919 17.0766L36.7255 16.5796L36.4205 16.6587Z" fill="white"/>
<path opacity="0.5" d="M54.2437 11.8527C53.9607 12.6898 53.8455 13.5745 53.9048 14.4561V16.8168C53.9048 16.9692 53.9048 17.6752 53.8258 20.2504L53.7015 24.6667L54.2663 24.7797L55.3506 24.9943L56.2259 20.7926C56.5987 19.0983 56.7568 18.3981 56.7907 18.1326C57.3554 15.9019 57.6886 14.5804 57.7733 14.089C57.8579 13.5843 57.8579 13.069 57.7733 12.5642C57.6945 12.0944 57.4692 11.6615 57.1295 11.3274C56.9556 11.1485 56.7475 11.0063 56.5176 10.9093C56.2877 10.8123 56.0406 10.7624 55.7911 10.7627C55.454 10.7698 55.1267 10.8773 54.851 11.0714C54.5753 11.2656 54.3639 11.5376 54.2437 11.8527ZM52.6172 26.4061C52.4618 26.5999 52.3492 26.8244 52.2869 27.0648C52.2246 27.3053 52.214 27.5562 52.2558 27.8011C52.3439 28.3868 52.6506 28.9175 53.1142 29.2863C53.5139 29.6149 54.0143 29.7964 54.5317 29.8003C54.8056 29.8084 55.0777 29.753 55.3266 29.6384C55.5754 29.5237 55.7944 29.353 55.9662 29.1395C56.1402 28.9343 56.2672 28.6935 56.3384 28.434C56.4097 28.1745 56.4233 27.9026 56.3784 27.6373C56.28 27.0802 55.9705 26.5826 55.5144 26.248C55.1081 25.9233 54.6056 25.7425 54.0856 25.7341C53.8045 25.7176 53.5237 25.7702 53.2678 25.8874C53.0118 26.0045 52.7884 26.1827 52.6172 26.4061Z" fill="white"/>
</g>
</svg>
