<svg width="135" height="16" viewBox="0 0 135 16" fill="none" xmlns="http://www.w3.org/2000/svg">
<g opacity="0.4">
<path opacity="0.954" fill-rule="evenodd" clip-rule="evenodd" d="M11.3805 7.52582C11.3701 7.72938 11.3089 7.91294 11.1969 8.07649C10.0232 10.6076 8.79948 13.1162 7.52582 15.6023C5.01721 15.6023 2.50861 15.6023 0 15.6023C2.45632 10.3835 4.96493 5.18277 7.52582 0C8.86587 2.49685 10.1508 5.00546 11.3805 7.52582Z" fill="#EDEDED"/>
</g>
<g opacity="0.4">
<path opacity="0.969" fill-rule="evenodd" clip-rule="evenodd" d="M15.0517 15.4187C13.9479 12.8427 12.663 10.3953 11.197 8.07649C11.309 7.91294 11.3701 7.72938 11.3806 7.52582C12.5284 5.01588 13.7521 2.53787 15.0517 0.0917787C17.6215 -0.0305929 20.1913 -0.0305929 22.7611 0.0917787C20.2561 5.25471 17.6864 10.3637 15.0517 15.4187Z" fill="#DBDBDB"/>
</g>
<g opacity="0.4">
<path opacity="0.819" fill-rule="evenodd" clip-rule="evenodd" d="M68.0994 15.9694C66.7534 15.9694 65.4072 15.9694 64.0612 15.9694C63.6665 15.7546 63.2381 15.571 62.7763 15.4187C62.5316 14.9292 62.5316 14.4397 62.7763 13.9503C64.3185 14.9258 65.9705 15.2012 67.7323 14.7763C69.4423 13.9028 69.9012 12.5873 69.109 10.8298C67.8235 9.60596 66.3857 8.5964 64.7954 7.80111C62.8881 6.58497 62.3067 4.90236 63.0516 2.7533C64.0702 1.14246 65.5386 0.347049 67.457 0.367068C68.3507 0.454143 69.2378 0.576515 70.1185 0.734181C70.1486 1.22745 70.118 1.71694 70.0268 2.20263C68.4148 1.51859 66.7932 1.48799 65.1625 2.11086C63.9751 3.1874 63.7609 4.44171 64.5201 5.87376C65.9399 6.997 67.439 8.00656 69.0172 8.90245C71.4646 11.1051 71.4646 13.3078 69.0172 15.5105C68.6841 15.6494 68.3782 15.8024 68.0994 15.9694Z" fill="#EDEDED"/>
</g>
<g opacity="0.4">
<path opacity="0.822" fill-rule="evenodd" clip-rule="evenodd" d="M82.2334 15.9695C80.7649 15.9695 79.2965 15.9695 77.828 15.9695C75.3169 14.8928 73.7567 12.9961 73.1473 10.2793C72.544 7.04526 73.37 4.26131 75.6253 1.92746C78.5846 -0.0578715 81.5828 -0.119056 84.6196 1.7439C86.4427 3.44707 87.3605 5.55797 87.3729 8.0766C87.437 11.9384 85.7239 14.5694 82.2334 15.9695ZM78.7458 1.65212C83.5381 1.23547 85.9854 3.43815 86.088 8.26016C85.8232 13.2081 83.2534 15.3802 78.3787 14.7764C75.5541 13.5993 74.2081 11.4578 74.3404 8.35194C74.2567 5.04913 75.7252 2.81587 78.7458 1.65212Z" fill="#EDEDED"/>
</g>
<g opacity="0.4">
<path opacity="0.815" fill-rule="evenodd" clip-rule="evenodd" d="M122.799 15.9692C121.27 15.9692 119.74 15.9692 118.21 15.9692C114.249 14.2304 112.628 11.1711 113.346 6.79142C114.206 2.79494 116.684 0.653451 120.78 0.366943C121.961 0.451559 123.123 0.635116 124.268 0.917613C124.268 1.34591 124.268 1.77422 124.268 2.20251C122.194 1.52634 120.114 1.49576 118.027 2.11073C115.119 3.98376 113.987 6.64533 114.631 10.0954C115.315 13.2527 117.273 14.9047 120.505 15.0515C121.767 15.0068 122.96 14.7009 124.084 14.1337C124.329 14.562 124.329 14.9903 124.084 15.4186C123.622 15.5709 123.194 15.7545 122.799 15.9692Z" fill="#EDEDED"/>
</g>
<g opacity="0.4">
<path opacity="0.824" fill-rule="evenodd" clip-rule="evenodd" d="M37.8126 15.9696C37.5066 15.9696 37.2008 15.9696 36.8948 15.9696C33.8067 11.7532 30.7169 7.53142 27.6252 3.3042C27.5927 7.53931 27.5009 11.7611 27.3499 15.9696C26.9828 15.9696 26.6156 15.9696 26.2485 15.9696C26.2485 10.8912 26.2485 5.81282 26.2485 0.734412C26.9339 0.645947 27.454 0.890689 27.8088 1.46864C30.6135 5.43608 33.4893 9.35195 36.4359 13.2163C36.5277 9.0561 36.5584 4.89547 36.5277 0.734412C36.9559 0.734412 37.3844 0.734412 37.8126 0.734412C37.8126 5.81282 37.8126 10.8912 37.8126 15.9696Z" fill="#EDEDED"/>
</g>
<g opacity="0.4">
<path opacity="0.821" fill-rule="evenodd" clip-rule="evenodd" d="M49.0095 15.9696C46.5008 15.9696 43.9923 15.9696 41.4836 15.9696C41.4836 10.8912 41.4836 5.81278 41.4836 0.734375C43.8699 0.734375 46.2561 0.734375 48.6423 0.734375C48.6423 1.10149 48.6423 1.4686 48.6423 1.83571C46.6223 1.80515 44.6032 1.83575 42.585 1.92749C42.828 3.78817 42.828 5.65431 42.585 7.52597C44.4778 7.70927 46.3745 7.77045 48.2752 7.70952C48.2752 8.07664 48.2752 8.44375 48.2752 8.81086C46.3774 8.7803 44.4808 8.8109 42.585 8.90264C42.8297 10.7994 42.8297 12.6961 42.585 14.5929C44.7256 14.6847 46.8672 14.7152 49.0095 14.6847C49.0095 15.113 49.0095 15.5413 49.0095 15.9696Z" fill="#EDEDED"/>
</g>
<g opacity="0.4">
<path opacity="0.825" fill-rule="evenodd" clip-rule="evenodd" d="M56.5357 15.9696C56.1075 15.9696 55.6791 15.9696 55.2508 15.9696C55.2508 11.2583 55.2508 6.54701 55.2508 1.83571C53.7824 1.83571 52.3139 1.83571 50.8455 1.83571C50.8455 1.4686 50.8455 1.10149 50.8455 0.734375C54.1495 0.734375 57.4535 0.734375 60.7575 0.734375C60.7575 1.10149 60.7575 1.4686 60.7575 1.83571C59.2878 1.80517 57.8193 1.83577 56.3522 1.92749C56.5348 6.59451 56.5959 11.2752 56.5357 15.9696Z" fill="#EDEDED"/>
</g>
<g opacity="0.4">
<path opacity="0.791" fill-rule="evenodd" clip-rule="evenodd" d="M97.4685 15.9696C95.0211 15.9696 92.5736 15.9696 90.1262 15.9696C90.1262 10.8912 90.1262 5.81278 90.1262 0.734375C90.5545 0.734375 90.9829 0.734375 91.4111 0.734375C91.4111 5.38447 91.4111 10.0346 91.4111 14.6847C93.4302 14.6847 95.4494 14.6847 97.4685 14.6847C97.4685 15.113 97.4685 15.5413 97.4685 15.9696Z" fill="#EDEDED"/>
</g>
<g opacity="0.4">
<path opacity="0.832" fill-rule="evenodd" clip-rule="evenodd" d="M112.153 15.9694C111.663 15.9694 111.174 15.9694 110.685 15.9694C110.189 14.4258 109.638 12.8962 109.033 11.3805C106.894 11.1972 104.753 11.136 102.608 11.197C102.059 12.7859 101.508 14.3767 100.956 15.9694C100.528 15.9694 100.099 15.9694 99.6711 15.9694C101.507 10.891 103.342 5.81265 105.178 0.734249C105.659 0.684993 106.117 0.74618 106.555 0.917805C108.44 5.93226 110.306 10.9495 112.153 15.9694ZM105.729 2.38626C106.674 4.92216 107.653 7.46136 108.665 10.0039C106.827 10.1566 104.991 10.126 103.159 9.91208C104.163 7.44858 105.02 4.93997 105.729 2.38626Z" fill="#EDEDED"/>
</g>
<g opacity="0.4">
<path opacity="0.823" fill-rule="evenodd" clip-rule="evenodd" d="M134.914 15.9696C132.405 15.9696 129.897 15.9696 127.388 15.9696C127.388 10.8912 127.388 5.81278 127.388 0.734375C129.774 0.734375 132.161 0.734375 134.547 0.734375C134.547 1.10149 134.547 1.4686 134.547 1.83571C132.527 1.80515 130.508 1.83575 128.49 1.92749C128.671 3.83977 128.732 5.76711 128.673 7.70952C130.509 7.70952 132.344 7.70952 134.18 7.70952C134.18 8.07664 134.18 8.44375 134.18 8.81086C132.282 8.7803 130.385 8.8109 128.49 8.90264C128.671 10.8149 128.732 12.7423 128.673 14.6847C130.753 14.6847 132.834 14.6847 134.914 14.6847C134.914 15.113 134.914 15.5413 134.914 15.9696Z" fill="#EDEDED"/>
</g>
<g opacity="0.4">
<path fill-rule="evenodd" clip-rule="evenodd" d="M11.197 8.07642C12.663 10.3952 13.9479 12.8427 15.0517 15.4187C12.5756 15.6014 10.0669 15.6626 7.52588 15.6022C8.79954 13.1161 10.0233 10.6075 11.197 8.07642Z" fill="#8F8F8F" fill-opacity="0.06"/>
</g>
</svg>
