<svg width="121" height="23" viewBox="0 0 121 23" fill="none" xmlns="http://www.w3.org/2000/svg">
<g opacity="0.4">
<path fill-rule="evenodd" clip-rule="evenodd" d="M46.8982 3.77427C45.659 3.77427 44.8594 4.36112 44.2821 5.15255V1.9599C44.2821 1.2923 43.7526 0.753906 43.0959 0.753906C42.4392 0.753906 41.915 1.29768 41.915 1.9599V11.3279C41.915 11.9955 42.4445 12.5339 43.0959 12.5339C43.7473 12.5339 44.2821 11.9955 44.2821 11.344V11.3279C44.8488 12.0116 45.6219 12.5985 46.8982 12.5985C48.8734 12.5985 50.7004 11.0425 50.7004 8.19983V8.16753C50.7004 5.32483 48.847 3.76889 46.8982 3.76889V3.77427ZM48.328 8.19983C48.328 9.63195 47.396 10.5526 46.2786 10.5526C45.1612 10.5526 44.2504 9.61041 44.2504 8.19983V8.16753C44.2504 6.75695 45.1718 5.81477 46.2786 5.81477C47.3854 5.81477 48.328 6.75695 48.328 8.16753V8.19983V8.19983Z" fill="#777371"/>
<path fill-rule="evenodd" clip-rule="evenodd" d="M55.8054 3.8335C55.1064 3.8335 54.545 4.60339 54.2008 5.42713V5.04487C54.2008 4.37727 53.666 3.83888 53.0146 3.83888C52.3632 3.83888 51.8284 4.37727 51.8284 5.04487V11.3333C51.8284 12.0009 52.3579 12.5393 53.0146 12.5393C53.6712 12.5393 54.2008 12.0009 54.2008 11.3333V9.08279C54.2008 7.36533 54.8681 6.43392 56.0755 6.14319C56.5627 6.03013 56.9651 5.65325 56.9651 5.01795C56.9651 4.3342 56.5468 3.83888 55.8054 3.83888" fill="#777371"/>
<path fill-rule="evenodd" clip-rule="evenodd" d="M61.6412 3.77394C59.0358 3.77394 57.0923 5.75521 57.0923 8.1995V8.2318C57.0923 10.6815 59.0199 12.6304 61.6148 12.6304C64.2096 12.6304 66.1584 10.6438 66.1584 8.1995V8.1672C66.1584 5.72291 64.2361 3.76855 61.6465 3.76855L61.6412 3.77394ZM63.8071 8.2318C63.8071 9.48087 62.9969 10.5523 61.6412 10.5523C60.2856 10.5523 59.4383 9.45395 59.4383 8.1995V8.1672C59.4383 6.91275 60.2538 5.84674 61.6148 5.84674C62.9757 5.84674 63.8124 6.94505 63.8124 8.19412V8.22642L63.8071 8.2318Z" fill="#777371"/>
<path fill-rule="evenodd" clip-rule="evenodd" d="M70.7126 3.8335C69.6058 3.8335 68.7903 3.99501 68.0383 4.28036C67.6676 4.42034 67.3976 4.78645 67.3976 5.21177C67.3976 5.7717 67.8371 6.19703 68.3825 6.19703C68.4938 6.19703 68.5891 6.18087 68.7268 6.13242C69.1769 5.98705 69.7117 5.89553 70.3631 5.89553C71.5493 5.89553 72.1583 6.45007 72.1583 7.45147V7.59146C71.5652 7.38687 70.9562 7.24689 70.1142 7.24689C68.1283 7.24689 66.7356 8.10293 66.7356 9.96575V9.99267C66.7356 11.6778 68.0277 12.5985 69.6111 12.5985C70.7656 12.5985 71.5652 12.1732 72.1424 11.5163V11.5325C72.1424 12.0439 72.5926 12.5339 73.281 12.5339C73.9218 12.5339 74.4408 12.0278 74.4408 11.371V7.49993C74.4408 6.35316 74.1601 5.42175 73.5352 4.78645C72.9421 4.17807 72.0048 3.8335 70.7073 3.8335H70.7126ZM72.1954 9.43813C72.1954 10.3103 71.4434 10.9295 70.3366 10.9295C69.5741 10.9295 69.0392 10.5526 69.0392 9.90115V9.86884C69.0392 9.10433 69.6641 8.68977 70.6808 8.68977C71.2634 8.68977 71.7929 8.82437 72.2007 9.0128V9.43813H72.1954Z" fill="#777371"/>
<path fill-rule="evenodd" clip-rule="evenodd" d="M83.0991 0.753906C82.4477 0.753906 81.9129 1.29768 81.9129 1.9599V5.03949C81.3568 4.36112 80.5678 3.77427 79.3127 3.77427C77.3216 3.77427 75.4999 5.33022 75.4999 8.17291V8.20522C75.4999 11.0479 77.3533 12.6039 79.3127 12.6039C80.5413 12.6039 81.341 12.017 81.9129 11.2202V11.3333C81.9129 12.0009 82.4477 12.5393 83.0991 12.5393C83.7505 12.5393 84.2853 12.0009 84.2853 11.3333V1.9599C84.2853 1.2923 83.7558 0.753906 83.0991 0.753906ZM81.9447 8.19983C81.9447 9.61041 81.0232 10.5526 79.9111 10.5526C78.7991 10.5526 77.8617 9.61041 77.8617 8.19983V8.16753C77.8617 6.73541 78.8096 5.81477 79.9111 5.81477C81.0126 5.81477 81.9447 6.75695 81.9447 8.16753V8.19983V8.19983Z" fill="#777371"/>
<path fill-rule="evenodd" clip-rule="evenodd" d="M90.9579 3.77394C89.7293 3.77394 88.9296 4.36078 88.3524 5.15222V5.03915C88.3524 4.38232 87.8229 3.83316 87.1662 3.83316C86.5095 3.83316 85.98 4.38232 85.98 5.03915V13.8687C85.98 14.5363 86.5148 15.0747 87.1662 15.0747C87.8176 15.0747 88.3524 14.531 88.3524 13.8687V11.3275C88.9138 12.0113 89.6975 12.5981 90.9579 12.5981C92.9384 12.5981 94.7707 11.0422 94.7707 8.1995V8.1672C94.7707 5.3245 92.9173 3.76855 90.9579 3.76855V3.77394ZM92.3983 8.1995C92.3983 9.63162 91.4557 10.5523 90.3542 10.5523C89.2527 10.5523 88.3154 9.61008 88.3154 8.1995V8.1672C88.3154 6.75662 89.2421 5.81443 90.3542 5.81443C91.4663 5.81443 92.3983 6.75662 92.3983 8.1672V8.1995V8.1995Z" fill="#EAEAEA"/>
<path fill-rule="evenodd" clip-rule="evenodd" d="M102.55 9.02322C103.18 9.02322 103.657 8.56559 103.657 7.86569C103.657 6.45511 102.873 4.6838 101.125 4.02697C100.691 3.86545 100.188 3.77393 99.6268 3.77393C97.1908 3.77393 95.4856 5.77135 95.4856 8.20487V8.23179C95.4856 10.8376 97.3444 12.6304 99.8598 12.6304C100.241 12.6304 100.601 12.5874 100.93 12.5174C101.655 12.3559 102.259 12.0328 102.762 11.5967C102.937 11.4352 103.08 11.1983 103.08 10.8861C103.08 10.3477 102.682 9.9331 102.158 9.9331C101.904 9.9331 101.75 9.99232 101.581 10.1215C101.38 10.2723 101.157 10.4015 100.935 10.493C100.622 10.6169 100.273 10.6922 99.8916 10.6922C98.8324 10.6922 98.0805 10.1215 97.8475 9.02322H102.55V9.02322ZM97.8157 7.51573C98.0063 6.4228 98.6471 5.70136 99.6321 5.70136C100.257 5.70136 100.728 5.98671 101.035 6.45511C101.221 6.74584 101.348 7.10117 101.396 7.51573H97.8157V7.51573Z" fill="#EAEAEA"/>
<path fill-rule="evenodd" clip-rule="evenodd" d="M112.013 6.83233C111.913 5.99244 111.637 5.29253 111.14 4.78645C110.885 4.52263 110.557 4.30728 110.165 4.15115C109.662 3.94656 109.053 3.8335 108.317 3.8335C107.21 3.8335 106.395 3.99501 105.648 4.28036C105.267 4.42034 105.007 4.78645 105.007 5.21177C105.007 5.7717 105.447 6.19703 105.987 6.19703C106.103 6.19703 106.193 6.18087 106.336 6.13242C106.781 5.98705 107.311 5.89553 107.973 5.89553C109.159 5.89553 109.768 6.45007 109.768 7.45147V7.59146C109.175 7.38687 108.566 7.24689 107.724 7.24689C105.743 7.24689 104.345 8.10293 104.345 9.96575V9.99267C104.345 11.6778 105.648 12.5985 107.221 12.5985C108.38 12.5985 109.175 12.1732 109.757 11.5163V11.5325C109.757 12.0439 110.202 12.5339 110.896 12.5339C111.537 12.5339 112.05 12.0278 112.05 11.371V7.49993C112.05 7.26842 112.034 7.04768 112.019 6.83233H112.013ZM109.8 9.43813C109.8 10.3103 109.053 10.9295 107.941 10.9295C107.173 10.9295 106.644 10.5526 106.644 9.90115V9.86884C106.644 9.10433 107.268 8.68977 108.29 8.68977C108.868 8.68977 109.397 8.82437 109.805 9.0128V9.43813H109.8Z" fill="#EAEAEA"/>
<path fill-rule="evenodd" clip-rule="evenodd" d="M46.8982 3.77427C45.659 3.77427 44.8594 4.36112 44.2821 5.15255V1.9599C44.2821 1.2923 43.7526 0.753906 43.0959 0.753906C42.4392 0.753906 41.915 1.29768 41.915 1.9599V11.3279C41.915 11.9955 42.4445 12.5339 43.0959 12.5339C43.7473 12.5339 44.2821 11.9955 44.2821 11.344V11.3279C44.8488 12.0116 45.6219 12.5985 46.8982 12.5985C48.8734 12.5985 50.7004 11.0425 50.7004 8.19983V8.16753C50.7004 5.32483 48.847 3.76889 46.8982 3.76889V3.77427ZM48.328 8.19983C48.328 9.63195 47.396 10.5526 46.2786 10.5526C45.1612 10.5526 44.2504 9.61041 44.2504 8.19983V8.16753C44.2504 6.75695 45.1718 5.81477 46.2786 5.81477C47.3854 5.81477 48.328 6.75695 48.328 8.16753V8.19983V8.19983Z" fill="white"/>
<path fill-rule="evenodd" clip-rule="evenodd" d="M55.8054 3.8335C55.1064 3.8335 54.545 4.60339 54.2008 5.42713V5.04487C54.2008 4.37727 53.666 3.83888 53.0146 3.83888C52.3632 3.83888 51.8284 4.37727 51.8284 5.04487V11.3333C51.8284 12.0009 52.3579 12.5393 53.0146 12.5393C53.6712 12.5393 54.2008 12.0009 54.2008 11.3333V9.08279C54.2008 7.36533 54.8681 6.43392 56.0755 6.14319C56.5627 6.03013 56.9651 5.65325 56.9651 5.01795C56.9651 4.3342 56.5468 3.83888 55.8054 3.83888" fill="white"/>
<path fill-rule="evenodd" clip-rule="evenodd" d="M61.6412 3.77394C59.0358 3.77394 57.0923 5.75521 57.0923 8.1995V8.2318C57.0923 10.6815 59.0199 12.6304 61.6148 12.6304C64.2096 12.6304 66.1584 10.6438 66.1584 8.1995V8.1672C66.1584 5.72291 64.2361 3.76855 61.6465 3.76855L61.6412 3.77394ZM63.8071 8.2318C63.8071 9.48087 62.9969 10.5523 61.6412 10.5523C60.2856 10.5523 59.4383 9.45395 59.4383 8.1995V8.1672C59.4383 6.91275 60.2538 5.84674 61.6148 5.84674C62.9757 5.84674 63.8124 6.94505 63.8124 8.19412V8.22642L63.8071 8.2318Z" fill="white"/>
<path fill-rule="evenodd" clip-rule="evenodd" d="M70.7126 3.8335C69.6058 3.8335 68.7903 3.99501 68.0383 4.28036C67.6676 4.42034 67.3976 4.78645 67.3976 5.21177C67.3976 5.7717 67.8371 6.19703 68.3825 6.19703C68.4938 6.19703 68.5891 6.18087 68.7268 6.13242C69.1769 5.98705 69.7117 5.89553 70.3631 5.89553C71.5493 5.89553 72.1583 6.45007 72.1583 7.45147V7.59146C71.5652 7.38687 70.9562 7.24689 70.1142 7.24689C68.1283 7.24689 66.7356 8.10293 66.7356 9.96575V9.99267C66.7356 11.6778 68.0277 12.5985 69.6111 12.5985C70.7656 12.5985 71.5652 12.1732 72.1424 11.5163V11.5325C72.1424 12.0439 72.5926 12.5339 73.281 12.5339C73.9218 12.5339 74.4408 12.0278 74.4408 11.371V7.49993C74.4408 6.35316 74.1601 5.42175 73.5352 4.78645C72.9421 4.17807 72.0048 3.8335 70.7073 3.8335H70.7126ZM72.1954 9.43813C72.1954 10.3103 71.4434 10.9295 70.3366 10.9295C69.5741 10.9295 69.0392 10.5526 69.0392 9.90115V9.86884C69.0392 9.10433 69.6641 8.68977 70.6808 8.68977C71.2634 8.68977 71.7929 8.82437 72.2007 9.0128V9.43813H72.1954Z" fill="white"/>
<path fill-rule="evenodd" clip-rule="evenodd" d="M83.0991 0.753906C82.4477 0.753906 81.9129 1.29768 81.9129 1.9599V5.03949C81.3568 4.36112 80.5678 3.77427 79.3127 3.77427C77.3216 3.77427 75.4999 5.33022 75.4999 8.17291V8.20522C75.4999 11.0479 77.3533 12.6039 79.3127 12.6039C80.5413 12.6039 81.341 12.017 81.9129 11.2202V11.3333C81.9129 12.0009 82.4477 12.5393 83.0991 12.5393C83.7505 12.5393 84.2853 12.0009 84.2853 11.3333V1.9599C84.2853 1.2923 83.7558 0.753906 83.0991 0.753906ZM81.9447 8.19983C81.9447 9.61041 81.0232 10.5526 79.9111 10.5526C78.7991 10.5526 77.8617 9.61041 77.8617 8.19983V8.16753C77.8617 6.73541 78.8096 5.81477 79.9111 5.81477C81.0126 5.81477 81.9447 6.75695 81.9447 8.16753V8.19983V8.19983Z" fill="white"/>
<path d="M14.3512 11.4623C16.9672 10.7678 18.307 9.00726 18.307 6.34761V6.21301C18.307 2.51966 15.9505 0 10.4271 0H0V16.1032C0.0529564 16.0602 0.0953215 16.0225 0.153573 15.9794C0.434242 15.7533 0.773163 15.6133 0.974397 15.3226C1.16504 15.0426 1.0962 14.8219 1.35568 14.6065C1.62046 14.3804 2.01764 14.4827 2.26653 14.3588C2.65311 14.1596 2.57897 13.9551 2.88612 13.6482C3.60633 12.916 4.41127 13.7612 5.07322 14.0735C5.51805 14.2835 6.05821 14.2081 6.47127 14.5365C6.94258 14.9188 7.11734 15.6294 7.54628 16.0494C7.65749 16.1625 7.78459 16.2647 7.91168 16.367C8.06525 16.4101 8.21883 16.4478 8.38299 16.5016C8.71132 16.6093 8.92315 16.8408 9.2197 17.0562C10.1094 17.6969 10.909 18.4291 11.7192 19.1505C11.8093 19.2313 11.9311 19.3336 12.0529 19.4466C12.1217 19.4789 12.1853 19.5112 12.2541 19.5435C12.7466 19.7804 14.6583 19.6997 14.6107 20.4373C15.5957 20.7603 16.6548 20.981 17.465 21.5948C18.5188 20.4965 19.0325 19.0051 19.0325 17.1585V17.0239C19.0325 13.7343 17.232 11.9738 14.3565 11.4677M13.1438 4.61938C13.1014 4.70014 13.0484 4.76475 12.969 4.81859C12.879 4.87781 12.7996 4.94242 12.7201 5.01241C12.5613 5.15777 12.3706 5.27083 12.1694 5.36236C12.1535 5.36236 12.1429 5.37313 12.1217 5.3839V5.40543C12.037 5.50234 11.9417 5.57233 11.8357 5.64771C11.8146 5.71231 11.7775 5.77154 11.7351 5.81999C11.7722 5.81999 11.8146 5.81999 11.8463 5.81999C11.9364 5.80384 12.0158 5.81999 12.0741 5.87921C12.0846 5.87921 12.0899 5.89536 12.0952 5.9169H12.0899V5.93844H12.0846V5.9492V5.97074C12.0211 6.13764 11.9258 6.27224 11.7934 6.37453C11.7987 6.44991 11.7722 6.5199 11.7034 6.5845C11.6663 6.62219 11.6186 6.65449 11.5657 6.68141C11.5551 6.69218 11.5392 6.69757 11.5233 6.70833C11.5551 6.80524 11.5392 6.88062 11.4756 6.95061C11.4651 6.96676 11.4386 6.97753 11.4068 6.96676C11.3538 6.95599 11.3168 6.93984 11.2744 6.90754C11.2479 6.89139 11.232 6.86985 11.2109 6.85908C11.1897 6.83755 11.1579 6.81063 11.1314 6.78909C11.2003 6.84831 11.2479 6.90754 11.2903 6.98291H11.2956C11.3168 7.01522 11.3485 7.04213 11.3803 7.06367C11.3962 7.06905 11.4068 7.08521 11.4121 7.10136C11.4174 7.17673 11.3909 7.23057 11.3274 7.27903C11.3062 7.30056 11.3009 7.33287 11.285 7.35978V7.37594C11.285 7.37594 11.3115 7.40286 11.3221 7.41362C11.3274 7.44593 11.3221 7.489 11.3115 7.52669V7.54822L11.3009 7.55899C11.3009 7.55899 11.3009 7.60206 11.285 7.6236V7.70435C11.2162 7.76896 11.1473 7.75281 11.0838 7.67743C11.0573 7.63975 11.0255 7.60206 10.9937 7.57514C11.0202 7.62898 11.0361 7.6882 11.0467 7.74743C11.0732 7.77434 11.105 7.80126 11.1314 7.82818C11.1526 8.00585 11.0944 8.1243 10.9302 8.19429C10.9143 8.20506 10.8984 8.20506 10.8878 8.21044C10.9143 8.25351 10.9196 8.30735 10.9037 8.37734C10.9037 8.40964 10.9037 8.44195 10.8931 8.47963C10.8719 8.54963 10.8296 8.59808 10.7713 8.63577C10.7713 8.63577 10.7607 8.67345 10.7448 8.68422V8.73268C10.7448 8.85112 10.6972 8.92111 10.5913 8.94265V8.96957C10.5913 8.96957 10.5648 9.01802 10.5436 9.04494V9.09878C10.5118 9.17954 10.443 9.228 10.353 9.23876C10.353 9.28183 10.353 9.32491 10.3424 9.36798C10.3053 9.41643 10.2576 9.44335 10.1941 9.44335C10.1941 9.47027 10.1782 9.50258 10.157 9.52411C10.1464 9.55641 10.1306 9.57795 10.1147 9.60487C10.0882 9.61564 10.0617 9.61564 10.0299 9.60487C10.0193 9.65871 9.98227 9.69101 9.92402 9.6964C9.92402 9.6964 9.9558 9.74485 9.96109 9.76639C9.96109 9.76639 9.96109 9.77177 9.96639 9.77715C9.98757 9.79869 10.0088 9.82561 10.0193 9.85791C10.0193 9.85791 10.0229 9.8615 10.0299 9.86868V9.88483C10.0299 9.88483 10.0352 9.90098 10.0405 9.91175C10.0511 9.91175 10.0511 9.91175 10.0511 9.92252C10.0511 9.92252 10.0405 9.93329 10.0352 9.93867C10.0352 9.93867 10.014 9.94944 10.0035 9.94944C10.157 10.0571 10.3212 10.154 10.4907 10.2348C10.5542 10.2617 10.6125 10.2994 10.6707 10.3532V10.364C10.6125 10.3425 10.5648 10.3155 10.5118 10.294C10.5171 10.3048 10.5277 10.3102 10.5436 10.3155C10.8402 10.4717 11.1473 10.6117 11.4545 10.7409C11.4545 10.7409 11.4756 10.7409 11.4756 10.7516C11.5657 10.7786 11.6398 10.8216 11.7087 10.8809C11.7669 10.9024 11.8305 10.9347 11.8887 10.9616C11.8887 10.9616 11.8887 10.9616 11.8993 10.9616C11.9734 10.9616 12.0158 10.9993 12.0317 11.0585H12.037C12.037 11.0585 12.0317 11.0908 12.0105 11.0962C11.9734 11.107 11.947 11.1177 11.9046 11.1177C11.8463 11.1877 11.7722 11.22 11.6769 11.2147C11.6398 11.2147 11.5974 11.2147 11.5604 11.2147C11.5604 11.2254 11.5604 11.2254 11.5445 11.2362C11.5445 11.2362 11.5339 11.2362 11.5339 11.247V11.2739C11.5339 11.2739 11.5551 11.29 11.571 11.3008C11.571 11.3008 11.571 11.3044 11.571 11.3116C11.571 11.3116 11.571 11.3223 11.5604 11.3277C11.5233 11.3277 11.4862 11.3277 11.4492 11.3169C11.4227 11.3169 11.4068 11.3169 11.3803 11.3169C11.3644 11.3277 11.3485 11.3385 11.3327 11.3493C11.3538 11.3816 11.375 11.4031 11.3856 11.4354C11.3909 11.4515 11.3909 11.4569 11.3803 11.4623C11.3433 11.4623 11.3009 11.4408 11.2638 11.4192L11.2532 11.43C11.2532 11.43 11.232 11.4623 11.2162 11.4677C11.1738 11.5215 11.1155 11.5377 11.0414 11.5377C11.0467 11.5377 11.0467 11.5485 11.052 11.5592C11.052 11.5592 11.052 11.57 11.0573 11.5754V11.5861C11.0573 11.5861 11.0679 11.5969 11.0679 11.6077V11.6184H11.0626C11.0573 11.6184 11.052 11.6184 11.0467 11.6184C11.0308 11.6507 11.0149 11.6561 10.9832 11.6292C10.9779 11.6292 10.9726 11.6184 10.9673 11.6184C10.9673 11.6292 10.9673 11.64 10.9673 11.6507C10.962 11.6507 10.9567 11.6615 10.9461 11.6669L10.9302 11.6777C10.9302 11.7154 10.9196 11.7584 10.8984 11.7961C10.8984 11.8123 10.8878 11.8284 10.8666 11.8392V11.85C10.8666 11.85 10.8666 11.8607 10.8561 11.8769C10.8614 11.893 10.8561 11.9038 10.8508 11.9146C10.8508 11.9253 10.8508 11.9415 10.8508 11.9576C10.8455 11.9684 10.8402 11.9684 10.8349 11.9846H10.8296C10.8296 11.9846 10.7925 11.9953 10.7766 11.9953C10.766 12.0276 10.766 12.0653 10.766 12.0976C10.766 12.1191 10.766 12.1407 10.7554 12.1515C10.7237 12.1622 10.6972 12.1515 10.6707 12.1353V12.1245C10.5913 12.0707 10.5224 12.0007 10.4748 11.9146C10.4377 11.8607 10.4006 11.8123 10.3477 11.7638C10.3371 11.7638 10.3318 11.7477 10.3212 11.7423C10.1517 11.57 9.98228 11.3923 9.80752 11.22C9.77045 11.1931 9.73868 11.1554 9.7069 11.1177C9.64335 11.037 9.57981 10.9455 9.51626 10.8647C9.53744 10.9078 9.54803 10.9616 9.53744 11.0101C9.53744 11.0101 9.52685 11.0101 9.51626 11.0101C9.4633 10.9562 9.42623 10.8916 9.40505 10.8055C9.38916 10.7463 9.36798 10.687 9.33621 10.6278C9.28325 10.5847 9.2197 10.5578 9.12968 10.5417C9.07672 10.574 9.03436 10.6224 8.9867 10.6709C8.93374 10.6816 8.87549 10.6816 8.82253 10.6709C8.76957 10.7624 8.68484 10.7947 8.57893 10.7732C8.51538 10.8539 8.43595 10.8916 8.34592 10.8701C8.33004 10.8809 8.31415 10.8862 8.29826 10.897C8.28238 10.897 8.27708 10.9078 8.26649 10.9132C8.19235 10.9562 8.11821 10.9562 8.04937 10.9239H8.03348C7.92757 11.0047 7.81636 11.0316 7.69456 10.9778C7.68926 10.9778 7.68397 10.967 7.67867 10.9616C7.67867 10.9616 7.62042 10.9831 7.58865 10.9831H7.57276C7.49333 11.0478 7.4033 11.0693 7.29739 11.0531C7.2815 11.0693 7.26032 11.0908 7.22854 11.107C7.17029 11.1447 7.10674 11.1447 7.04849 11.1285C7.02201 11.1447 6.98494 11.1554 6.94258 11.1662C6.87903 11.177 6.81019 11.177 6.74664 11.1608H6.74135C6.68309 11.2254 6.59836 11.2523 6.48186 11.2416C6.45009 11.2308 6.42361 11.2308 6.39183 11.2308C6.36536 11.2093 6.33888 11.1877 6.31769 11.1662H6.30181C6.27003 11.1823 6.23296 11.1824 6.19589 11.177C6.16412 11.177 6.13235 11.1662 6.10057 11.15C6.0635 11.3223 5.99996 11.4838 5.90993 11.6346C5.84109 11.7477 5.77224 11.8446 5.68222 11.9361C5.63985 11.9792 5.59219 11.9899 5.54983 11.9576V11.9253C5.60808 11.7369 5.63985 11.5377 5.65044 11.3331C5.65044 11.2793 5.66104 11.2254 5.67692 11.177C5.56571 11.3223 5.42803 11.4515 5.26916 11.5485C5.2215 11.5861 5.16325 11.5861 5.11029 11.5538V11.5269C5.11029 11.5269 5.12088 11.5162 5.12618 11.5108C5.13147 11.5108 5.13677 11.5108 5.14206 11.5C5.21091 11.3223 5.28505 11.15 5.35918 10.967C5.25857 11.037 5.16325 11.0854 5.05204 11.1177C4.9726 11.1339 4.89846 11.1339 4.82962 11.0962C4.82962 11.0962 4.82962 11.0854 4.82962 11.0801C4.91965 10.9939 4.98849 10.897 5.03615 10.7893C5.03615 10.7839 5.04674 10.7732 5.05204 10.7678H5.00438C4.94083 10.7678 4.86669 10.7678 4.79255 10.7516C4.79255 10.7516 4.77666 10.7516 4.77137 10.7409C4.75548 10.7409 4.74489 10.7409 4.72371 10.7301C4.77666 10.6278 4.87728 10.5471 5.02026 10.4824C4.95142 10.4771 4.89317 10.4555 4.83492 10.4232L4.78726 10.3909L4.79785 10.3748C4.83492 10.3694 4.86669 10.364 4.89846 10.3478C5.0944 10.294 5.26916 10.2025 5.43332 10.0894C5.4598 10.0787 5.47039 10.0625 5.49158 10.0517C5.50217 10.041 5.52335 10.0248 5.54453 10.0087C5.5816 9.96559 5.62397 9.91713 5.67163 9.87406C5.68751 9.85253 5.71399 9.82561 5.74047 9.80407C5.80931 9.72331 5.89934 9.65871 5.98937 9.59948C6.0635 9.56718 6.13764 9.54026 6.21178 9.53488C6.39713 9.53488 6.57718 9.49181 6.75194 9.43797C6.89492 9.3949 7.0432 9.36259 7.19147 9.33567C7.26561 9.31952 7.33446 9.30875 7.4086 9.28722C7.44567 9.27107 7.48273 9.2603 7.5251 9.24415C7.5198 9.23338 7.51451 9.22261 7.50921 9.21723C7.50921 9.20108 7.49862 9.18493 7.49862 9.16339C7.48803 9.13647 7.48273 9.09878 7.48273 9.06648C7.47214 9.07725 7.46685 9.0934 7.46685 9.09878C7.46155 9.10417 7.46155 9.11493 7.46155 9.13109V9.14724H7.45096C7.45096 9.14724 7.45096 9.15262 7.44037 9.15262V9.14724C7.4033 9.14724 7.38212 9.13109 7.35564 9.09878C7.35564 9.08263 7.33975 9.06109 7.33446 9.04494C7.32387 9.02341 7.32387 9.00187 7.31327 8.97495C7.30798 8.94803 7.30798 8.93188 7.30268 8.92111C7.30268 8.78652 7.35564 8.70576 7.45626 8.6573C7.47744 8.64654 7.50392 8.625 7.54628 8.60885C7.59394 8.58731 7.6416 8.57116 7.69456 8.56039C7.7687 8.54963 7.83225 8.56039 7.8905 8.58731C7.95934 8.61962 8.02819 8.61962 8.08114 8.58731C8.1288 8.55501 8.17646 8.52809 8.21883 8.51194C8.2559 8.4904 8.28238 8.47425 8.30885 8.46348C8.43595 8.31273 8.53657 8.15122 8.616 7.96816C8.69544 7.77434 8.77487 7.57514 8.83842 7.37594C8.91256 7.17673 8.9867 6.98291 9.06613 6.78371C9.11909 6.67603 9.16675 6.57374 9.21441 6.46067C9.21441 6.44991 9.23559 6.44452 9.24618 6.43375C9.26207 6.40683 9.28325 6.3853 9.30973 6.35838C9.40505 6.27224 9.49508 6.18071 9.5851 6.0838C9.75986 5.90613 9.91873 5.7177 10.0829 5.53464C10.2259 5.36236 10.353 5.19546 10.4748 5.00702C10.5754 4.84551 10.6707 4.68937 10.7607 4.52247C10.8349 4.39326 10.9037 4.25866 10.9832 4.13483C11.0096 4.09176 11.0255 4.05946 11.0679 4.03254H11.0838L11.0944 4.03792C11.1155 4.06484 11.1261 4.09176 11.1261 4.13483C11.1261 4.13483 11.1261 4.16713 11.142 4.21021C11.1526 4.25328 11.1367 4.31788 11.0997 4.41479C11.1897 4.31788 11.2532 4.23713 11.3009 4.18329C11.428 4.02177 11.5763 3.88179 11.7457 3.76334C11.7669 3.74719 11.7934 3.72566 11.8305 3.72027C11.8357 3.71489 11.8463 3.71489 11.8622 3.7095C11.8622 3.7095 11.8622 3.70412 11.8781 3.69874C11.8887 3.69874 11.8887 3.69874 11.8887 3.69874C11.8993 3.7095 11.8993 3.72027 11.8993 3.73104V3.74181C11.8305 3.94101 11.7404 4.12406 11.6133 4.30712L11.608 4.31788C11.608 4.31788 11.6133 4.31788 11.6186 4.31788C11.6451 4.28558 11.6822 4.24789 11.7192 4.21559C11.8834 4.05946 12.0529 3.91948 12.2382 3.79026C12.3018 3.74181 12.3706 3.7095 12.4447 3.68797V3.6772H12.4553C12.4553 3.6772 12.4765 3.69874 12.4818 3.7095C12.4765 3.7095 12.4712 3.7095 12.4659 3.71489C12.4659 3.71489 12.4677 3.71848 12.4712 3.72566C12.4236 3.8764 12.3494 4.01639 12.2541 4.14022V4.15098C12.217 4.18867 12.1747 4.23713 12.1323 4.27481C12.0793 4.32327 12.0264 4.37711 11.9734 4.43095C11.9417 4.47402 11.9099 4.50632 11.8781 4.54401C11.9152 4.51709 11.9523 4.4794 11.9946 4.45248C12.1005 4.36096 12.2064 4.2802 12.3177 4.19405C12.45 4.08638 12.5983 4.00023 12.7572 3.95178C12.789 3.95178 12.8207 3.95178 12.8419 3.97331C12.8419 3.97331 12.8454 3.9769 12.8525 3.98408H12.8419C12.8207 4.07561 12.7678 4.16175 12.6989 4.23713C12.6778 4.25328 12.6619 4.2802 12.6354 4.29096L12.2965 4.66245L12.0741 4.86704C12.0741 4.86704 12.0529 4.88319 12.0317 4.89396C11.9946 4.92626 11.9575 4.95318 11.9152 4.98549C11.9152 4.98549 11.894 4.99625 11.8887 5.00702C11.8622 5.02856 11.8305 5.05009 11.8093 5.07163C11.8357 5.05548 11.8622 5.03933 11.894 5.02317C11.9099 5.02317 11.9205 5.01241 11.9311 5.01241H11.9364C12.0688 4.9478 12.2011 4.89396 12.3388 4.83474C12.4024 4.80782 12.4659 4.7809 12.5295 4.75936C12.6619 4.70014 12.7996 4.65707 12.9425 4.63015C13.0273 4.59246 13.1067 4.56554 13.1914 4.53324C13.1967 4.53862 13.202 4.54401 13.2179 4.54939C13.2179 4.54939 13.1808 4.59246 13.1544 4.60861" fill="white"/>
<path d="M29.1313 0H20.2399V23C20.6954 22.9838 21.1243 22.8923 21.3732 22.6554C21.871 22.187 22.1622 21.4871 22.5276 20.9326C22.9778 20.2434 23.6503 19.7643 24.2117 19.1936C24.5506 18.849 24.6671 18.3322 25.0166 17.9714C25.2867 17.6915 25.6097 17.5353 25.8268 17.2123C26.0545 16.8731 26.6847 16.184 26.8065 15.7802L26.9124 15.8394V15.7533H29.4279C35.216 15.7533 38.5205 13.0613 38.5205 8.07584V7.94125C38.5205 2.89115 35.5443 0 29.1366 0" fill="white"/>
<path d="M43.2918 21.0508V17.9659H42.2115C42.1798 17.9659 42.1533 17.9551 42.1321 17.9336C42.1109 17.912 42.095 17.8851 42.095 17.8528C42.095 17.8205 42.1056 17.7936 42.1321 17.772C42.1533 17.7505 42.1798 17.7397 42.2115 17.7397H44.6211C44.6528 17.7397 44.6793 17.7505 44.7005 17.772C44.7217 17.7936 44.7323 17.8205 44.7323 17.8528C44.7323 17.8851 44.7217 17.912 44.7005 17.9336C44.6793 17.9551 44.6528 17.9659 44.6211 17.9659H43.5407V21.0508C43.5407 21.0831 43.5249 21.1101 43.5037 21.137C43.4772 21.1639 43.4507 21.1747 43.4189 21.1747C43.3872 21.1747 43.3607 21.1585 43.3342 21.137C43.3077 21.1101 43.2971 21.0831 43.2971 21.0508H43.2918Z" fill="#70706F" stroke="white"/>
<path d="M49.1647 21.1585C49.1329 21.1585 49.1065 21.1478 49.08 21.1208C49.0535 21.0939 49.0429 21.067 49.0429 21.0347V17.8636C49.0429 17.8313 49.0535 17.8044 49.08 17.7774C49.1065 17.7505 49.1329 17.7397 49.1647 17.7397H51.3412C51.373 17.7397 51.3995 17.7505 51.4206 17.772C51.4418 17.7936 51.4524 17.8205 51.4524 17.8528C51.4524 17.8851 51.4418 17.912 51.4206 17.9336C51.3995 17.9551 51.373 17.9659 51.3412 17.9659H49.2918V19.3118H51.1241C51.1559 19.3118 51.1823 19.3226 51.2088 19.3441C51.23 19.3657 51.2406 19.3926 51.2406 19.4249C51.2406 19.4572 51.23 19.4841 51.2088 19.5057C51.1876 19.5272 51.1612 19.5433 51.1241 19.5433H49.2918V20.9216H51.3677C51.3995 20.9216 51.4259 20.9324 51.4471 20.9539C51.4683 20.9755 51.4789 21.0078 51.4789 21.0347C51.4789 21.0616 51.4683 21.0939 51.4471 21.1154C51.4259 21.137 51.3995 21.1477 51.3677 21.1477H49.1647V21.1585Z" fill="#70706F" stroke="white"/>
<path d="M57.3571 21.2179C56.8805 21.2179 56.478 21.0456 56.1602 20.7064C55.8425 20.3673 55.6783 19.9473 55.6783 19.452V19.4412C55.6783 18.9513 55.8372 18.5367 56.1602 18.1868C56.4833 17.8422 56.8805 17.6699 57.3624 17.6699C57.6218 17.6699 57.8496 17.7076 58.0402 17.7938C58.2308 17.8745 58.4162 17.993 58.5962 18.1491C58.628 18.1814 58.6439 18.2137 58.6439 18.2514C58.6439 18.2837 58.628 18.316 58.6068 18.3429C58.5804 18.3698 58.5486 18.3806 58.5168 18.3806C58.485 18.3806 58.4533 18.3698 58.4321 18.3483C58.109 18.0522 57.7542 17.9014 57.3571 17.9014C56.9599 17.9014 56.6157 18.0522 56.3456 18.3429C56.0755 18.639 55.9378 18.9997 55.9378 19.4305V19.4412C55.9378 19.8773 56.0755 20.2434 56.3509 20.5395C56.6263 20.8357 56.9652 20.9864 57.3624 20.9864C57.5848 20.9864 57.7807 20.9487 57.9555 20.868C58.1249 20.7926 58.2944 20.6688 58.4639 20.5072C58.4903 20.4803 58.5168 20.4695 58.5486 20.4695C58.5804 20.4695 58.6068 20.4803 58.6333 20.5072C58.6598 20.5342 58.6704 20.5611 58.6704 20.5934C58.6704 20.6257 58.6598 20.658 58.6333 20.6795C58.448 20.8572 58.2573 20.9864 58.0561 21.0779C57.8548 21.1695 57.6218 21.2125 57.3571 21.2125V21.2179Z" fill="#70706F" stroke="white"/>
<path d="M62.9492 21.0509V17.8367C62.9492 17.8044 62.9598 17.7721 62.9863 17.7506C63.0128 17.7237 63.0392 17.7129 63.071 17.7129C63.1028 17.7129 63.1293 17.729 63.1557 17.7506C63.1822 17.7775 63.1928 17.8044 63.1928 17.8367V19.3119H65.3481V17.8367C65.3481 17.8044 65.3587 17.7721 65.3852 17.7506C65.4117 17.7237 65.4382 17.7129 65.4699 17.7129C65.5017 17.7129 65.5282 17.729 65.5547 17.7506C65.5811 17.7775 65.5917 17.8044 65.5917 17.8367V21.0509C65.5917 21.0832 65.5811 21.1101 65.5547 21.137C65.5282 21.164 65.5017 21.1747 65.4699 21.1747C65.4382 21.1747 65.4117 21.1586 65.3852 21.137C65.3587 21.1101 65.3481 21.0832 65.3481 21.0509V19.5542H63.1928V21.0509C63.1928 21.0832 63.1822 21.1101 63.1557 21.137C63.1293 21.164 63.1028 21.1747 63.071 21.1747C63.0392 21.1747 63.0128 21.1586 62.9863 21.137C62.9598 21.1101 62.9492 21.0832 62.9492 21.0509Z" fill="#70706F" stroke="white"/>
<path d="M70.1725 21.0563V17.8475C70.1725 17.8098 70.1831 17.7775 70.2096 17.756C70.2361 17.729 70.2625 17.7183 70.2943 17.7183H70.3314C70.3737 17.7183 70.4161 17.7398 70.4585 17.7883L72.7303 20.7225V17.8313C72.7303 17.7936 72.7409 17.7667 72.7621 17.7452C72.7833 17.7237 72.815 17.7129 72.8468 17.7129C72.8786 17.7129 72.9104 17.7237 72.9315 17.7452C72.9527 17.7667 72.9633 17.799 72.9633 17.8313V21.0617C72.9633 21.0886 72.9527 21.1155 72.9315 21.137C72.9104 21.1586 72.8892 21.1694 72.8574 21.1694H72.8362C72.7992 21.1694 72.7568 21.1424 72.7091 21.0832L70.3949 18.0951V21.0455C70.3949 21.0832 70.3843 21.1101 70.3632 21.1317C70.342 21.1532 70.3102 21.1694 70.2784 21.1694C70.2467 21.1694 70.2149 21.1586 70.1937 21.1317C70.1725 21.1101 70.1619 21.0778 70.1619 21.0455L70.1725 21.0563Z" fill="#70706F" stroke="white"/>
<path d="M80.3084 20.6957C79.9906 21.0456 79.5829 21.2179 79.0851 21.2179C78.5873 21.2179 78.1795 21.0456 77.8671 20.701C77.5546 20.3565 77.3958 19.9419 77.3958 19.4574V19.4466C77.3958 18.962 77.5546 18.5475 77.8724 18.1975C78.1901 17.8476 78.5979 17.6753 79.0957 17.6753C79.5934 17.6753 80.0012 17.8476 80.3137 18.1921C80.6261 18.5367 80.785 18.9513 80.785 19.4358V19.4466C80.785 19.9311 80.6261 20.3457 80.3084 20.6957ZM78.0683 20.5395C78.3437 20.841 78.6879 20.9918 79.0957 20.9918C79.5034 20.9918 79.8476 20.841 80.1177 20.5449C80.3878 20.2488 80.5255 19.8881 80.5255 19.4574V19.4466C80.5255 19.0213 80.3878 18.6552 80.1124 18.3537C79.837 18.0522 79.4928 17.9014 79.0851 17.9014C78.6773 17.9014 78.3331 18.0522 78.063 18.3483C77.7929 18.6444 77.6552 19.0051 77.6552 19.4358V19.4466C77.6552 19.8719 77.7929 20.238 78.0683 20.5395Z" fill="#70706F" stroke="white"/>
<path d="M85.2015 21.0294V17.8367C85.2015 17.8044 85.2121 17.7721 85.2386 17.7506C85.2651 17.7237 85.2916 17.7129 85.3233 17.7129C85.3551 17.7129 85.3816 17.729 85.4081 17.7506C85.4345 17.7775 85.4451 17.8044 85.4451 17.8367V20.9217H87.3304C87.3622 20.9217 87.3886 20.9325 87.4098 20.954C87.431 20.9755 87.4416 21.0078 87.4416 21.0348C87.4416 21.0617 87.431 21.094 87.4098 21.1155C87.3886 21.137 87.3622 21.1478 87.3304 21.1478H85.3233C85.2916 21.1478 85.2651 21.137 85.2386 21.1101C85.2121 21.0832 85.2015 21.0563 85.2015 21.024V21.0294Z" fill="#70706F" stroke="white"/>
<path d="M94.3206 20.6957C94.0029 21.0456 93.5951 21.2179 93.0973 21.2179C92.5995 21.2179 92.1918 21.0456 91.8793 20.701C91.5669 20.3565 91.408 19.9419 91.408 19.4574V19.4466C91.408 18.962 91.5669 18.5475 91.8846 18.1975C92.2024 17.8476 92.6101 17.6753 93.1079 17.6753C93.6057 17.6753 94.0135 17.8476 94.3259 18.1921C94.6384 18.5367 94.7972 18.9513 94.7972 19.4358V19.4466C94.7972 19.9311 94.6384 20.3457 94.3206 20.6957ZM92.0806 20.5395C92.3559 20.841 92.7002 20.9918 93.1079 20.9918C93.5157 20.9918 93.8599 20.841 94.13 20.5449C94.4001 20.2488 94.5377 19.8881 94.5377 19.4574V19.4466C94.5377 19.0213 94.4001 18.6552 94.1247 18.3537C93.8493 18.0522 93.5051 17.9014 93.0973 17.9014C92.6896 17.9014 92.3453 18.0522 92.0753 18.3483C91.8052 18.6444 91.6675 19.0051 91.6675 19.4358V19.4466C91.6675 19.8719 91.8052 20.238 92.0806 20.5395Z" fill="#70706F" stroke="white"/>
<path d="M100.76 21.2179C100.241 21.2179 99.8334 21.051 99.5262 20.7118C99.2191 20.3726 99.0655 19.9527 99.0655 19.4574V19.4466C99.0655 18.9674 99.2191 18.5529 99.5315 18.2029C99.8439 17.853 100.241 17.6753 100.734 17.6753C101.168 17.6753 101.554 17.8045 101.883 18.0575C101.915 18.0845 101.93 18.1168 101.93 18.1598C101.93 18.1975 101.92 18.2245 101.893 18.2514C101.867 18.2729 101.84 18.2891 101.809 18.2891C101.782 18.2891 101.756 18.2783 101.734 18.2568C101.443 18.0252 101.104 17.9068 100.723 17.9068C100.321 17.9068 99.9869 18.0575 99.7274 18.359C99.4627 18.6605 99.3303 19.0213 99.3303 19.4412V19.452C99.3303 19.9042 99.4627 20.2757 99.7221 20.5664C99.9816 20.8572 100.336 21.0025 100.776 21.0025C100.977 21.0025 101.173 20.9649 101.364 20.8895C101.554 20.8195 101.713 20.7226 101.846 20.6095V19.6243H100.797C100.765 19.6243 100.739 19.6135 100.712 19.5866C100.691 19.565 100.681 19.5381 100.681 19.5058C100.681 19.4735 100.691 19.4466 100.712 19.4197C100.734 19.3981 100.76 19.3874 100.797 19.3874H101.962C101.994 19.3874 102.02 19.3981 102.047 19.4251C102.073 19.452 102.084 19.4789 102.084 19.5166V20.6364C102.084 20.6849 102.058 20.7333 101.999 20.7818C101.629 21.0725 101.216 21.2233 100.76 21.2233V21.2179Z" fill="#70706F" stroke="white"/>
<path d="M106.585 21.0509V17.8367C106.585 17.8044 106.596 17.7721 106.622 17.7506C106.649 17.7237 106.675 17.7129 106.712 17.7129C106.749 17.7129 106.776 17.729 106.802 17.7506C106.829 17.7775 106.84 17.8044 106.84 17.8367V21.0509C106.84 21.0832 106.829 21.1101 106.802 21.137C106.776 21.164 106.749 21.1747 106.712 21.1747C106.675 21.1747 106.649 21.1586 106.622 21.137C106.596 21.1101 106.585 21.0832 106.585 21.0509Z" fill="#70706F" stroke="white"/>
<path d="M111.563 21.1585C111.531 21.1585 111.505 21.1478 111.478 21.1208C111.452 21.0939 111.441 21.067 111.441 21.0347V17.8636C111.441 17.8313 111.452 17.8044 111.478 17.7774C111.505 17.7505 111.531 17.7397 111.563 17.7397H113.74C113.771 17.7397 113.798 17.7505 113.819 17.772C113.84 17.7936 113.851 17.8205 113.851 17.8528C113.851 17.8851 113.84 17.912 113.819 17.9336C113.798 17.9551 113.771 17.9659 113.74 17.9659H111.69V19.3118H113.523C113.554 19.3118 113.581 19.3226 113.607 19.3441C113.628 19.3657 113.639 19.3926 113.639 19.4249C113.639 19.4572 113.628 19.4841 113.607 19.5057C113.586 19.5272 113.56 19.5433 113.523 19.5433H111.69V20.9216H113.766C113.798 20.9216 113.824 20.9324 113.846 20.9539C113.867 20.9755 113.877 21.0078 113.877 21.0347C113.877 21.0616 113.867 21.0939 113.846 21.1154C113.824 21.137 113.798 21.1477 113.766 21.1477H111.563V21.1585Z" fill="#70706F" stroke="white"/>
<path d="M119.369 21.2071C118.898 21.2071 118.469 21.0456 118.087 20.7279C118.056 20.701 118.04 20.6687 118.04 20.631C118.04 20.5987 118.05 20.5664 118.077 20.5449C118.103 20.518 118.13 20.5072 118.167 20.5072C118.199 20.5072 118.225 20.518 118.252 20.5341C118.575 20.8302 118.956 20.981 119.39 20.981C119.639 20.981 119.846 20.9164 120.004 20.7872C120.163 20.658 120.243 20.4964 120.243 20.3026V20.2919C120.243 20.1034 120.174 19.9527 120.042 19.8396C119.909 19.7265 119.655 19.635 119.284 19.5596C118.882 19.4789 118.591 19.3604 118.41 19.2097C118.236 19.0589 118.146 18.8544 118.146 18.5905V18.5798C118.146 18.3267 118.246 18.1114 118.453 17.9391C118.659 17.7668 118.919 17.6807 119.226 17.6807C119.634 17.6807 119.994 17.7991 120.301 18.0306C120.338 18.0575 120.354 18.0952 120.354 18.1329C120.354 18.1706 120.343 18.1975 120.317 18.2244C120.29 18.2514 120.264 18.2621 120.232 18.2621C120.2 18.2621 120.174 18.2514 120.153 18.2298C119.877 18.0145 119.565 17.9068 119.221 17.9068C118.977 17.9068 118.776 17.9714 118.628 18.0952C118.474 18.2191 118.4 18.3752 118.4 18.5529V18.5636C118.4 18.7574 118.469 18.9082 118.601 19.0213C118.739 19.1343 118.998 19.2312 119.38 19.312C119.766 19.3927 120.052 19.5112 120.222 19.6566C120.396 19.8019 120.486 20.0065 120.486 20.2542V20.2649C120.486 20.5395 120.38 20.7656 120.174 20.9379C119.967 21.1156 119.697 21.2017 119.369 21.2017V21.2071Z" fill="#70706F" stroke="white"/>
<path fill-rule="evenodd" clip-rule="evenodd" d="M120.719 10.6603L118.479 7.59684L119.353 6.83232L120.354 5.96013C120.682 5.64787 120.894 5.32483 120.894 4.91566C120.894 4.36112 120.492 3.83349 119.851 3.83349C119.427 3.83349 119.147 4.04347 118.802 4.37188L116.25 6.83232L115.837 7.23073V1.9599C115.837 1.2923 115.302 0.753906 114.651 0.753906C113.999 0.753906 113.464 1.29768 113.464 1.9599V11.3279C113.464 11.9955 113.994 12.5339 114.651 12.5339C115.307 12.5339 115.837 11.9955 115.837 11.3279V9.9496L116.79 9.07741L118.866 11.9793C119.147 12.3777 119.427 12.5393 119.893 12.5393C120.486 12.5393 121 12.0978 121 11.4463C121 11.1717 120.91 10.9564 120.709 10.6657" fill="#EAEAEA"/>
</g>
</svg>
