<svg width="128" height="28" viewBox="0 0 128 28" fill="none" xmlns="http://www.w3.org/2000/svg">
<circle opacity="0.4" cx="7" cy="10" r="3" fill="#E7E7E7"/>
<circle opacity="0.4" cx="3" cy="15" r="3" fill="#E7E7E7"/>
<circle opacity="0.4" cx="17" cy="10" r="3" fill="#E7E7E7"/>
<circle opacity="0.4" cx="12" cy="15" r="3" fill="#E7E7E7"/>
<circle opacity="0.4" cx="8" cy="20" r="3" fill="#E7E7E7"/>
<circle opacity="0.4" cx="12" cy="25" r="3" fill="#E7E7E7"/>
<circle opacity="0.4" cx="16" cy="20" r="3" fill="#E7E7E7"/>
<circle opacity="0.4" cx="21" cy="16" r="3" fill="#E7E7E7"/>
<g opacity="0.4">
<path opacity="0.878" fill-rule="evenodd" clip-rule="evenodd" d="M15.0713 0C15.9285 0 16.7856 0 17.6428 0C17.8312 2.09204 17.4026 4.02061 16.3571 5.78571C15.6441 5.82228 15.0013 6.03657 14.4285 6.42857C13.9999 6.42857 13.7856 6.64285 13.7856 7.07142C12.4999 7.07142 11.2142 7.07142 9.92848 7.07142C9.92848 6.64285 9.71422 6.42857 9.28563 6.42857C9.28563 5.99999 9.07136 5.78571 8.64277 5.78571C8.10187 4.57765 7.88761 3.29194 7.99991 1.92857C9.27502 1.85349 10.3465 2.28206 11.2142 3.21428C12.5283 2.10894 13.814 1.03751 15.0713 0Z" fill="#E7E7E7"/>
<path opacity="0.802" fill-rule="evenodd" clip-rule="evenodd" d="M28.6835 6.18311C29.281 6.18311 29.8786 6.18311 30.4762 6.18311C30.3778 7.98681 30.4774 9.77955 30.775 11.5613C33.9346 9.71196 36.5241 10.3095 38.5434 13.354C39.8017 20.2655 37.1126 22.7554 30.4762 20.8237C29.7583 20.2844 29.2602 19.5872 28.9822 18.7322C28.6837 14.5539 28.5841 10.3708 28.6835 6.18311ZM32.2689 12.7564C36.7119 12.6765 38.0067 14.6684 36.1531 18.7322C32.0346 20.5461 30.2419 19.1517 30.775 14.5491C31.3994 14.0272 31.8974 13.4297 32.2689 12.7564Z" fill="#ECECEC"/>
<path opacity="0.795" fill-rule="evenodd" clip-rule="evenodd" d="M86.6483 6.18311C87.2459 6.18311 87.8434 6.18311 88.441 6.18311C88.5402 10.3708 88.441 14.5539 88.1422 18.7322C87.2285 20.7841 85.6348 21.78 83.3616 21.72C81.68 21.7753 80.2859 21.1777 79.1786 19.9273C77.9141 17.1717 78.0139 14.4826 79.4774 11.8601C81.7159 10.0268 84.007 9.92715 86.3495 11.5613C86.6471 9.77955 86.7469 7.98681 86.6483 6.18311ZM81.8677 12.7564C86.1929 12.7968 87.4873 14.7887 85.7519 18.7322C81.6334 20.5461 79.8407 19.1517 80.3737 14.5491C80.7909 13.8377 81.2886 13.2401 81.8677 12.7564Z" fill="#E0E0E0"/>
<path opacity="0.735" fill-rule="evenodd" clip-rule="evenodd" d="M90.8315 6.78076C91.4291 6.78076 92.0267 6.78076 92.6243 6.78076C92.6243 7.57753 92.6243 8.37431 92.6243 9.17106C92.0267 9.17106 91.4291 9.17106 90.8315 9.17106C90.8315 8.37431 90.8315 7.57753 90.8315 6.78076Z" fill="#E0E0E0"/>
<path opacity="0.793" fill-rule="evenodd" clip-rule="evenodd" d="M127.881 11.5612C127.881 11.9596 127.881 12.3579 127.881 12.7563C126.885 12.7563 125.889 12.7563 124.893 12.7563C124.794 14.7582 124.894 16.7501 125.192 18.7321C125.987 19.3788 126.883 19.7771 127.881 19.9272C127.881 20.5248 127.881 21.1224 127.881 21.72C126.085 21.8676 124.591 21.27 123.399 19.9272C123.101 17.5452 123.001 15.1549 123.1 12.7563C122.503 12.7563 121.905 12.7563 121.308 12.7563C121.308 12.1588 121.308 11.5612 121.308 10.9636C121.905 10.9636 122.503 10.9636 123.1 10.9636C123.1 9.76847 123.1 8.57332 123.1 7.37817C123.698 7.37817 124.295 7.37817 124.893 7.37817C124.893 8.57332 124.893 9.76847 124.893 10.9636C125.964 10.8835 126.959 11.0827 127.881 11.5612Z" fill="#E0E0E0"/>
<path opacity="0.829" fill-rule="evenodd" clip-rule="evenodd" d="M43.6229 10.3659C48.7358 9.70484 51.1261 11.896 50.7938 16.9392C47.998 16.8401 45.2093 16.9397 42.4277 17.238C43.3452 18.6458 44.64 19.5421 46.312 19.9271C47.535 19.2641 48.8297 18.8657 50.1962 18.7319C50.2978 19.522 50.0986 20.2191 49.5986 20.8234C42.7588 22.8379 39.8706 20.3481 40.9338 13.3538C41.5463 12.0469 42.4427 11.0509 43.6229 10.3659ZM44.818 12.1586C46.6617 12.1837 48.056 12.9804 49.001 14.5489C46.8366 15.2413 44.6455 15.3409 42.4277 14.8477C42.9401 13.6413 43.7369 12.7449 44.818 12.1586Z" fill="#ECECEC"/>
<path opacity="0.885" fill-rule="evenodd" clip-rule="evenodd" d="M52.5864 10.366C54.5342 10.7935 56.5261 10.7935 58.5622 10.366C58.5622 10.9635 58.5622 11.5611 58.5622 12.1587C57.1717 12.2571 55.877 12.6555 54.6779 13.3538C54.4788 15.9433 54.2795 18.5328 54.0803 21.1223C53.833 21.3956 53.5342 21.5948 53.184 21.7199C52.5886 17.9561 52.3894 14.1714 52.5864 10.366Z" fill="#ECECEC"/>
<path opacity="0.885" fill-rule="evenodd" clip-rule="evenodd" d="M60.355 10.366C62.3031 10.7935 64.2948 10.7935 66.3308 10.366C66.3308 10.9635 66.3308 11.5611 66.3308 12.1587C64.9402 12.2571 63.6459 12.6555 62.4465 13.3538C62.2475 15.9433 62.0479 18.5328 61.849 21.1223C61.6016 21.3956 61.3028 21.5948 60.9526 21.7199C60.3574 17.9561 60.1578 14.1714 60.355 10.366Z" fill="#ECECEC"/>
<path opacity="0.792" fill-rule="evenodd" clip-rule="evenodd" d="M66.9285 10.3661C67.6306 10.2352 68.2282 10.4344 68.7212 10.9636C69.9803 13.2826 71.0762 15.6729 72.0078 18.1345C73.2669 15.8156 74.3629 13.4253 75.2945 10.9636C75.7875 10.4344 76.3851 10.2352 77.0872 10.3661C77.0735 11.8162 76.7747 13.2105 76.1909 14.5491C74.3348 18.0623 72.6413 21.6477 71.1115 25.3054C70.6185 25.8347 70.0209 26.0339 69.3188 25.903C69.4843 23.8773 70.0819 21.985 71.1115 20.226C69.1293 17.1614 67.7346 13.8747 66.9285 10.3661Z" fill="#ECECEC"/>
<path opacity="0.852" fill-rule="evenodd" clip-rule="evenodd" d="M100.99 12.1587C99.5994 12.2571 98.3051 12.6555 97.1058 13.3538C96.988 16.094 96.6893 18.7831 96.2094 21.4211C96.0104 21.5207 95.8108 21.6203 95.6118 21.7199C94.8153 17.9353 94.8153 14.1506 95.6118 10.366C97.355 10.7043 99.1477 10.7043 100.99 10.366C100.99 10.9635 100.99 11.5611 100.99 12.1587Z" fill="#E0E0E0"/>
<path opacity="0.809" fill-rule="evenodd" clip-rule="evenodd" d="M100.99 12.1587C104.245 9.62111 107.333 9.82034 110.253 12.7563C110.55 14.1366 110.649 15.5309 110.551 16.9393C107.755 16.8402 104.967 16.9398 102.185 17.2381C103.103 18.6459 104.397 19.5422 106.07 19.9272C107.293 19.2642 108.587 18.8658 109.954 18.732C110.121 20.4579 109.324 21.3543 107.563 21.4211C100.956 21.6828 98.7653 18.5953 100.99 12.1587ZM104.576 12.1587C106.419 12.1838 107.814 12.9806 108.759 14.549C106.594 15.2414 104.403 15.341 102.185 14.8478C102.697 13.6414 103.495 12.745 104.576 12.1587Z" fill="#E0E0E0"/>
<path opacity="0.782" fill-rule="evenodd" clip-rule="evenodd" d="M114.734 10.366C117.295 9.91757 119.287 10.7143 120.71 12.7563C120.511 13.1547 120.312 13.553 120.113 13.9514C116.812 11.2339 114.621 11.9311 113.539 16.0429C113.588 18.2354 114.684 19.5301 116.826 19.9272C118.049 19.2642 119.343 18.8658 120.71 18.732C120.927 20.1731 120.329 21.0694 118.917 21.4211C112.842 22.1125 110.551 19.4234 112.045 13.3539C112.658 12.047 113.554 11.051 114.734 10.366Z" fill="#E0E0E0"/>
<path opacity="0.684" fill-rule="evenodd" clip-rule="evenodd" d="M90.8315 10.9639C91.4291 10.9639 92.0267 10.9639 92.6243 10.9639C92.6243 14.5493 92.6243 18.1348 92.6243 21.7202C92.0267 21.7202 91.4291 21.7202 90.8315 21.7202C90.8315 18.1348 90.8315 14.5493 90.8315 10.9639Z" fill="#E0E0E0"/>
</g>
</svg>
