<?xml version="1.0" encoding="utf-8"?>
<!-- Generator: Adobe Illustrator 23.0.3, SVG Export Plug-In . SVG Version: 6.00 Build 0)  -->
<svg version="1.1" id="Layer_1" xmlns="http://www.w3.org/2000/svg" xmlns:xlink="http://www.w3.org/1999/xlink" x="0px" y="0px"
	 viewBox="0 0 292.9 295.3" style="enable-background:new 0 0 292.9 295.3;" xml:space="preserve">
<style type="text/css">
	.st0{fill:#A3080C;}
	.st1{fill:#FFF1E2;}
	.st2{fill:#FFFFFF;}
	.st3{fill:none;}
	.st4{fill:#F5D4B7;}
</style>
<g>
	<g>
		<g>
			<g>
				<path class="st0" d="M146.4,2.4c-3.5,0-10.4,0.4-10.7,0.4C137.1,3.2,33,56.5,33,56c0,0.2-0.1,0.3-0.2,0.4
					C12.2,81.7,0,113.7,0,148.9c0,29,8.4,55.9,22.9,78.7c0.1-0.1,36.9,35.6,36.5,39.1c24.3,18,54.4,28.7,87,28.7
					c11.4,0,22.4-1.3,33.1-3.8c-0.2-1.2-0.4-2.3-0.5-3.4l-1.9-13.5c-0.6-3.7-3.6-28.8-3.6-28.8l0-0.1l3.2-1.2c0,0,4.2,0.2,4.1,0.2
					c0,0,4.3,25.2,5,29.6l0.8,4.6c0.3,1.9,0.6,3.7,1,5.6c0.3,1.6,0.5,3.1,0.7,4.6c3.5-1,6.9-2.2,10.2-3.5c-0.5-2.9-1.1-5.8-1.1-6.3
					l-1.7-10.3c-2.3-10.6-3.7-18.5-4.8-23.7c-0.2-0.8-0.4-2.1-0.4-2.1l3.3-1.3l4.4,0.3c0,0,5.6,24.3,7,31.7l1.6,8.2
					c3-1.3,5.9-2.8,8.8-4.3l-0.9-4.2c-0.1-0.4-0.2-0.9-0.3-1.4c-1.9-8.2-6.8-31.1-6.8-31.1l4-1.6l3.9,0.5h0c0,0,5,21.1,8.2,33.1
					c5.6-3.5,10.9-7.2,15.9-11.4c0,0,46.4-69.4,46.7-69.2c4.3-13.9,6.7-28.6,6.7-43.9C292.9,68,227.3,2.4,146.4,2.4z"/>
			</g>
		</g>
	</g>
</g>
<g id="Layer_6">
	<path class="st1" d="M183.1,75.3c0,0-18.3-34.5-25.8-39.7c-7.5-5.2-19.7-8.4-28.2-7.3c-10.8,1.4-35.4,14.4-37.1,14.8
		c0,0.1-9.2,11.5-11.6,23.2c-0.5,2.6-10,44-10,44l18,52l64.1,30.6l23.5-25.6c0,0,3-25.3,9.3-44.3s4.3-29.3,4.3-29.3L183.1,75.3z"/>
</g>
<g id="Layer_4">
	<path class="st2" d="M109.8,207.9c-0.2,0.1-0.4,0.2-0.5,0.2C109.5,208,109.7,207.9,109.8,207.9"/>
	<path class="st2" d="M109.3,208.1L109.3,208.1z"/>
	<path class="st2" d="M104.6,108.8c-1,0.6-1.8,0.7-2.2,1c-0.5,0.3-1.2,0.8-1,1.8c0.2,1,0.5,1.3,0.6,2.1c0.1,0.8-0.3,2.1-1.2,3.7
		c-0.9,1.6-2.3,2.7-3,3.1c-0.8,0.5-1.2,0.6-1.7,0.8c-0.1,0-0.2,0.3-0.3,0.8c0,0,0,0,0,0c0.1,0,0.1-0.1,0.2-0.1
		c0.2-0.1,0.5-0.1,0.8-0.1c0.3-0.1,0.5-0.1,0.6-0.1c0.1,0,0.8-0.1,0.9-0.1c0.1,0,2.2-0.5,3.6-1.1c1.3-0.6,3.6-1.7,4.9-3.3
		c1-1.2,2.1-3.3,2.2-5.4c0-0.4,0-0.7,0-0.7s0,0,0,0c0,0,0,0,0,0c-0.2,0-0.4-0.1-0.6-0.2c-0.4-0.3-0.6-0.5-1.7-1.6
		c-0.7-0.7-0.6-1.3-0.3-1.9c0,0,0,0,0,0C106.2,107.6,105.6,108.3,104.6,108.8"/>
	<path class="st2" d="M158.3,101.9c0,0-0.6,0.1-0.8,0.1c-0.2,0.1-0.5,0.2-0.7,0.5c-0.2,0.3-0.3,0.8,0.2,1.3c0.4,0.5,1.1,1.5,1,2.4
		c0,0.4,0,1.6-0.4,2.5c-0.4,1-1,2-1.3,2.4c-0.2,0.3-1.1,1.3-1.3,2c0,0.2,0,0.3,0.1,0.5c0,0,0,0,0,0c0,0,0,0,0,0c0-0.1,0-0.1,0.1-0.2
		c0.2-0.3,0.7-0.5,1.5-0.8c1.1-0.3,1.9-0.8,2.5-1.2c-0.1,0.1-0.1,0.2-0.1,0.3c0.1-0.2,0.1-0.3,0.3-0.4c0.3-0.3,4.7-3.2,4.8-7.9
		c0-1.8-2.2-2-3.2-2C160.3,101.4,159,102.1,158.3,101.9C158.4,101.9,158.4,101.9,158.3,101.9C158.4,101.9,158.4,101.9,158.3,101.9
		C158.4,101.9,158.3,101.9,158.3,101.9"/>
	<path class="st2" d="M112.1,134.4c0,0,17.3,5.3,25.5-4.2c8.2-9.6,22.5,5.1,23.4,9.4c0.9,4.3-21.4,16.3-28.2,16.6
		s-33.5-3.3-33.5-6.1S112.1,134.4,112.1,134.4z"/>
	<path class="st2" d="M182.9,65.9c-2.7-29.1-16.1-43.7-25.8-50.8c-10.1-6.7-34.2-12.5-45.5-12C98.3,3.7,67.4,18.3,66.2,19.4
		c-1.1,1-21.9,35.7-19.3,41.9s6.2,35.4,7.4,37.8c0.4,0.7,6.3,19.7,10.2,19c3.9-0.7,7.6-18.1,7.4-19.4c-0.5-3.8-7.5-21.1-6.9-23.5
		c0.5-2.4,19.1-31.5,20.5-32.5c0.9-0.7,32.8-4.7,33-4.4c0,0,0,0,0,0l0,0c2.2-1.9,7.4-7.1,12-6.9c4.6,0.2,17.8,1.8,25.3,7
		c7.5,5.2,9.8,10.2,10.4,11.7c0,0,0,0,0,0c0.2,0,10.6,23.6,13.7,23.7C181.7,73.8,183.3,69.4,182.9,65.9z"/>
	<path class="st2" d="M170,85.2c-1.1,0.1-4.1,0.4-4.5,0.4c-0.6,0.1-0.6,0.4-0.5,0.7c0,0.3,0.1,1.3,0.2,1.7c0,0.4,0.5,0.7,0.9,0.6
		c0.5,0,3.4-0.3,3.8-0.4c0.4-0.1,0.8-0.4,0.8-0.8c0-0.3,0-1.2,0-1.6C170.7,85.5,170.4,85.2,170,85.2"/>
	<path class="st2" d="M49.6,224.3c0.6,0.1,1.2,0.3,1.8,0.4c-1.3-0.3-2.8-0.6-3.6-0.8c-0.4-0.1-1-0.2-1.8-0.1c-1.2,0-2.8,0.3-4,0.9
		c-1.6,0.8-11.5,5.8-15.7,7.9c4.8,6.8,10.1,13.2,15.9,19.1c0.4-1.5,6.9-8.3,7.8-12.3C51.3,233.9,48.1,226.6,49.6,224.3"/>
	<path class="st2" d="M215.3,240.2l-7.8,1c0,0,5.6,26.1,7.2,32.6l0.9,4.2c2.7-1.5,5.4-3,8-4.7C220.3,261.3,215.3,240.2,215.3,240.2
		L215.3,240.2z"/>
	<g>
		<polygon class="st3" points="167.9,221.1 167.1,218.9 166.2,218.9 166.2,222 166.8,222 166.8,219.5 167.7,222 168.2,222 
			169,219.5 169,222 169.6,222 169.6,218.9 168.7,218.9 		"/>
		<polygon class="st3" points="163,219.4 164,219.4 164,222 164.6,222 164.6,219.4 165.7,219.4 165.7,218.9 163,218.9 		"/>
	</g>
	<path class="st2" d="M260.8,135.9c-4,3-6.2,7-6.1,11.1c0,6,4.9,11.8,16.1,11.7c2.8,0,5.3-0.3,7.5-0.7c0.7-0.1,1.3-0.2,1.9-0.3
		l1.3-5.6c-2.2,0.7-4.9,1.3-7.1,1.3c-6,0-10-3.5-10-8.2c0-2.5,1-4.7,2.9-6.3c2-1.7,4.9-2.7,8.5-2.7c2.9,0,4.6,0.8,5.7,1.9
		c0.2,0.2,0.4,0.5,0.6,0.7h0.9l1.8-6.6c-1.9-0.6-4.7-1.1-7.7-1.2C270.3,131.1,264.7,133,260.8,135.9"/>
	<path class="st2" d="M251.4,136.8c0.8,0,1.5,0.3,1.9,0.7c0.4,0.3,0.6,0.7,0.6,1.1h0.9l1.8-7.2h-24.3l-0.4,1.4l-0.1,0.3
		c0,0,2.7,0.3,1.8,3l-6.1,22l10.3,0h1.8l0.5-1.9c0,0-2.3-0.5-1.7-2.6c0-0.1,0.9-3.3,1.4-5.1c0.2-0.8,0.4-1.4,0.4-1.4l5.6,0
		c0.9,0,1.6,0.2,2.1,0.4c1.1,0.4,1.5,1.1,1.5,1.1l1.6-6.5h-9.4l1-3.7l0.4-1.4L251.4,136.8z"/>
	<path class="st2" d="M221.9,154.2c-0.7-0.8-7-10.5-7-10.5l11-8.8l0.4-0.3c0.5-0.4,1-0.7,1.4-0.9c1.2-0.6,1.9-0.5,1.9-0.5l0.4-1.8
		l-14.2,0l-0.4,1.4l-0.1,0.3c1,0.1,2.3,0.9,1.2,2c-0.1,0.1-11.4,8.7-11.4,8.7l0.1-0.3l2.3-8.5c0.5-1.7,2.3-1.9,2.3-1.9l0.4-1.7
		l-13.5,0l-0.3,1.4l-0.1,0.3c0.6,0.2,2.5,0.5,1.9,3c-4.5,16.3-4,14.7-4.3,15.6c-1,3.9-2.5,4.4-3.4,4.5c-0.2,0-0.4,0-0.5,0l-0.2,0.7
		l-0.3,1.2H202h1.8l0.5-1.9c0,0-2.2-0.4-1.8-2.1c0.2-0.8,0.8-2.9,1.3-4.7c0.5-1.8,0.9-3.3,0.9-3.3c2.5,3.9,3,4.4,6,8.5
		c2.7,3.8,5.6,3.6,12.7,3.5c0.6,0,1.2,0,1.8,0l0.5-1.9C223.8,156.3,222.6,155,221.9,154.2"/>
	<path class="st2" d="M288.7,131.9c-0.4-0.3-0.8-0.5-1.3-0.5c-0.5,0-0.9,0.2-1.3,0.5c-0.3,0.3-0.5,0.8-0.5,1.3
		c0,0.5,0.2,0.9,0.5,1.3c0.3,0.3,0.8,0.5,1.3,0.5c0.5,0,0.9-0.2,1.3-0.5c0.3-0.4,0.5-0.8,0.5-1.3C289.2,132.7,289,132.2,288.7,131.9
		 M288.5,134.2c-0.3,0.3-0.7,0.5-1.1,0.5c-0.4,0-0.8-0.2-1.1-0.5c-0.3-0.3-0.5-0.7-0.5-1.1c0-0.4,0.2-0.8,0.5-1.1
		c0.3-0.3,0.7-0.5,1.1-0.5c0.4,0,0.8,0.2,1.1,0.5c0.3,0.3,0.4,0.7,0.4,1.1C289,133.6,288.8,133.9,288.5,134.2"/>
	<path class="st2" d="M288.2,132.7c0-0.2-0.1-0.4-0.3-0.5c-0.1,0-0.3-0.1-0.5-0.1h-0.7v2h0.3v-0.8h0.3c0.2,0,0.3,0,0.4,0.1
		c0.1,0.1,0.2,0.2,0.2,0.5v0.2l0,0.1c0,0,0,0,0,0c0,0,0,0,0,0h0.3l0,0c0,0,0,0,0-0.1v-0.1v-0.1c0-0.1,0-0.2-0.1-0.3
		c-0.1-0.1-0.2-0.2-0.3-0.2c0.1,0,0.2,0,0.3-0.1C288.2,133,288.2,132.9,288.2,132.7 M287.7,133.1c-0.1,0-0.2,0-0.3,0h-0.3v-0.7h0.3
		c0.2,0,0.3,0,0.4,0.1c0.1,0,0.1,0.1,0.1,0.3C287.9,132.9,287.8,133,287.7,133.1"/>
	<path class="st2" d="M268.8,187c-18.7-5.7-57-4.3-57-4.3l31.3,73.8c0,0,2.9-1.5,3.3-0.7c17-15.9,30.2-35.8,38.1-58.1
		C283.9,197.2,287.5,192.7,268.8,187z"/>
	<g>
		<polygon class="st3" points="169.6,219.2 169.6,218.9 169.3,218.9 		"/>
		<g>
			<polygon class="st3" points="169.6,219.2 169.6,218.9 169.3,218.9 			"/>
			<path class="st2" d="M205.1,274.1c-1.4-7.4-7-31.7-7-31.7s7.4-1.9,9.1-6.2c1.7-4.2-2.2-10.7-2.4-13.3c-0.8-7.7-3.8-39.1-8.8-45.6
				c-2.9-3.8-16.1-11.3-17.1-11.2c-4.8,0.2-14.2,20.9-22.2,22.8c-5.3,1.2-9-3.9-8.2-3.5c0,0,0,0,0,0c0,0,0-0.6-0.9-3.4
				c-0.9-2.8-2.7-5.7-3.1-6.4c-0.3-0.7-1.3-2.1-1.4-2.3c0-0.2-0.4-1.1-0.7-2.8c-0.5-3.3-0.3-5.5-0.2-5.7c0-0.2,0.1-0.8,0.1-0.9
				c0-0.1,0-0.3-0.2-0.4c-0.2,0-0.6-0.1-1,0.3c-0.9,0.9-1,1.1-1,1.3c0,0.1,0.1,0.4,0,0.8c-0.1,1-0.3,1.8-0.7,2.6
				c-0.5,0.8-0.8,1-1.4,1c-0.7-0.1-1.2-0.6-1.3-1.9c-0.1-1.4-0.4-1.8-0.6-2.1c-0.3-0.3-0.9-0.5-1.1-0.5c-0.2,0-0.4,0.2-1.8,0.5
				c-1.4,0.4-3.7,0.5-4,0.5c-0.3,0-1.6,0.1-1.6,0.1c0.3,1-5.2-0.5-6.1,0.2c-1.9,1.5-2.8,11.2-3.7,16.3c0,0,0,0,0,0l-30.7,3.1
				l-10.8,25c0,0,3.2,49.5,3.2,50.3s68-14.8,68-14.8l25.7-0.6c0,0,0,0,0,0.1c0.2,1.5,3,25.1,3.6,28.8L179,288
				c0.2,1.1,0.3,2.3,0.5,3.4c3-0.7,5.9-1.5,8.8-2.3c-0.2-1.5-0.5-3.1-0.7-4.6c-0.4-1.9-0.6-3.8-1-5.6l-0.8-4.6
				c-0.7-4.4-5-29.6-5-29.6l4.5-2.8l5.2,1.6c0.1,0.6,0.3,1.3,0.4,2.1c1.1,5.2,2.5,13.1,4.8,23.7l1.7,10.3c0,0.4,0.6,3.4,1.1,6.3
				c2.7-1.1,5.4-2.2,8.1-3.4L205.1,274.1z"/>
		</g>
	</g>
</g>
<g id="Layer_5">
	<path class="st4" d="M154.2,86.6c-5.7,0.8-13.9,5.5-13.5,8.8c0.2,2.1,12.1,2.4,17.4,2.8s6.2-4.7,5.9-7.5
		C163.6,87.9,160.1,85.7,154.2,86.6z"/>
	<path class="st4" d="M192.8,177.4c-2.8-0.3-1.5,4.3-1.5,4.7v0c1.4,5.4,2.6,10.7,3.5,15.6c0,0.5,0,0.9,0.1,1.2
		c0.4,2.1,1.2,8.9,2.8,24.4c0.4,5.1,0.7,10.5,0.9,15c0.1,0,9.6,0.5,9.6,0.5s-0.4-13.2-3.3-29.9C202,192.4,197.6,177.9,192.8,177.4z"
		/>
	<path class="st4" d="M167.3,135.7c0.4-2.3-0.1-3.5-0.8-4.9c-0.8-1.4-2.2-2.6-4.1-3.9c-1.8-1.2-5.9-4.9-6.4-5.2
		c-0.4-0.3-2.3-2.2-2.8-2.5c-0.5-0.4-1.4-1.1-3.3-2.1c-4.8-2.4-8.6-0.6-8.8-0.5c-0.1,0.1-0.9,0.7-1.5,1.3c-0.7,0.6-0.2,1.9,0.1,2.3
		c0,0,25.4,18.6,25.4,19l0,0C165.2,139.2,166.9,137.6,167.3,135.7"/>
	<path class="st4" d="M156.8,112.8c-0.8,0.3-1.3,0.5-1.5,0.8c0,0.1-0.1,0.1-0.1,0.2c0,0,0,0.1,0,0.1c0,0,0,0.1,0,0.1
		c0,0,0,0.1,0,0.1c0,0,0,0.1,0.1,0.1c0,0,0,0.1,0.1,0.1c0,0.1,0.1,0.1,0.1,0.2c0,0,0,0.1,0.1,0.1c0.1,0.1,0.1,0.1,0.2,0.2
		c0,0,0,0,0.1,0.1c0.1,0.1,0.2,0.1,0.3,0.2c0,0,0,0,0,0c0.1,0.1,0.2,0.2,0.3,0.2c0,0,0,0,0,0c0.1,0.1,0.2,0.2,0.4,0.2
		c0.1,0.1,0.3,0.1,0.5,0.1c0.2,0,0.5,0,0.7-0.1c0.9-0.2,2-0.6,3-1.1c0,0,0,0,0,0c-0.1,0-1.8-2.9-1.8-3
		C158.7,112,157.9,112.4,156.8,112.8"/>
	<path class="st4" d="M122.7,130.2c0.1,0,0.1,0.1,0.2,0.1c0,0,0,0,0,0c-0.4-0.4-0.4-0.5-0.5-1c-0.1-0.5-0.5-1.2-0.6-1.6
		c-0.2-0.4-0.9-1.6-1.1-2.4c-0.3-0.8-0.4-1.3-0.4-2.1c-0.2-0.6-0.4-1.8-0.3-3c0.1-1,0.3-2.1,0.9-5.3c0.4-2.1-0.2-4.5-0.3-6.7
		c0-1.7-0.2-5.9-0.1-10.2v0c-0.3,0.1-38.1-8-37.8-8.1c0,0,0,0,0,0c0.3-3.1,0.1-7.3-0.1-10.5c1-9.6,2.5-20.7,5.8-28.1
		c2.6-5.7,2.3-3.8,3.6-6.5c0.1-0.1,0.2-0.3,0.2-0.5c0-0.1-0.1-0.9-0.1-1.1c0,0,0,0,0,0c-0.1,0-9.3-2.6-20.8,23.8
		c-4.8,11,1.6,38.6,1.6,38.6l10,3.3l6.5-3.5l15.4-3.2l6.3,3.1c0,0-1.9,5.9-1.9,5.9c0,0,0,0,0,0s0,0.3,0,0.7
		c-0.1,2.1-1.3,4.2-2.2,5.4c-1.3,1.6-3.6,2.7-4.9,3.3c-1.3,0.6-3.4,1.1-3.6,1.1c-0.1,0-0.8,0.1-0.9,0.1c-0.1,0-0.3,0.1-0.6,0.1
		c-0.3,0.1-0.7,0.1-0.8,0.1c-0.1,0-0.2,0.1-0.2,0.1c-0.1,0.1-0.1,0.2-0.2,0.3c0,0,0,0,0,0c0,0.1,0,0.2,0,0.3
		c0.1,0.3,0.4,0.7,0.4,0.8c0.1,0.3,1,1,2.3,0.7c1.8-0.4,2.9-0.7,4.1-1.1c1.2-0.4,2.7-1.1,3-1.3c0.2-0.2,0.9-0.7,1-0.8c0,0,0,0,0,0
		c0.1-0.1,0.3-0.2,0.4-0.3c0.1,0,0.1-0.1,0.2-0.1c0,0,0,0,0,0c0.2,2.5-2.8,9.9-2.8,9.9s-6.9,2.5-6.5,2.1c0,0,0,0,0,0
		c-0.6,0.3-1.4,0.6-2.2-0.1c0,0-0.8-1-1.8-2.2c-0.6-0.8-1.3-1.6-1.9-2.5c-0.4-0.6-0.7-1.1-0.9-1.5c-0.4-0.7-0.6-1.2-0.7-1.5
		c0,0,0,0,0-0.1c-0.2-0.5-0.3-1.3-0.3-1.3c-1.2-0.2-2.6-0.4-3.8-0.9c0,0,0,0,0,0c0.1,0.1-8.6,2-8.6,2l9,36.6
		c0,0,16.8,26.3,27.2,21.2c1.6-0.8,4.3-6.1,3.2-7.9c-1.2-1.9-18.9-31.3-18.9-31.3S122.5,130.1,122.7,130.2z"/>
	<path class="st4" d="M156.8,229.6c3.3,2.2,4.4,2.7,8,4.2c1.1,0.5,4.2-0.1,5.4-2c0,0,0,0-0.1,0.1c0,0,0,0,0,0
		c-0.1,0.1-17.9-13.9-20.2-14.7c-0.8-0.3-5.4,1.4-4.8,2.2c0.5,0.8,2.7,3,2.8,3.1C151,224.8,154.9,228,156.8,229.6"/>
	<path class="st4" d="M119,203.8l-29.7-17c0,0,0.9,8.4,0.9,8.6c0,0,0,0,0,0c2.2,1.9,5.6,4.3,6.1,4.6c0.2,0.1,1.6,1,1.9,1.4
		c0.4,0.4,4,3,4.3,3.2c0.3,0.2,4.2,2.4,6.6,3.6c0.1,0-1.7,1.4-1.6,1.3c-0.8,0.1-1.5,0.4-2.4,0.7c-4.2,2.3-1.7,7.2-1.3,10.6
		c0.8,2.9,1.8,7.8,5.5,8.3c2.8,0.3,9.3-1.4,12.7-2.1c0.5-0.9,5.4-1.2,5.4-1.1c0.9-0.3,2-0.7,2.4-0.6c0.2,0-0.8,1.1-1.3,2.2
		c-0.6,1.1-4.1,11.6-7.4,17.2c-1.1,2.3-0.6,1.3-1.3,3v0l6.7,1.5l10.8-27.5L119,203.8z"/>
	<path class="st4" d="M85.2,225.2c1.2,2.1,4.5,6.6,4.6,6.9c0.2,0.2,0.9,1,1.7,2c0.8,0.9,1.6,1.8,1.8,2c0.2,0.2,1.8,1.9,2.2,2.3
		c0.4,0.4,0.9,1.1,1.2,1.5c1.2,1.1,5.5,4.8,5.9,5.1c0.4,0.3,2.5,1.7,2.8,1.8c3.7,0.5,5.5-1.6,5.9-2.2c0.4-0.6,0.5-0.8,0.2-1.7
		c0,0.1-14.3-10.7-23.8-31.4c-0.4-0.8-3.7-4.8-6.7-2.4c-2.5,2-0.7,6.7-0.7,6.7v0C81.4,217.7,84.3,223.4,85.2,225.2"/>
	<path class="st4" d="M57.1,227.2c1-3.6-7-2.8-7.6-2.9c-2.5,4-5.1,17.6-6.4,24c-0.2,0.7-0.5,1.9-0.9,3.4c1.8,1.9,3.7,3.7,5.6,5.4
		C49.2,251.7,56.9,228.2,57.1,227.2z"/>
</g>
<g id="Layer_1_1_">
	<g>
		<path class="st0" d="M287.9,134.1C287.9,134.1,287.9,134.1,287.9,134.1C287.9,134.1,287.9,134.1,287.9,134.1
			C287.9,134.1,287.9,134.1,287.9,134.1C287.9,134.1,287.9,134.1,287.9,134.1"/>
		<path d="M269.9,185.4c-4.4-1-14.9-3.1-29.1-4.4c-14.1-1.3-25.7-2.4-27.3-2.6c-1.5-0.1-2-1.5-3.3-2.1c-4.8-2.4-13.8-4.6-19.5-6.6
			c-1.4-0.5-2.3-1.7-4.3-4.1c-1.2-1.4-2-2.1-3-3c-0.6-0.6-1.9-1.7-2.3-1.9c-0.3-0.3-0.6-1.1-0.3-2.6c0.3-1.6,1.2-7.6,1.1-14.7
			c0-1.9,0.8-3.1,1.7-3.6c0.5-0.2,3.6-1.6,3.4-4.7c-0.2-3.1-1.2-7.4,1.3-13.5c2.4-5.9,5.4-16.4,5.8-23.3c0.4-7.3-1.5-12.1-4.4-14.7
			c-1.1-1-2.5-2.5-1.4-5.7c1.2-3.4,3.3-12.8,1.2-19.1c-0.5-1.4-1-1.4-1.3-1.6c-0.3-0.2-1.8-1.3-2.4-3.9c-0.8-3.3-3.2-15.2-12.4-27.3
			c-4.9-6.4-10.1-10.2-12.2-11.8c-1.4-0.9-3.9-2.7-6.9-4.3c-4.3-2.3-7.7-4-14.5-6.2c-0.6-0.2-2.1-0.7-4.1-1.2c0,0,0,0,0,0
			s-5.8-1.6-12.1-2.3c-1.1-0.1-2.6-0.2-4.2-0.3c-6.5-0.4-8.9,0-12.2,0.4c-0.4,0-0.7,0.1-1.1,0.1c-0.7,0.1-1.4,0.2-2.1,0.3
			c-10,1.7-20.3,6.4-25.2,8.8c-2.8,1.3-5.3,2.7-7.6,4c-0.1,0-0.1,0.1-0.2,0.1c-0.6,0.4-1.5,0.9-2.4,1.4c-1.4,0.8-2.7,1.5-4,2.2
			c-4,2-7.6,3-10.1,3.9c-0.5,0.2-0.9,0.3-1.2,0.4c-1.9,0.7-3.1,1.5-3.3,2.7c-0.4,2.2,2.2,4.3,1.3,7.8c-2.3,8.7-12.1,17.1-13.7,18
			C32.9,53.1,33.2,55,33,56c0,0.9,0.2,1.9,0.7,3.1c1.5,3.2,4.3,6,5.7,8.9c1.4,2.9,2.2,8,1.1,14c-1,5.8-1.3,7.1-1.8,8.1
			c-0.5,1.1-1.5,3.1-0.1,5.6c1.4,2.5,4.4,5,6.3,6.4c1,0.8,1.5,1.5,0.8,2.9c-1.2,2.3-0.9,7.7,0.2,10.7c1.8,4.6,3.8,9,5.7,11.8
			c1.9,2.8,5.3,7.6,7.3,9.3c2,1.7,2.3,4.8,2.2,6.6c0,1.9-0.3,7.2,5.1,10.5c2.7,1.6,2.9,1.2,3.9,2c1,0.8,1.4,1.2,2.1,3.3
			c0.7,2.1,3.8,9.6,8,14.9c1.2,1.5,1.9,2.6,2.1,2.9c0.1,0.2,0.4,0.5-0.2,1.8c-0.5,1.3-2.7,8.4-4.4,15.9c-0.3,1.4-0.8,3.1-2.5,4
			c-1.7,0.8-5.5,2.9-6.9,3.7c-1.4,0.8-2.1,1.2-3.7,3.2c-0.7,0.9-1.2,1.4-1.7,2c-0.3,0.3-0.4,0.5-1.7,1.2
			c-1.2,0.6-18.7,6.8-37.2,18.1c-0.5,0.3-0.9,0.5-1.3,0.8c1.1,1.7,2.2,3.4,3.4,5c4.2-2.1,14.1-7.1,15.7-7.9c1.2-0.6,2.8-0.9,4-0.9
			c0.7,0,1.4,0,1.8,0.1c0.8,0.2,2.3,0.5,3.6,0.8c0.1,0,0.2,0.1,0.4,0.1c0.1,0,0.2,0,0.2,0.1c0.5,0.1,1.1,0.3,1.5,0.4c0,0,0,0,0.1,0
			c0.2,0.1,0.4,0.1,0.5,0.1c1.2,0.4,1.8,2.6,1.2,4.6c-0.1,0.4-0.5,1.7-1,3.6c-0.3,0.9-0.6,2-0.9,3.3c-0.3,1.2-0.7,2.6-1.1,4
			c-1.4,5-3,10.9-4.4,16.3c3.7,3.4,7.6,6.5,11.6,9.5c0.5-3.5,0.9-7.1,1.3-9.8c1-6.9,6.5-32.5,8-38.3c1.1-4.2,1.7-6.2,3.2-6.8
			c0.4-0.2,1-0.5,1.2-0.6c0.3-0.1,0.9-0.3,0.7,0.8c-0.2,1.3-1.4,6.8-3.1,24.4c-1.2,12.2-1.2,23-0.8,29.5c0.2,2.8,0.2,6.7,4.5,5
			c5-2,21.8-8,30.9-10.8c14.5-4.5,41.8-10.5,68-14.3l7.3-1c0,0,4.3,25.2,5,29.6l0.8,4.6l-0.8-4.6c-0.7-4.4-5-29.6-5-29.6
			c1-0.1,2.1-0.3,3.1-0.4c2.4-0.3,4.6-0.6,6.6-0.8l7.7-1c3.6-0.5,6.7-0.9,9.3-1.2c0,0,5,22.9,6.8,31.1c0.1,0.5,0.2,1,0.3,1.4
			l0.9,4.2c0,0,0,0,0,0l-0.9-4.2c-1.5-6.5-7.2-32.6-7.2-32.6l7.8-1c2.3-0.3,5.3-0.7,6.2-0.7c1.8-0.1,2.6-1.1,1.2-1.5
			c-1-0.3-3.4-0.5-4.6-0.6c-0.5,0-1.3,0-1.8,0c-1.8,0-2.3-0.4-2.7-3.1c-1.1-7.9-5.5-27.3-8.6-37.6c-3-9.9-3.8-12.7-4.5-14.9
			c-0.6-1.9,0.6-2,1.2-2c2.2,0.1,5.3,1.3,6.2,3.2c1.9,4.2,15.3,39.1,20.6,52.1c3.4,8.2,7.3,18.1,11,26.8c2.4-2,4.7-4,6.9-6.1
			c-6.9-15.2-22.3-49.6-30.4-67c-0.3-0.6-0.7-1.6-0.9-2.2c-0.1-0.2-0.1-0.4-0.1-0.5c0-1.1,1.5-1.3,2.2-1.2c2.9,0.3,28.9,2,36,2.7
			c4.7,0.4,9.4,1.2,12.5,1.7c0.7,0.1,1.4,0.3,1.9,0.4c0.7,0.1,1.2,0.2,1.5,0.3c2.3,0.6,6.4,2.2,10.2,4.2c1.6,0.8,3.3,2,5.3,3.5
			c0.6-1.6,1.1-3.3,1.7-4.9c-1.4-0.9-2.9-1.9-4.4-2.7C277.5,187.7,273.8,186.3,269.9,185.4 M58.1,99.2c-0.7,0.3-1.3,0.4-1.8-0.6
			c-1.2-2.3-2.1-6.5-2.4-9.2c-0.4-2.7-0.9-10.8-0.7-15.2c0.2-4.4-0.7-6.9-2.3-9c-1.6-2.1-2.6-3.6-3-4.3c-0.5-0.9-0.2-1.5,0.8-2.2
			c0.5-0.3,1.4-0.1,2.1-0.3c1.4-0.3,6.2-2,9.7-4.8c3.5-2.8,9.1-8.1,12.9-10.2c3.8-2.1,5.5-3,9.9-3.5c0.8-0.1,2,0.3,0.6,1.3
			c-1.3,1-5.6,2.5-10.6,10.1c-3.1,4.6-3.6,7.3-4.5,9.3c-1,2.1-1.9,2.6-3.4,4.3c-0.8,0.8-2.3,2.5-2.8,4.9c-0.5,2.4-2.7,11-1.4,23.9
			c0.2,1.5,0.8,3.5-0.6,4.2C59.5,98.5,58.8,98.9,58.1,99.2 M64.2,116.6c-0.8-0.5-3.8-4.7-5.3-9.3c-0.2-0.5-0.3-1.7,0.5-2.1
			c0.7-0.3,1.5-0.8,2-1c0.5-0.2,1.6-0.5,1.8,1.1c0.2,1.7,0.3,3.6,2.2,8.6c0.3,0.9,0.4,1.2,0.5,1.5C66.1,116.4,64.9,117.1,64.2,116.6
			 M70.4,100.9c-0.2,0-2.3,0.3-3.5,0.5c-0.7,0.1-1.4,0.4-1.5-0.3c-0.1-0.8-0.3-1.8-0.4-2.1c-0.1-0.3,0.1-0.6,0.4-0.6
			c0.8-0.2,4.1-0.7,4.4-0.8c0.3,0,0.6,0.1,0.8,0.8c0.1,0.7,0.3,1.3,0.3,1.6C71,100.3,71.1,100.8,70.4,100.9 M71.6,90.3
			c-0.2-1-0.5-2.7-0.4-3.7c0-0.4,0.2-1.5,0.7-2c0.7-0.8,1.7-1.5,2.3-2c1.1-0.9,0.9-3.3,1-4.6c0.2-3.9-0.1-16.4,8-28.3
			c0.3-0.5,0.6-0.9,0.9-1.3c0.1-0.1,0.2-0.2,0.3-0.3c0.2-0.3,0.5-0.5,0.7-0.8c0.1-0.1,0.2-0.2,0.3-0.3c0.3-0.3,0.6-0.5,0.9-0.8
			c0,0,0.1-0.1,0.1-0.1c0.3-0.3,0.7-0.5,1-0.7c0.1-0.1,0.2-0.2,0.4-0.2c0.2-0.1,0.5-0.3,0.7-0.4c0.1-0.1,0.3-0.1,0.4-0.2
			c0.2-0.1,0.5-0.2,0.8-0.4c0.1,0,0.2-0.1,0.3-0.1c0.3-0.1,0.7-0.3,1-0.4c0.1,0,0.3-0.1,0.4-0.1c0.2-0.1,0.4-0.1,0.7-0.2
			c0.1,0,0.1,0,0.2-0.1c0,0,0,0,0,0c1.6-0.4,3.3-0.7,5-1c4.8-0.8,10.4-0.1,13.3,0.9c2.3,0.7,3.4,1.3,4.2,0.6c0.8-0.7,2.8-3,3.6-3.8
			c0.1-0.1,0.2-0.2,0.3-0.4c0,0,0-0.1,0.1-0.1c0-0.1,0.1-0.2,0.1-0.3c0,0,0-0.1,0-0.1c0-0.1,0-0.2,0-0.2c0,0,0-0.1,0-0.1
			c0-0.1-0.1-0.2-0.2-0.3c-0.2-0.3-0.5-0.6-0.9-0.8c-0.9-0.5-10.3-7.4-23-7.7c-12.4-0.3-22.4,4.1-25,5c-0.5,0.2-0.8,0.3-1.1,0.3
			c-0.3,0-1.4-0.4-1-1.1c0.4-0.8,1.5-2.1,2.7-3.2c1.2-1.1,7-6.6,12.8-9.1c1.1-0.5,1.3-0.7,2-0.9c0.9-0.3,1.4-2.3-0.5-2.3
			c-2,0-2.8,0.2-3.8,0.4c-1,0.2-1.6-0.3-1-1.2c0.7-0.9,1.9-1.9,4.3-3.2c5.1-2.8,14.3-5.7,18.7-6.6c5.7-1.2,6.4-1.3,10.2-1.6
			c3.5-0.2,6.4,0,7.7,0.1c11.3,0.4,24.4,4.2,34.5,10.8c9.6,7.1,23.5,18.9,26.2,48c0.3,3.5,0.1,5.5,0,6.3c-0.1,0.9-1.1,2.5-2,0.7
			c-2.9-6-7.3-13.9-12.3-21.3c-0.3-0.4-0.6-0.7-0.8-0.7c-0.1,0-0.2,0-0.3,0c0,0,0,0-0.1,0.1c0,0-0.1,0.1-0.1,0.1c0,0,0,0.1-0.1,0.1
			c0,0.1,0,0.1,0,0.2c0,0.1,0,0.1,0,0.2c0,0.1,0,0.3,0.1,0.5c0.1,0.5,1.7,8.4,1.8,9.5c0.1,1.1-0.5,3.8,3.6,8.8
			c1.7,2,3.2,3.8,3.9,6.8c0.8,3,1,4.3,1,4.6c0,0.3,0.4,1.2-1.1,1.2c-1.4,0-6.9-0.4-9.3-0.3c-2.4,0.1-18.6,1.6-24.6,2.9
			c-6,1.3-9.3,2.8-12.4,6.1c-0.7,0.8-1.8,1.5-2,1.6c-0.2,0.1-1,0-2.5-0.1c-1.5-0.1-4.2,0.3-5.6,0.9c-1.4,0.6-2.4,1.2-4.1,0.5
			c-2.4-1-6.6-5.4-17.3-4.9c-6.5,0.3-9.8,0.5-14.3,1.2c-0.3,0-0.5,0.1-0.8,0.1c-0.2,0-0.3,0.1-0.5,0.1c-0.1,0-0.2,0-0.3,0
			c-1.8,0.3-3.9,0.7-6.5,1.2c-0.4,0.1-0.7,0.1-1.1,0.2C72.5,91.8,71.8,91.3,71.6,90.3 M170.7,87.5c0,0.3-0.4,0.7-0.8,0.8
			c-0.4,0.1-3.3,0.3-3.8,0.4c-0.5,0-0.9-0.2-0.9-0.6c0-0.4-0.1-1.4-0.2-1.7c0-0.2-0.1-0.6,0.5-0.7c0.3,0,3.4-0.3,4.5-0.4
			c0.4,0,0.7,0.3,0.7,0.7C170.7,86.3,170.7,87.2,170.7,87.5 M157.2,90.8c-0.9-0.6-2.5-1.6-3.4-2c-0.7-0.2-0.4-1.1,0.5-1.2
			c3.3-0.5,5.4-0.5,7,0.5c1.2,0.7,2,2.2,1.6,3.4c-0.4,1.4-1,1.1-1.7,1.1C160.4,92.7,158.1,91.4,157.2,90.8 M159.1,97.1
			c-0.6,0.4-2.5,0-3.1-0.2c-1.4-0.5-2.4-0.9-4.3-2.2c-1.3-0.8-3.5-1.2-5.4-0.6c-1.3,0.4-2.3,0.7-3.4,1.1c-1.1,0.4-1.4-0.6-1.1-1
			c0.3-0.4,2.1-2.5,4.4-3.4c0.5-0.2,1.5-0.3,2-0.3c1.5,0,3.4,0.7,4.8,1.7c1.4,1.1,3.7,2.8,5.2,3.4C158.9,96,160.4,96.2,159.1,97.1
			 M112.1,147.8c-5.7,2-7.3,0-7.8-0.6c-0.5-0.6,0.1-1.2,0.7-1.5c1.4-0.6,3.2-2,4.1-2.9c0.9-0.9,2.7-4,4-5.1c0.6-0.5,3.9-1.6,6.4-0.5
			c3,1.4,7.6,1.6,10.4,1.2c2.8-0.4,3.9-2.4,4.5-3.7c0.6-1.2,2.1-1.7,2.9-2c2.2-0.9,5-3.9,5.3-4.2c0.3-0.3,1.2-0.8,2.6,0.1
			c2.6,1.5,3.9,3.5,6.3,6.3c2.4,2.7,5.3,3.2,6.1,3.2c0.8,0.1,1.4,1,1.4,1.3c0,0.3-0.6,1.2-1.2,1.6c-0.5,0.4-0.8,1.1-5.4,1.2
			C129.4,142.8,119,145.4,112.1,147.8 M143.5,150.6c-1.4,0.7-5.4,2.2-7.5,2.6c-2,0.4-8.5,1.7-9.6,1.8c-1.4,0.1-3.3-0.3-4.9-1.4
			c-0.3-0.2-0.8-1.1,0.4-1.3c2.2-0.3,5.8-2,19-2.7c1.4-0.1,2.1-0.1,2.4-0.1C143.7,149.5,144.9,149.9,143.5,150.6 M113.1,179.7
			c-4.6,0.8-16.8-2.8-24.7-22.4c-2-5,0.2-10.1,2.2-11.1c1.2-0.6,1.8-0.8,2.2-0.9c0.4-0.1,2.5-0.4,2.7,2c0.2,1.9,3.9,17.4,8.8,22.6
			c1.2,1.3,2.2,1.2,2.5-0.1c0.3-1.2,0.8-2.8,1-3.4c0.1-0.4,1.3-1.8,2-0.1c1.5,3.6,3.2,8.2,4.4,10.1
			C115.1,178.1,114.8,179.4,113.1,179.7 M114,128.5c0.4,0.6,0.7,1.7,0.7,2.2c0,0.6-1.9,1.6-3.9-0.7c-2-2.2-1.6-5.3-0.8-6.6
			c1.3-2.1,3.9-1,3.6-0.3C112.7,125.7,113.5,127.9,114,128.5 M99.3,99.8c-1.5,0-3.1-0.2-5.7,0.8c-3,1.1-4.9,2.6-6.3,3.4
			c-1.4,0.9-3,1.3-3.5,1.3c-0.5,0-2.4-0.2-1.1-1.5c0.3-0.4,1.1-0.6,2.4-1.5c0.9-0.6,1.5-1.1,2.5-2c1.8-1.5,5.4-3.7,7-3.9
			c1.2-0.1,3.2,0.1,4.4,1.1C100.3,98.5,100.8,99.9,99.3,99.8 M74,102.4c0.2-1,1.2-3.5,3.4-4.2c0.3-0.1,1.4-0.4,2.3-0.7
			c1.1-0.3,2.3-0.5,2.9-0.6c1.6-0.3,1.9,0.9,0.9,1.7c-0.7,0.5-1.7,1.2-2.7,2c-1.4,1.2-2.8,2.5-3.8,3.3C75.8,105,73.7,104.4,74,102.4
			 M81.6,130.1C81.5,130.1,81.5,130.1,81.6,130.1C81.5,130.1,81.5,130.1,81.6,130.1c-0.4-0.6-0.8-1.2-1.1-1.8
			c-0.1-0.1-0.1-0.3-0.2-0.4c-0.3-0.6-0.7-1.3-0.9-2c-0.5-1.3,0.3-1.5,0.9-1.2c0.6,0.3,2.2,1.2,3.9,1.6c1.1,0.2,1.7-0.3,1.9-1.1
			c0-0.1,0.1-0.3,0.1-0.4c0-0.1,0.1-0.1,0.1-0.2c0,0,0-0.1,0-0.1c0-0.1,0-0.2,0.1-0.2c0,0,0-0.1,0-0.1c0-0.1,0-0.2,0-0.3
			c0,0,0-0.1,0-0.1c0-0.1,0-0.2,0-0.3c0,0,0-0.1,0-0.1c0-0.1-0.1-0.2-0.1-0.3c0,0,0-0.1,0-0.1c-0.1-0.1-0.1-0.2-0.2-0.3
			c-0.1-0.1-0.3-0.2-0.5-0.3c-1.5-0.6-5.8-2-9-7.9c-0.5-0.8,0-1.6,0.3-1.8c0.3-0.2,1.4-1,2-1.3c0.5-0.3,1.3-0.3,2,0.2
			c0.7,0.5,2.3,1.7,3.6,1.6c1.2-0.1,1.3-0.6,1.5-0.9c0.8-1.2,3.1-5.7,9.1-5.7c2.5,0,4.8,0.2,5.6,0.1c0.8-0.1,3.7-0.3,5.4-1.5
			c1.7-1.2,2.4-0.3,1.4,0.9c-0.1,0.2-0.3,0.4-0.4,0.5c0,0.1-0.1,0.1-0.1,0.2c-0.1,0.2-0.2,0.3-0.3,0.5c-0.4,0.6-0.4,1.2,0.3,1.9
			c1.1,1.2,1.4,1.4,1.7,1.6c0.2,0.1,0.3,0.2,0.6,0.2c0.1,0,0.2,0,0.3,0c0,0,0.1,0,0.1,0c0.2-0.1,0.3-0.2,0.5-0.3
			c0.6-0.5,1-0.9,1.6-1.6c0.4-0.5,0.7,0,0.6,0.8c-0.1,0.6,0.2,4.7-4.2,9.6c-0.1,0.2-0.5,0.4-0.9,0.8c-0.1,0.1-0.2,0.2-0.3,0.3
			c-0.1,0-0.1,0.1-0.2,0.1c-0.1,0.1-0.3,0.2-0.4,0.4c-0.1,0.1-0.2,0.2-0.3,0.3c-0.1,0.1-0.2,0.2-0.4,0.4c-0.1,0.1-0.1,0.2-0.2,0.3
			c-0.1,0.2-0.3,0.3-0.4,0.5c0,0.1-0.1,0.1-0.1,0.2c-0.2,0.2-0.3,0.4-0.5,0.7c-0.2,0.3-0.4,0.6-0.5,0.9c-1.2,2.6-1.1,3.5-1.2,4.4
			c-0.1,0.9-0.9,1.3-1.7,1.7c-0.5,0.2-1.8,1-3.3,2.1l0,0c-0.4,0.3-0.9,0.7-1.3,1.1c-0.1,0.1-0.2,0.1-0.2,0.2
			c-0.4,0.4-0.9,0.8-1.3,1.2c-0.3,0.3-0.5,0.5-0.8,0.8c-0.1,0.1-0.2,0.1-0.3,0.2c-0.2,0.1-0.4,0.3-0.6,0.4c-0.1,0.1-0.2,0.1-0.3,0.2
			c-0.2,0.1-0.4,0.2-0.6,0.3c-0.1,0-0.2,0.1-0.3,0.1c-0.1,0-0.1,0-0.2,0.1c-0.1,0-0.3,0-0.4,0.1c-0.2,0-0.3,0.1-0.5,0.1
			c-0.2,0-0.4,0-0.5,0c-0.2,0-0.3,0-0.5,0c-0.2,0-0.4-0.1-0.6-0.1c-0.2,0-0.3-0.1-0.5-0.1c-0.2-0.1-0.3-0.2-0.5-0.2
			c-0.2-0.1-0.3-0.1-0.5-0.2c0,0,0,0,0,0c-0.3-0.2-0.6-0.4-0.9-0.6c-0.8-0.7-1.6-1.4-2.5-2.3c0,0,0,0-0.1-0.1c0,0,0-0.1-0.1-0.1
			c-0.4-0.4-0.9-0.9-1.3-1.4C82.9,131.9,82,130.7,81.6,130.1 M134.5,223c-0.3,1.4-1.4,6.2-5.6,15.9c-0.3,0.7-0.6,1.3-0.8,1.9
			c-0.1,0.1-0.1,0.3-0.2,0.4c-0.1,0.2-0.2,0.5-0.3,0.7c0,0,0,0,0,0.1c-0.2,0.3-0.3,0.7-0.5,1c0,0,0,0,0,0c0,0,0,0.1-0.1,0.1
			c-0.1,0.1-0.1,0.2-0.2,0.3c-0.1,0.1-0.1,0.3-0.2,0.4c0,0,0,0,0,0c0,0,0,0.1-0.1,0.1c-0.1,0.1-0.2,0.3-0.2,0.3c0,0,0,0,0,0.1
			c0,0,0,0,0,0c-0.1,0.1-0.1,0.2-0.1,0.2c0,0,0,0.1,0,0.1c0,0,0,0,0,0c-0.1,0.1-0.1,0.2-0.2,0.3c0,0,0,0,0,0
			c-0.1,0.1-0.2,0.2-0.2,0.3c0,0,0,0,0,0c-0.1,0.1-0.1,0.2-0.2,0.3c0,0,0,0,0,0c-0.1,0.1-0.2,0.2-0.2,0.3c0,0,0,0,0,0
			c0,0-0.1,0.1-0.1,0.1h0c0,0,0,0.1-0.1,0.1c0,0,0,0-0.1,0c-0.1,0.1-0.2,0.1-0.2,0.2c0,0,0,0,0,0c-0.1,0.1-0.1,0.1-0.2,0.2
			c0,0,0,0-0.1,0c0,0,0,0,0,0c0,0,0,0,0,0c-0.1,0-0.1,0.1-0.2,0.1c0,0,0,0,0,0c-0.1,0-0.2,0.1-0.2,0.1c0,0,0,0-0.1,0
			c-0.1,0-0.2,0.1-0.3,0.1c-0.9,0.2-1.8,0.3-2.4,0.4c-0.1,0-0.6,0.1-0.7,0.1c-0.2,0-0.5,0.1-0.7,0.1c0,0,0,0,0,0
			c-6.3,1.1-23.6,4-31.5,5.6c-5.3,1.1-4.8-1.6-6.1-6.4c-0.6-2-2.5-19.9-1.5-31.2c0.3-3.7,0.5-4.8,1.2-5.2c0.7-0.4,1.7-1.1,2-1.2
			c0.3-0.1,1.2-0.3,1.6,0.4c0.4,0.8,8.2,16.5,13.2,22.1c4.5,5.1,7.6,8.7,11.4,11.2c0.2,0.2,0.5,0.3,0.7,0.3c0,0,0,0,0.1,0
			c0.1,0,0.2,0,0.2,0.1c0.1,0,0.1,0,0.2,0c0,0,0,0,0.1,0c0.1,0,0.2-0.1,0.3-0.2c0,0,0,0,0,0c0.1-0.1,0.1-0.2,0.1-0.3c0,0,0,0,0-0.1
			c0.1-0.6-0.2-1.5-0.7-2.1c-0.8-0.9-4.3-4.5-8.8-10.9c-5.9-8.4-9.9-20.7-10.9-24.6c-0.7-2.6-1.1-6.7-1-9.9c0,0,0,0,0,0
			c0-0.1,0-0.3,0-0.4c0-0.1,0-0.2,0-0.3c0-0.2,0-0.4,0-0.6c0-0.3,0-0.6,0.1-0.9c0-0.1,0-0.2,0-0.3c0-0.2,0.1-0.4,0.1-0.6
			c0-0.1,0-0.2,0.1-0.3c0.1-0.2,0.1-0.5,0.2-0.7c0.9-2.6,1.7-2.3,2.5-1.5c0.8,0.9,8.1,7.5,20.2,12.9c2.6,1.1,4.1,1.7,4.4,2
			c0.3,0.4,0.9,1.1-0.2,1.4c-1.1,0.3-4.3,0.4-7.7,1.7c-0.2,0.1-0.4,0.2-0.5,0.2c-1.2,0.5-1.7,1.1-2,1.6c0,0.1-0.1,0.2-0.1,0.3
			c0,0.1,0,0.2,0,0.3c0,0.1,0,0.3,0,0.4c0,0.1,0,0.2,0,0.3c0,0.2,0,0.3,0,0.5c0,0.3,0.1,0.6,0.1,0.9c0.2,1.8,0.5,3.1,0.7,5.6
			c0.2,2.5,0.1,4.7,1.3,5.7c1.2,1,2.8,1.6,7.2,0.8c4.1-0.8,5.5-1.2,6-1.2c0.5,0,1.6-0.2,0.9,1.1c-0.1,0.1-0.2,0.3-0.3,0.5
			c-0.9,1.7-3.3,5.5-4,8c-0.9,2.8-1,3.6-1.1,4.1c-0.1,0.5,0.3,1.4,1.1,0.4c0.9-1,2.5-4.9,6.8-9.8c0.6-0.7,1.1-1.2,1.6-1.8
			c0,0,0,0,0,0c0.4-0.4,0.7-0.8,1.1-1.1c0.1-0.1,0.2-0.2,0.3-0.3c0.3-0.3,0.6-0.5,0.8-0.8c0.1-0.1,0.1-0.1,0.2-0.2
			c0.6-0.6,1.2-1,1.7-1.4c0,0,0.1-0.1,0.1-0.1c0.2-0.1,0.4-0.3,0.5-0.4c0,0,0.1-0.1,0.1-0.1c0.2-0.1,0.3-0.2,0.5-0.3
			c0,0,0.1,0,0.1-0.1c0,0,0,0,0,0c0.2-0.1,0.3-0.2,0.5-0.2C134.6,220.3,134.9,221.1,134.5,223 M141.5,244.6
			c-0.7,0.2-3.6,0.6-4.1,0.6c-0.4,0-0.8-0.4-0.6-0.7c0.2-0.3,2.2-2.9,3.3-7.5c0.2-0.7,0.7-1.3,1-0.2c0.2,0.8,1.1,4.7,1.4,6.1
			C142.5,243.1,142.7,244.3,141.5,244.6 M142.8,207.2c-1.9,0.7-4.1-1.4-5.8-2.6c-3.9-2.7-7.5-5.2-10.4-8.8
			c-4.5-5.5-4.1-9.4-2.8-16.5c0.9-5.1-0.7-9.8-1.1-10.5c-0.4-0.7,0-1.4,1.1-0.9c1.1,0.5,2.1,2.1,3.2,3.4c1.1,1.3,1.3,0.4,1.4-0.5
			c0.2-2.1-0.3-3.8-0.5-4.7h0c0,0,0-0.1,0-0.2c-0.2-0.6-0.7-1.9-1.8-2.1c-1.5-0.3-3-0.5-3.8-1c-0.4-0.3-0.8-0.8-0.4-1.2
			c0.8-0.8,1.9-1.7,3-2.1c1.5-0.5,2.9-1.3,4.7-1.3c12.4,0.1,15.8-2.8,20.5-4.8c0.9-0.4,1.5-0.6,2.3-0.3c0.8,0.2,3,1.1,3.5,2
			c0.6,1,0.6,5,1.7,7.9c1,2.9,2.8-0.1,3.2-1.4c0.4-1.3,0.5-4.2,0.5-5c0-0.8,0.2-3.9,1.2-5c2-2.1,2.5-4.6,2.7-5.6
			c0.2-0.9,0.4-3.3-0.1-6.8c0-0.4-0.1-0.9-0.2-1.3c-0.7-4.2-1.5-4.6-2.7-5.3c-1.1-0.8-2.4-0.4-5.3-2.4c-2.6-1.8-5-4.9-7-6.9
			c-2-1.9-5.1-3.8-8.4-4.2c-0.2,0-0.4,0-0.6,0c0,0,0,0,0,0c-0.1,0-0.3,0-0.4,0c0,0,0,0-0.1,0c-0.1,0-0.2,0-0.3,0.1c0,0,0,0-0.1,0
			c-0.1,0-0.1,0.1-0.2,0.1c0,0,0,0-0.1,0.1c0,0-0.1,0.1-0.1,0.1c0,0,0,0.1-0.1,0.1c0,0,0,0.1,0,0.1c0,0.1,0,0.1,0,0.2c0,0,0,0,0,0.1
			c0,0.1,0,0.2,0,0.2h0c0.1,0.8,0.7,1.8,0.8,2.2c0.2,0.6,0.7,2.2-0.2,3.2c-0.9,1-6.4,5.9-11.6,5.8c-2.3-0.1-4.3-0.5-5.9-1.2
			c0,0,0,0,0,0c-0.1,0-0.1-0.1-0.2-0.1c-0.4-0.2-0.8-0.4-1.1-0.6c-0.1,0-0.1-0.1-0.2-0.1c-0.4-0.2-0.8-0.5-1.1-0.7
			c-0.1-0.1-0.2-0.2-0.3-0.2c-0.3-0.2-0.5-0.4-0.7-0.6c-0.1-0.1-0.1-0.1-0.2-0.2c-0.3-0.3-0.5-0.5-0.8-0.8c-0.1-0.1-0.1-0.1-0.2-0.2
			c-0.2-0.2-0.4-0.4-0.5-0.6c-0.1-0.1-0.1-0.1-0.1-0.2c-0.2-0.3-0.4-0.5-0.5-0.8c0,0,0-0.1,0-0.1c-0.1-0.2-0.2-0.4-0.3-0.6
			c0-0.1,0-0.1-0.1-0.2c-0.1-0.2-0.2-0.4-0.2-0.6c-0.8-2.3,1.1-7.6,1-11.4c0-1.7-0.4-4.9-0.6-7.1c-0.3-2.2,0.9-5.2,1.5-6
			c0.1-0.2,0.3-0.3,0.5-0.5c0.1,0,0.1-0.1,0.2-0.1c0.2-0.1,0.4-0.3,0.7-0.4c0,0,0.1,0,0.1-0.1c0.3-0.1,0.5-0.2,0.8-0.3v0
			c0.5-0.2,1-0.3,1.6-0.4c1.8-0.4,4,0.5,4.5,2c1.9,5.3,4,6.4,4.8,6.7c0.7,0.4,1.9-0.7,2.3-1.1c0.4-0.4,1.5-1.8,1-2.4
			c-0.7-0.9-1.1-1.5-1.4-2.1c-0.4-1,0.9-1,1.2-0.9c3.9,1.7,5.8,2,9.6,1.9c3.8-0.1,9.7-2.6,10.4-2.6c0.6,0,1.8,0.4,2.2,1
			c0.1,0.1,0.2,0.3,0.3,0.4c0.4,0.6,0.9,1.3,1.3,1.5c0,0,0,0,0.1,0c0.6,0.1,1.9,0,2.6,0.1c1,0,2.6-0.3,2.6,1.5
			c-0.1,4.7-3.8,7.6-4.2,7.9c-0.1,0.1-0.2,0.3-0.3,0.4c0,0-0.1,0.1-0.1,0.1c0,0.1,0,0.2,0,0.3c0,0.1,0,0.2,0,0.2
			c0.1,0.3,0.5,1.3,0.7,1.6c0.1,0.1,0.1,0.2,0.2,0.3c0,0,0.1,0,0.1,0.1c0.1,0.1,0.1,0.1,0.2,0.1c0,0,0.1,0,0.1,0c0.1,0,0.2,0,0.3,0
			c0.1,0,0.1,0,0.2,0c0.1,0,0.3-0.1,0.4-0.1c3.1-1.9,4.4-4.1,5.8-6.9c1.4-2.8,2.1-12,2.2-13.5c0.1-1.5,0.6-2.5,1.3-3.1
			c0.7-0.6,4.4-3,4.9-3.1c0.5-0.1,1.1-0.2,1.7,1.2c0.6,1.4,1.9,9.9,2.2,11.2c0.3,1.4,1,1.2,1.4,1c0.8-0.6,1.4-1.3,2.1-2.5
			c0.7-1.2,0.2-2.9-0.5-3.6c-0.7-0.8-1.8-2-1.3-3.3c1.1-2.8,3.3-2.7,3.9-2.6c0.6,0.1,2.9,1.1,3.3,7.2c0.6,9.1-3.1,18.4-4,20.8
			c-1.9,5.3-2.4,8.9-2.7,10.6c-0.3,1.7-1.6,1.4-1.9,1.1c-0.3-0.3-0.7-1.6-0.9-1.8c-0.2-0.2-0.7-0.1-1,1.4c-0.3,1.4-1.4,3.5-2.1,4.6
			c-0.4,0.7-0.4,1.7-0.2,2.5c0.2,1.5,1,7.4,0.8,14.1c-0.4,11.9-4.4,19.4-7.4,23.3c-7,9.2-13.5,13.1-14.3,13.7
			c-1,0.7-2.7,0.6-3.3,0.4c-0.6-0.2-1.1-0.8-2.2-1.5c-0.1-0.1-0.2-0.1-0.2-0.1c-0.9-0.4-1,0.8-1,1.1c0,0.3,0.5,1.6,0.8,2.8
			c0.6,2.3-0.7,5-2,7.2c-1.8,3.1-3.9,6.4-3.5,10.1C143.1,206.9,143.1,207.1,142.8,207.2 M202,210.8c1.1,6.1,2.2,13.4,3.6,22.5
			c0.1,0.5,0.1,0.9,0.2,1.3c0,0,0,0.1,0,0.1c0,0.4,0.1,0.7,0.1,0.9c0,0,0,0.1,0,0.1c0,0.1,0,0.2,0,0.4c0,0.1,0,0.2-0.1,0.3
			c0,0,0,0.1,0,0.1c0,0.2-0.1,0.3-0.2,0.5c0,0,0,0,0,0.1c-0.1,0.1-0.2,0.2-0.3,0.3c0,0-0.1,0-0.1,0.1c-0.1,0.1-0.3,0.1-0.4,0.2
			c0,0-0.1,0-0.2,0c-0.1,0-0.3,0.1-0.4,0.1c-0.1,0-0.2,0-0.3,0.1c-0.2,0-0.4,0.1-0.7,0.1c-0.4,0.1-1.1,0.2-1.5,0.2
			c-0.8,0.1-1.6,0.1-2.6,0.2c-9.2,0.8-27.3,2.7-41.7,4.5c-0.3,0-0.6,0.1-0.8,0.1c-1.1,0.2-1.8,0-1.9-1.1c-0.1-1-1.8-11.1-6.9-19.6
			c-0.5-0.8-1-1.6-1.5-2.3c-0.6-0.8,0.3-1.5,1.1-1.2c2.3,0.8,8.7,3.7,17.9,10.3c2.3,1.7,2.9,2.2,3.5,2.6c0.1,0.1,0.2,0.1,0.3,0.2
			c0,0,0.1,0,0.1,0c0.1,0,0.1,0,0.2,0.1c0,0,0.1,0,0.1,0c0.1,0,0.2,0,0.3,0c0,0,0.1,0,0.1,0c0.1,0,0.2,0,0.3-0.1
			c0.2-0.1,0.3-0.4,0.1-0.8c-0.6-1.6-3.6-4.8-11.5-12c-1.1-1-1.1-1.5,0-1.6c1.2-0.1,4.3,0,6,0c1.7-0.1,5.4-0.2,4.7-5.1
			c-0.6-3.8-1-7.7-1.1-8.9c-0.1-1.2-0.3-3.4-3-3.7c-2.7-0.3-7.3,0.3-11.4,1.8c-1.1,0.4-1.5-0.1-0.7-0.9c0.8-0.8,8-5.4,14.1-12.4
			c6.7-7.7,9.7-13.4,11.4-18.6c0.3-0.9,0.7-0.6,1.1-0.4c0.4,0.2,2.9,2.3,3.8,7.3c0.9,5,2.6,12-0.4,30.3c-1.7,10-3.7,16-4.2,17.4
			c-0.5,1.4,0.3,2.2,1.3,0.9c2.2-2.9,5-11.1,7.4-20.5c2.4-9.3,3.2-17.2,3.6-22.3v0c0-0.5,0.1-0.9,0.1-1.3l0-0.2c0-0.4,0-0.8,0.1-1.2
			c0-0.2,0-0.4,0.1-0.5c0,0,0-0.1,0-0.1c0-0.1,0-0.1,0.1-0.2c0,0,0,0,0,0c0-0.1,0.1-0.2,0.2-0.2c0,0,0,0,0,0c0,0,0.1-0.1,0.1-0.1
			c0,0,0.1,0,0.1,0c0,0,0,0,0.1,0c0.1,0,0.1,0,0.1,0c0,0,0,0,0.1,0c0,0,0.1,0,0.1,0s0,0,0,0c0.2,0,0.4,0.1,0.5,0.2
			c0.5,0.2,2.6,0.8,3.7,5.9c0,0.2,0.1,0.4,0.1,0.6c0,0.1,0,0.2,0,0.2c0.1,0.2,0.1,0.4,0.1,0.6l0,0
			C197.9,189.8,199.6,196.7,202,210.8"/>
		<polygon points="163,219.4 164,219.4 164,222 164.6,222 164.6,219.4 165.7,219.4 165.7,218.9 163,218.9 		"/>
		<polygon points="167.9,221.1 167.1,218.9 166.2,218.9 166.2,222 166.8,222 166.8,219.5 167.7,222 168.2,222 169,219.5 169,222 
			169.6,222 169.6,218.9 168.7,218.9 		"/>
	</g>
</g>
</svg>
