<svg width="31" height="38" viewBox="0 0 31 38" fill="none" xmlns="http://www.w3.org/2000/svg">
<path d="M3.93066 35C3.13314 35 2.73438 34.5728 2.73438 33.7183V11.7749C2.73438 10.9204 3.13314 10.4932 3.93066 10.4932H6.52832C7.32585 10.4932 7.72461 10.9204 7.72461 11.7749V20.1318H16.9189V11.7749C16.9189 10.9204 17.3177 10.4932 18.1152 10.4932H20.7129C21.5104 10.4932 21.9092 10.9204 21.9092 11.7749V33.7183C21.9092 34.5728 21.5104 35 20.7129 35H18.1152C17.3177 35 16.9189 34.5728 16.9189 33.7183V24.3701H7.72461V33.7183C7.72461 34.5728 7.32585 35 6.52832 35H3.93066Z" fill="white"/>
<rect x="26" y="30" width="5" height="5" fill="#FF4C60"/>
</svg>
