<svg xmlns="http://www.w3.org/2000/svg" width="117" height="32" viewBox="0 0 117 32" fill="none">
<path d="M115.688 30.588C115.952 30.588 116.168 30.498 116.336 30.318C116.504 30.138 116.588 29.928 116.588 29.688V24.936C116.588 24.672 116.504 24.45 116.336 24.27C116.168 24.09 115.952 24 115.688 24H110.936C110.672 24 110.45 24.09 110.27 24.27C110.09 24.45 110 24.672 110 24.936V29.688C110 29.952 110.09 30.168 110.27 30.336C110.45 30.504 110.672 30.588 110.936 30.588H115.688Z" fill="#FF4C60"/>
<path d="M18.76 11.344V31H13.972V22.908H6.524V31H1.736V11.344H6.524V19.044H13.972V11.344H18.76ZM37.6445 15.376V31H32.8565V28.872C32.3711 29.5627 31.7085 30.1227 30.8685 30.552C30.0471 30.9627 29.1325 31.168 28.1245 31.168C26.9298 31.168 25.8751 30.9067 24.9605 30.384C24.0458 29.8427 23.3365 29.068 22.8325 28.06C22.3285 27.052 22.0765 25.8667 22.0765 24.504V15.376H26.8365V23.86C26.8365 24.9053 27.1071 25.7173 27.6485 26.296C28.1898 26.8747 28.9178 27.164 29.8325 27.164C30.7658 27.164 31.5031 26.8747 32.0445 26.296C32.5858 25.7173 32.8565 24.9053 32.8565 23.86V15.376H37.6445ZM61.0197 15.208C62.961 15.208 64.501 15.796 65.6397 16.972C66.797 18.148 67.3757 19.7813 67.3757 21.872V31H62.6157V22.516C62.6157 21.508 62.345 20.7333 61.8037 20.192C61.281 19.632 60.553 19.352 59.6197 19.352C58.6863 19.352 57.949 19.632 57.4077 20.192C56.885 20.7333 56.6237 21.508 56.6237 22.516V31H51.8637V22.516C51.8637 21.508 51.593 20.7333 51.0517 20.192C50.529 19.632 49.801 19.352 48.8677 19.352C47.9343 19.352 47.197 19.632 46.6557 20.192C46.133 20.7333 45.8717 21.508 45.8717 22.516V31H41.0837V15.376H45.8717V17.336C46.357 16.6827 46.9917 16.1693 47.7757 15.796C48.5597 15.404 49.4463 15.208 50.4357 15.208C51.6117 15.208 52.657 15.46 53.5717 15.964C54.505 16.468 55.233 17.1867 55.7557 18.12C56.297 17.2613 57.0343 16.5613 57.9677 16.02C58.901 15.4787 59.9183 15.208 61.0197 15.208ZM80.2443 15.208C82.0736 15.208 83.5296 15.8053 84.6123 17C85.7136 18.176 86.2643 19.8 86.2643 21.872V31H81.5043V22.516C81.5043 21.4707 81.2336 20.6587 80.6923 20.08C80.1509 19.5013 79.4229 19.212 78.5083 19.212C77.5936 19.212 76.8656 19.5013 76.3243 20.08C75.7829 20.6587 75.5123 21.4707 75.5123 22.516V31H70.7243V15.376H75.5123V17.448C75.9976 16.7573 76.6509 16.216 77.4723 15.824C78.2936 15.4133 79.2176 15.208 80.2443 15.208ZM88.6395 23.16C88.6395 21.5547 88.9381 20.1453 89.5355 18.932C90.1515 17.7187 90.9821 16.7853 92.0275 16.132C93.0728 15.4787 94.2395 15.152 95.5275 15.152C96.6288 15.152 97.5901 15.376 98.4115 15.824C99.2515 16.272 99.8955 16.86 100.343 17.588V15.376H105.131V31H100.343V28.788C99.8768 29.516 99.2235 30.104 98.3835 30.552C97.5621 31 96.6008 31.224 95.4995 31.224C94.2301 31.224 93.0728 30.8973 92.0275 30.244C90.9821 29.572 90.1515 28.6293 89.5355 27.416C88.9381 26.184 88.6395 24.7653 88.6395 23.16ZM100.343 23.188C100.343 21.9933 100.007 21.0507 99.3355 20.36C98.6821 19.6693 97.8795 19.324 96.9275 19.324C95.9755 19.324 95.1635 19.6693 94.4915 20.36C93.8381 21.032 93.5115 21.9653 93.5115 23.16C93.5115 24.3547 93.8381 25.3067 94.4915 26.016C95.1635 26.7067 95.9755 27.052 96.9275 27.052C97.8795 27.052 98.6821 26.7067 99.3355 26.016C100.007 25.3253 100.343 24.3827 100.343 23.188Z" fill="white"/>
</svg>
